<?xml version="1.0" encoding="UTF-8" standalone="no"?>
<!DOCTYPE svg PUBLIC "-//W3C//DTD SVG 1.1//EN" "http://www.w3.org/Graphics/SVG/1.1/DTD/svg11.dtd">
<svg width="100%" height="100%" viewBox="0 0 5301 1223" version="1.1" xmlns="http://www.w3.org/2000/svg" xmlns:xlink="http://www.w3.org/1999/xlink" xml:space="preserve" xmlns:serif="http://www.serif.com/" style="fill-rule:evenodd;clip-rule:evenodd;stroke-linejoin:round;stroke-miterlimit:2;">
    <g id="Capa-1" serif:id="Capa 1" transform="matrix(4.16667,0,0,4.16667,0,0)">
        <g transform="matrix(1,0,0,1,156.802,64.115)">
            <path d="M0,55.734L-6.775,82.316L-102.607,82.297L-74.601,-26.582L-37.501,-26.582L-58.956,55.734L0,55.734Z" style="fill:rgb(227,6,19);fill-rule:nonzero;"/>
        </g>
        <g transform="matrix(1,0,0,1,230.333,103.007)">
            <path d="M0,8.143C-15.235,10.473 -24.194,12.53 -26.896,14.304C-29.567,16.1 -31.003,18.225 -31.016,20.644C-31.118,23.151 -30.234,25.156 -28.348,26.632C-26.496,28.043 -24.083,28.813 -21.126,28.813C-16.963,28.797 -12.766,27.237 -8.597,24.181C-4.477,21.067 -1.567,15.734 0,8.143M-52.951,-13.774C-50.755,-21.269 -46.058,-27.026 -38.817,-31.112C-31.602,-35.113 -20.521,-37.161 -5.59,-37.161C11.267,-37.161 22.661,-35.232 28.468,-31.373C34.338,-27.445 37.151,-21.802 36.931,-14.36C36.807,-9.415 35.079,-1.229 31.868,10.088C28.775,20.828 27.212,28.295 27.122,32.492C27.042,36.063 27.662,39.717 28.934,43.405L-3.205,43.405C-3.925,40.275 -4.204,37.307 -4.173,34.446C-13.001,41.675 -22.708,45.304 -33.346,45.304C-44.247,45.304 -51.977,42.962 -56.618,38.302C-61.243,33.627 -63.52,28.267 -63.337,22.097C-63.173,15.129 -60.939,9.825 -56.593,6.136C-52.241,2.478 -46.939,0.006 -40.713,-1.318C-34.438,-2.646 -25.913,-3.782 -15.136,-4.765C-5.513,-5.717 0.85,-6.657 4.073,-7.526C4.771,-9.837 5.146,-11.639 5.211,-12.883C5.249,-14.887 4.153,-16.476 2.019,-17.614C-0.13,-18.827 -3.019,-19.385 -6.673,-19.385C-10.42,-19.385 -13.504,-18.834 -15.902,-17.753C-18.294,-16.615 -20.44,-14.276 -22.258,-10.725L-52.951,-13.774Z" style="fill:rgb(227,6,19);fill-rule:nonzero;"/>
        </g>
        <g transform="matrix(1,0,0,1,456.251,146.413)">
            <path d="M0,-108.88L-6.055,-85.471L-66.393,-85.471L-70.813,-68.179L-12.61,-68.179L-18.569,-46.095L-76.654,-46.095L-82.226,-24.78L-16.751,-24.78L-23.226,0L-125.318,0L-97.138,-108.867L0,-108.88Z" style="fill:rgb(227,6,19);fill-rule:nonzero;"/>
        </g>
        <g transform="matrix(1,0,0,1,557.965,119.107)">
            <path d="M0,-24.057L-29.917,-22.587C-31.127,-29.458 -36.072,-32.911 -44.799,-32.911C-52.858,-32.929 -59.131,-29.92 -63.595,-23.967C-68.102,-18.008 -70.416,-11.481 -70.627,-4.448C-70.745,-0.192 -69.3,3.062 -66.222,5.342C-63.253,7.613 -59.931,8.748 -56.33,8.748C-47.587,8.748 -40.871,4.297 -36.361,-4.606L-5.538,-1.536C-13.743,18.93 -31.261,29.204 -58.166,29.204C-88.536,29.204 -103.383,17.8 -102.766,-4.929C-102.456,-18.11 -97.166,-29.508 -86.938,-39.019C-76.67,-48.505 -62.425,-53.261 -44.314,-53.261C-31.261,-53.261 -20.921,-50.841 -13.25,-45.933C-5.625,-41.051 -1.194,-33.792 0,-24.057" style="fill:rgb(227,6,19);fill-rule:nonzero;"/>
        </g>
        <g transform="matrix(1,0,0,1,611.589,86.2988)">
            <path d="M0,41.56C6.189,41.548 11.137,38.697 14.947,32.911C18.657,27.163 20.658,20.757 20.841,13.702C20.927,8.63 19.677,5.057 16.947,2.975C14.267,0.934 11.218,-0.099 7.889,-0.099C0.903,-0.099 -4.386,2.78 -8.056,8.581C-11.686,14.37 -13.59,20.294 -13.727,26.356C-13.833,30.678 -12.536,34.338 -9.96,37.242C-7.256,40.114 -3.942,41.56 0,41.56M9.614,-20.443C25.047,-20.452 36.209,-16.885 43.067,-9.759C49.911,-2.615 53.273,5.718 52.994,15.281C52.793,22.553 50.557,29.989 46.356,37.458C42.047,45 35.84,50.962 27.529,55.386C19.324,59.786 9.276,62.012 -2.63,62.012C-17.726,62.012 -28.763,58.606 -35.811,51.757C-42.822,44.972 -46.175,36.481 -45.964,26.369C-45.729,18.334 -43.362,10.681 -38.842,3.239C-34.403,-4.175 -28.015,-10.002 -19.739,-14.192C-11.425,-18.346 -1.666,-20.452 9.614,-20.443" style="fill:rgb(227,6,19);fill-rule:nonzero;"/>
        </g>
        <g transform="matrix(1,0,0,1,719.26,132.435)">
            <path d="M0,-52.61C9.371,-61.923 20.526,-66.588 33.648,-66.588C41.41,-66.588 47.205,-64.771 51.058,-61.129C54.846,-57.474 56.698,-53.026 56.503,-47.734C56.422,-44.55 55.212,-38.303 52.783,-29.027L41.732,13.978L8.63,13.978L18.069,-22.637C20.405,-31.589 21.541,-36.736 21.575,-38.011C21.678,-42.354 19.521,-44.535 15.253,-44.535C10.379,-44.529 6.102,-42.466 2.323,-38.247C-1.384,-34.077 -4.3,-28.026 -6.311,-20.143L-15.294,13.978L-48.553,13.978L-28.025,-64.804L2.875,-64.804L-0.249,-52.933L0,-52.61Z" style="fill:rgb(227,6,19);fill-rule:nonzero;"/>
        </g>
        <g transform="matrix(1,0,0,1,833.165,86.2988)">
            <path d="M0,41.56C6.13,41.56 11.105,38.697 14.905,32.911C18.681,27.163 20.645,20.757 20.812,13.702C20.948,8.624 19.646,5.057 16.975,2.975C14.242,0.934 11.201,-0.099 7.829,-0.099C0.908,-0.099 -4.378,2.768 -8.054,8.581C-11.689,14.37 -13.609,20.313 -13.759,26.356C-13.857,30.678 -12.573,34.338 -9.934,37.242C-7.234,40.123 -3.946,41.56 0,41.56M9.588,-20.452C24.981,-20.452 36.143,-16.885 43.023,-9.74C49.904,-2.615 53.189,5.733 52.994,15.281C52.733,22.553 50.512,29.989 46.318,37.477C42.059,45 35.836,50.962 27.584,55.386C19.348,59.786 9.266,62.012 -2.659,62.012C-17.729,62.012 -28.788,58.606 -35.79,51.757C-42.792,44.972 -46.198,36.481 -45.909,26.369C-45.705,18.334 -43.378,10.681 -38.908,3.239C-34.413,-4.175 -28.028,-9.98 -19.765,-14.192C-11.525,-18.346 -1.716,-20.452 9.588,-20.452" style="fill:rgb(227,6,19);fill-rule:nonzero;"/>
        </g>
        <g transform="matrix(1,0,0,1,995.846,133.055)">
            <path d="M0,-53.832C6.365,-58.994 12.139,-62.493 17.356,-64.379C22.496,-66.269 27.99,-67.2 33.767,-67.208C41.538,-67.208 47.363,-65.311 51.133,-61.535C54.955,-57.759 56.77,-53.141 56.608,-47.746C56.571,-44.522 56.105,-41.417 55.336,-38.38L41.742,13.376L8.599,13.357L17.396,-20.242C19.587,-28.829 20.858,-33.947 21.119,-35.573C21.414,-37.236 21.551,-38.334 21.551,-39.019C21.638,-43.096 19.603,-45.159 15.353,-45.167C10.404,-45.159 6.341,-43.25 2.993,-39.503C-0.292,-35.756 -3.016,-29.784 -5.097,-21.681L-14.184,13.376L-47.346,13.357L-38.75,-19.674C-36.433,-28.549 -35.16,-33.764 -34.912,-35.396C-34.577,-37.053 -34.409,-38.25 -34.409,-39.153C-34.313,-43.158 -36.513,-45.159 -40.937,-45.159C-44.281,-45.159 -47.792,-43.582 -51.623,-40.458C-55.437,-37.301 -58.293,-31.99 -60.26,-24.445L-70.172,13.357L-103.442,13.357L-82.872,-65.425L-52.15,-65.425L-55.12,-54.124L-54.821,-53.832C-45.162,-62.754 -34.385,-67.208 -22.584,-67.208C-17.174,-67.208 -12.439,-66.045 -8.354,-63.734C-4.194,-61.42 -1.39,-58.088 0,-53.832" style="fill:rgb(227,6,19);fill-rule:nonzero;"/>
        </g>
        <g transform="matrix(1,0,0,1,1128.52,146.431)">
            <path d="M0,-110.753L-30.199,-88.566L-46.241,-88.557L-27.712,-110.753L0,-110.753ZM-15.595,-78.8L-36.094,0L-69.253,-0.018L-48.825,-78.785L-15.595,-78.8Z" style="fill:rgb(227,6,19);fill-rule:nonzero;"/>
        </g>
        <g transform="matrix(1,0,0,1,1180.93,103.007)">
            <path d="M0,8.143C-15.263,10.479 -24.212,12.53 -26.914,14.304C-29.619,16.094 -30.99,18.225 -31.071,20.644C-31.133,23.151 -30.246,25.143 -28.329,26.632C-26.514,28.043 -24.11,28.797 -21.132,28.813C-16.969,28.813 -12.781,27.231 -8.593,24.185C-4.467,21.067 -1.604,15.725 0,8.143M-52.969,-13.774C-50.771,-21.256 -46.079,-27.02 -38.87,-31.112C-31.673,-35.105 -20.595,-37.161 -5.637,-37.161C11.279,-37.161 22.661,-35.232 28.472,-31.36C34.285,-27.445 37.09,-21.808 36.891,-14.36C36.761,-9.409 35.073,-1.244 31.801,10.107C28.788,20.828 27.185,28.292 27.116,32.492C26.979,36.063 27.615,39.717 28.946,43.405L-3.288,43.424C-3.912,40.275 -4.24,37.307 -4.156,34.446C-12.977,41.687 -22.714,45.304 -33.397,45.304C-44.262,45.304 -52.055,42.952 -56.63,38.302C-61.277,33.627 -63.522,28.242 -63.377,22.097C-63.191,15.123 -60.933,9.825 -56.611,6.161C-52.234,2.5 -46.954,0 -40.713,-1.318C-34.471,-2.652 -25.909,-3.76 -15.179,-4.765C-5.574,-5.717 0.848,-6.657 4.023,-7.526C4.756,-9.846 5.125,-11.652 5.162,-12.874C5.221,-14.887 4.2,-16.476 1.985,-17.614C-0.18,-18.827 -3.059,-19.385 -6.691,-19.385C-10.473,-19.385 -13.531,-18.834 -15.917,-17.763C-18.309,-16.615 -20.44,-14.276 -22.295,-10.725L-52.969,-13.774Z" style="fill:rgb(227,6,19);fill-rule:nonzero;"/>
        </g>
        <g transform="matrix(-1,0,0,1,1272.02,178.868)">
            <rect x="0" y="0" width="1272.02" height="114.485" style="fill:rgb(22,77,151);"/>
        </g>
        <g transform="matrix(1,0,0,1,439.562,244.094)">
            <path d="M0,-31.105L0,-0.041L4.303,-0.041C7.976,-0.041 10.585,-0.447 12.136,-1.262C13.69,-2.075 14.906,-3.5 15.784,-5.525C16.665,-7.557 17.102,-10.848 17.102,-15.396C17.102,-21.423 16.119,-25.546 14.155,-27.77C12.188,-29.995 8.931,-31.105 4.38,-31.105L0,-31.105ZM-17.567,-43.982L8.531,-43.982C13.674,-43.982 17.834,-43.282 21.002,-41.888C24.166,-40.493 26.787,-38.485 28.853,-35.874C30.922,-33.264 32.421,-30.224 33.351,-26.759C34.282,-23.297 34.75,-19.625 34.75,-15.75C34.75,-9.672 34.056,-4.958 32.672,-1.61C31.289,1.738 29.368,4.544 26.911,6.806C24.458,9.071 21.824,10.576 19.001,11.323C15.151,12.359 11.661,12.877 8.531,12.877L-17.567,12.877L-17.567,-43.982Z" style="fill:rgb(255,237,0);fill-rule:nonzero;"/>
        </g>
        <g transform="matrix(1,0,0,1,484.242,256.038)">
            <path d="M0,-40.257L14.775,-40.257L14.775,-33.51C16.193,-36.429 17.664,-38.44 19.178,-39.541C20.688,-40.639 22.556,-41.188 24.78,-41.188C27.107,-41.188 29.653,-40.465 32.42,-39.017L27.531,-27.768C25.67,-28.543 24.2,-28.932 23.114,-28.932C21.045,-28.932 19.444,-28.078 18.303,-26.372C16.677,-23.968 15.858,-19.47 15.858,-12.874L15.858,0.931L0,0.931L0,-40.257Z" style="fill:rgb(255,237,0);fill-rule:nonzero;"/>
        </g>
        <g transform="matrix(1,0,0,1,536.092,236.295)">
            <path d="M0,0.159C0,3.829 0.741,6.543 2.228,8.302C3.713,10.06 5.583,10.941 7.833,10.941C10.107,10.941 11.978,10.073 13.436,8.343C14.896,6.608 15.628,3.829 15.628,0.004C15.628,-3.564 14.89,-6.22 13.417,-7.966C11.943,-9.712 10.122,-10.584 7.951,-10.584C5.649,-10.584 3.747,-9.7 2.246,-7.926C0.75,-6.157 0,-3.461 0,0.159M-15.827,0.196C-15.827,-6.086 -13.706,-11.264 -9.465,-15.337C-5.224,-19.409 0.502,-21.445 7.718,-21.445C15.964,-21.445 22.199,-19.053 26.412,-14.27C29.799,-10.417 31.493,-5.67 31.493,-0.033C31.493,6.298 29.39,11.491 25.189,15.539C20.989,19.582 15.176,21.604 7.755,21.604C1.135,21.604 -4.216,19.926 -8.302,16.566C-13.318,12.403 -15.827,6.943 -15.827,0.196" style="fill:rgb(255,237,0);fill-rule:nonzero;"/>
        </g>
        <g transform="matrix(1,0,0,1,590.581,252.78)">
            <path d="M0,-17.025C0,-14.05 0.633,-11.847 1.902,-10.412C3.167,-8.978 4.836,-8.261 6.902,-8.261C8.873,-8.261 10.517,-9.003 11.851,-10.492C13.182,-11.978 13.848,-14.217 13.848,-17.217C13.848,-20.22 13.15,-22.509 11.751,-24.101C10.355,-25.696 8.652,-26.487 6.633,-26.487C4.613,-26.487 3.006,-25.757 1.806,-24.296C0.602,-22.838 0,-20.413 0,-17.025M14.856,-37L29.632,-37L29.632,1.901L29.672,3.725C29.672,6.309 29.12,8.773 28.022,11.112C26.924,13.454 25.46,15.346 23.642,16.791C21.818,18.241 19.503,19.288 16.696,19.934C13.892,20.582 10.678,20.905 7.061,20.905C-1.213,20.905 -6.896,19.664 -9.986,17.182C-13.078,14.701 -14.624,11.378 -14.624,7.212C-14.624,6.701 -14.596,5.999 -14.546,5.119L0.776,6.868C1.164,8.286 1.759,9.269 2.56,9.812C3.726,10.616 5.184,11.015 6.946,11.015C9.217,11.015 10.917,10.408 12.043,9.191C13.169,7.975 13.73,5.857 13.73,2.832L13.73,-3.413C12.179,-1.576 10.628,-0.246 9.074,0.583C6.648,1.876 4.021,2.522 1.204,2.522C-4.303,2.522 -8.751,0.118 -12.138,-4.691C-14.546,-8.106 -15.743,-12.62 -15.743,-18.229C-15.743,-24.638 -14.195,-29.527 -11.093,-32.89C-7.988,-36.25 -3.93,-37.93 1.086,-37.93C4.293,-37.93 6.937,-37.388 9.018,-36.298C11.1,-35.213 13.045,-33.42 14.856,-30.911L14.856,-37Z" style="fill:rgb(255,237,0);fill-rule:nonzero;"/>
        </g>
        <g transform="matrix(1,0,0,1,674.74,216.714)">
            <path d="M0,40.254L-14.738,40.254L-14.738,33.584C-16.937,36.326 -19.153,38.275 -21.39,39.441C-23.626,40.605 -26.375,41.185 -29.629,41.185C-33.976,41.185 -37.382,39.888 -39.851,37.288C-42.32,34.689 -43.555,30.69 -43.555,25.285L-43.555,-0.931L-27.69,-0.931L-27.69,21.715C-27.69,24.302 -27.213,26.139 -26.254,27.225C-25.302,28.311 -23.955,28.854 -22.225,28.854C-20.335,28.854 -18.79,28.13 -17.59,26.682C-16.389,25.233 -15.784,22.633 -15.784,18.886L-15.784,-0.931L0,-0.931L0,40.254Z" style="fill:rgb(255,237,0);fill-rule:nonzero;"/>
        </g>
        <g transform="matrix(1,0,0,1,715.577,240.021)">
            <path d="M0,-7.29C-0.311,-10.343 -1.13,-12.526 -2.46,-13.849C-3.791,-15.164 -5.541,-15.821 -7.715,-15.821C-10.225,-15.821 -12.229,-14.825 -13.728,-12.837C-14.686,-11.596 -15.291,-9.747 -15.549,-7.29L0,-7.29ZM16.057,0.272L-15.589,0.272C-15.307,2.807 -14.621,4.693 -13.532,5.931C-12.006,7.718 -10.017,8.608 -7.561,8.608C-6.012,8.608 -4.536,8.221 -3.14,7.448C-2.283,6.955 -1.368,6.09 -0.385,4.849L15.17,6.285C12.79,10.42 9.917,13.389 6.558,15.182C3.195,16.984 -1.626,17.878 -7.911,17.878C-13.364,17.878 -17.657,17.108 -20.785,15.572C-23.915,14.034 -26.509,11.59 -28.562,8.242C-30.618,4.892 -31.648,0.958 -31.648,-3.567C-31.648,-10.008 -29.582,-15.217 -25.46,-19.199C-21.334,-23.18 -15.642,-25.168 -8.373,-25.168C-2.479,-25.168 2.174,-24.281 5.59,-22.494C8.999,-20.71 11.599,-18.126 13.383,-14.735C15.17,-11.352 16.057,-6.939 16.057,-1.511L16.057,0.272Z" style="fill:rgb(255,237,0);fill-rule:nonzero;"/>
        </g>
        <g transform="matrix(1,0,0,1,740.63,256.038)">
            <path d="M0,-40.257L14.778,-40.257L14.778,-33.51C16.199,-36.429 17.667,-38.44 19.178,-39.541C20.691,-40.639 22.56,-41.188 24.783,-41.188C27.113,-41.188 29.66,-40.465 32.424,-39.017L27.538,-27.768C25.677,-28.543 24.203,-28.932 23.117,-28.932C21.049,-28.932 19.444,-28.078 18.31,-26.372C16.678,-23.968 15.864,-19.47 15.864,-12.874L15.864,0.931L0,0.931L0,-40.257Z" style="fill:rgb(255,237,0);fill-rule:nonzero;"/>
        </g>
        <g transform="matrix(1,0,0,1,785.351,256.969)">
            <path d="M0,-57.826L13.572,-57.826L1.049,-46.229L-6.518,-46.229L0,-57.826ZM-7.448,-41.188L8.339,-41.188L8.339,0L-7.448,0L-7.448,-41.188Z" style="fill:rgb(255,237,0);fill-rule:nonzero;"/>
        </g>
        <g transform="matrix(1,0,0,1,833.438,235.331)">
            <path d="M0,2.09C-2.172,2.868 -4.437,3.551 -6.787,4.147C-9.992,4.999 -12.023,5.84 -12.877,6.668C-13.755,7.522 -14.192,8.489 -14.192,9.575C-14.192,10.817 -13.758,11.834 -12.896,12.621C-12.027,13.409 -10.755,13.807 -9.073,13.807C-7.318,13.807 -5.68,13.378 -4.169,12.526C-2.655,11.669 -1.585,10.63 -0.949,9.402C-0.316,8.173 0,6.578 0,4.614L0,2.09ZM-13.692,-6.205L-28.779,-7.8C-28.208,-10.437 -27.386,-12.509 -26.312,-14.023C-25.242,-15.537 -23.694,-16.848 -21.681,-17.96C-20.232,-18.764 -18.241,-19.381 -15.706,-19.821C-13.175,-20.262 -10.433,-20.478 -7.485,-20.478C-2.752,-20.478 1.049,-20.215 3.918,-19.687C6.787,-19.157 9.18,-18.05 11.094,-16.371C12.437,-15.208 13.497,-13.557 14.273,-11.424C15.049,-9.292 15.437,-7.254 15.437,-5.318L15.437,12.873C15.437,14.812 15.558,16.332 15.806,17.43C16.051,18.528 16.588,19.934 17.413,21.637L2.6,21.637C2.004,20.578 1.616,19.772 1.437,19.214C1.253,18.658 1.073,17.786 0.894,16.596C-1.176,18.587 -3.229,20.011 -5.273,20.864C-8.065,22.003 -11.311,22.568 -15.012,22.568C-19.922,22.568 -23.65,21.432 -26.198,19.154C-28.744,16.881 -30.02,14.076 -30.02,10.741C-30.02,7.611 -29.102,5.036 -27.268,3.021C-25.432,1.007 -22.041,-0.494 -17.103,-1.477C-11.184,-2.666 -7.343,-3.501 -5.584,-3.978C-3.825,-4.456 -1.967,-5.086 0,-5.861C0,-7.8 -0.4,-9.155 -1.203,-9.931C-2.004,-10.707 -3.415,-11.095 -5.432,-11.095C-8.016,-11.095 -9.955,-10.681 -11.248,-9.853C-12.257,-9.208 -13.069,-7.992 -13.692,-6.205" style="fill:rgb(255,237,0);fill-rule:nonzero;"/>
        </g>
    </g>
</svg>
