<?xml version="1.0" encoding="UTF-8" standalone="no"?>
<!DOCTYPE svg PUBLIC "-//W3C//DTD SVG 1.1//EN" "http://www.w3.org/Graphics/SVG/1.1/DTD/svg11.dtd">
<svg width="100%" height="100%" viewBox="0 0 500 500" version="1.1" xmlns="http://www.w3.org/2000/svg" xmlns:xlink="http://www.w3.org/1999/xlink" xml:space="preserve" xmlns:serif="http://www.serif.com/" style="fill-rule:evenodd;clip-rule:evenodd;stroke-linejoin:round;stroke-miterlimit:2;">
    <g id="background">
    </g>
    <g id="objects">
        <g transform="matrix(1,0,0,1,63.7354,60.5483)">
            <path d="M0,71.292L23.164,57.129L46.329,71.292L40.017,44.885L60.645,27.23L33.58,25.073L23.164,0L12.748,25.073L-14.316,27.23L6.311,44.885L0,71.292Z" style="fill:rgb(252,203,0);fill-rule:nonzero;"/>
        </g>
        <g transform="matrix(1,0,0,1,171.842,199.403)">
            <path d="M0,-7.332L12.917,-8.362L16.51,-8.648L17.893,-11.978L22.864,-23.944L27.835,-11.978L29.218,-8.648L32.812,-8.362L45.729,-7.332L35.884,1.094L33.146,3.438L33.983,6.943L36.996,19.547L25.94,12.787L22.864,10.907L19.789,12.787L8.733,19.547L11.746,6.943L12.583,3.438L9.845,1.094L0,-7.332ZM-0.3,31.98L22.864,17.817L46.029,31.98L39.718,5.573L60.345,-12.081L33.28,-14.239L22.864,-39.312L12.449,-14.239L-14.616,-12.081L6.011,5.573L-0.3,31.98Z" style="fill:rgb(252,203,0);fill-rule:nonzero;"/>
        </g>
        <g transform="matrix(1,0,0,1,187.568,187.279)">
            <path d="M0,21.971L7.139,17.606L14.278,21.971L12.333,13.833L18.689,8.392L10.349,7.727L7.139,0L3.929,7.727L-4.412,8.392L1.945,13.833L0,21.971Z" style="fill:rgb(252,203,0);fill-rule:nonzero;"/>
        </g>
        <g transform="matrix(1,0,0,1,431.934,401.205)">
            <path d="M0,6.807C-3.058,9.424 -4.376,13.482 -3.44,17.396L0.081,32.129L-12.844,24.228C-14.521,23.203 -16.445,22.661 -18.41,22.661C-20.376,22.661 -22.301,23.203 -23.978,24.228L-36.902,32.129L-33.381,17.396C-32.445,13.482 -33.764,9.424 -36.821,6.807L-48.33,-3.044L-33.229,-4.248C-29.218,-4.567 -25.766,-7.075 -24.222,-10.792L-18.41,-24.782L-12.6,-10.792C-11.055,-7.075 -7.604,-4.567 -3.591,-4.248L11.51,-3.044L0,6.807ZM14.662,-8.707L-3.123,-10.125C-4.91,-10.267 -6.467,-11.398 -7.154,-13.053L-13.999,-29.53C-14.814,-31.493 -16.612,-32.474 -18.41,-32.474C-20.209,-32.474 -22.007,-31.493 -22.822,-29.53L-29.667,-13.053C-30.354,-11.398 -31.911,-10.267 -33.698,-10.125L-51.483,-8.707C-55.721,-8.369 -57.439,-3.08 -54.21,-0.315L-40.655,11.286C-39.293,12.452 -38.698,14.282 -39.115,16.026L-43.262,33.378C-44.03,36.591 -41.485,39.281 -38.61,39.281C-37.785,39.281 -36.933,39.059 -36.124,38.565L-20.902,29.258C-20.138,28.79 -19.274,28.556 -18.41,28.556C-17.547,28.556 -16.684,28.79 -15.919,29.258L-0.697,38.565C0.112,39.059 0.964,39.281 1.79,39.281C4.664,39.281 7.209,36.59 6.441,33.378L2.294,16.026C1.877,14.282 2.472,12.452 3.834,11.286L17.389,-0.315C20.618,-3.08 18.9,-8.369 14.662,-8.707" style="fill:rgb(252,203,0);fill-rule:nonzero;"/>
        </g>
        <g transform="matrix(1,0,0,1,423.456,409.929)">
            <path d="M0,-7.274L-5.342,-7.7C-5.878,-7.743 -6.346,-8.083 -6.553,-8.58L-8.608,-13.528C-8.853,-14.118 -9.393,-14.413 -9.933,-14.413C-10.473,-14.413 -11.013,-14.118 -11.258,-13.528L-13.313,-8.58C-13.521,-8.083 -13.988,-7.743 -14.524,-7.7L-19.866,-7.274C-21.139,-7.172 -21.655,-5.584 -20.686,-4.753L-16.614,-1.269C-16.205,-0.92 -16.026,-0.37 -16.151,0.155L-17.397,5.366C-17.628,6.33 -16.863,7.139 -16,7.139C-15.752,7.139 -15.496,7.073 -15.253,6.923L-10.682,4.128C-10.452,3.988 -10.192,3.918 -9.933,3.918C-9.674,3.918 -9.414,3.988 -9.185,4.128L-4.613,6.923C-4.37,7.073 -4.114,7.139 -3.866,7.139C-3.003,7.139 -2.238,6.33 -2.469,5.366L-3.715,0.155C-3.84,-0.37 -3.661,-0.92 -3.252,-1.269L0.819,-4.753C1.789,-5.584 1.273,-7.172 0,-7.274" style="fill:rgb(252,203,0);fill-rule:nonzero;"/>
        </g>
        <g transform="matrix(1,0,0,1,213.118,297.416)">
            <path d="M0,6.805C-3.058,9.422 -4.376,13.48 -3.441,17.395L0.081,32.128L-12.844,24.227C-14.521,23.201 -16.445,22.659 -18.411,22.659C-20.376,22.659 -22.301,23.201 -23.978,24.226L-36.902,32.128L-33.381,17.395C-32.445,13.48 -33.764,9.422 -36.822,6.805L-48.331,-3.045L-33.23,-4.249C-29.218,-4.569 -25.766,-7.077 -24.222,-10.794L-18.411,-24.783L-12.6,-10.794C-11.056,-7.077 -7.604,-4.569 -3.592,-4.249L11.509,-3.045L0,6.805ZM3.833,11.284L17.388,-0.316C20.618,-3.081 18.899,-8.37 14.662,-8.708L-3.123,-10.126C-4.91,-10.268 -6.467,-11.399 -7.155,-13.055L-14,-29.531C-14.815,-31.494 -16.613,-32.475 -18.411,-32.475C-20.209,-32.475 -22.007,-31.494 -22.822,-29.531L-29.667,-13.055C-30.354,-11.399 -31.912,-10.268 -33.699,-10.126L-51.484,-8.708C-55.722,-8.37 -57.44,-3.081 -54.21,-0.316L-40.655,11.284C-39.293,12.451 -38.699,14.281 -39.115,16.024L-43.263,33.377C-44.03,36.589 -41.486,39.28 -38.611,39.28C-37.786,39.28 -36.934,39.058 -36.125,38.563L-20.903,29.256C-20.138,28.788 -19.274,28.555 -18.411,28.555C-17.547,28.555 -16.684,28.788 -15.919,29.256L-0.697,38.563C0.112,39.058 0.964,39.28 1.789,39.28C4.664,39.28 7.208,36.589 6.441,33.377L2.293,16.024C1.877,14.281 2.472,12.451 3.833,11.284" style="fill:rgb(252,203,0);fill-rule:nonzero;"/>
        </g>
        <g transform="matrix(1,0,0,1,209.421,307.375)">
            <path d="M0,-9.796L-2.867,-10.025C-6.999,-10.355 -10.598,-12.97 -12.188,-16.798L-13.292,-19.453C-13.818,-20.72 -15.611,-20.72 -16.138,-19.453L-17.241,-16.798C-18.831,-12.97 -22.431,-10.355 -26.562,-10.025L-29.429,-9.796C-30.796,-9.688 -31.351,-7.982 -30.309,-7.09L-28.124,-5.22C-24.975,-2.525 -23.6,1.707 -24.563,5.738L-25.231,8.535C-25.55,9.869 -24.099,10.924 -22.929,10.208L-20.476,8.708C-16.939,6.546 -12.49,6.546 -8.954,8.708L-6.5,10.208C-5.33,10.924 -3.879,9.869 -4.198,8.535L-4.866,5.738C-5.83,1.707 -4.455,-2.525 -1.305,-5.22L0.879,-7.09C1.921,-7.982 1.367,-9.688 0,-9.796" style="fill:rgb(252,203,0);fill-rule:nonzero;"/>
        </g>
        <g transform="matrix(1,0,0,1,311.02,113.577)">
            <path d="M0,-34.766L-8.086,-54.23L-16.171,-34.766C-17.817,-30.804 -21.542,-28.098 -25.818,-27.757L-46.829,-26.081L-30.815,-12.377C-27.557,-9.587 -26.134,-5.208 -27.131,-1.036L-32.03,19.464L-14.048,8.469C-10.388,6.232 -5.783,6.232 -2.123,8.469L15.859,19.464L10.96,-1.036C9.963,-5.208 11.386,-9.587 14.645,-12.377L30.657,-26.081L9.647,-27.757C5.371,-28.098 1.646,-30.804 0,-34.766" style="fill:rgb(252,203,0);fill-rule:nonzero;"/>
        </g>
        <g transform="matrix(0.99683,0.0795562,0.0795562,-0.99683,211.532,390.946)">
            <path d="M0.753,0.077L14.63,0.077C9.036,11.391 -2.645,18.971 -15.82,18.907L-9.334,6.243C-7.395,2.458 -3.5,0.077 0.753,0.077" style="fill:rgb(252,203,0);fill-rule:nonzero;"/>
        </g>
        <g transform="matrix(1,0,0,1,172.17,421.306)">
            <path d="M0,-15.128L-10.476,-24.093C-10.999,-21.729 -11.284,-19.274 -11.284,-16.751C-11.284,-6.454 -6.676,2.762 0.583,8.965L3.653,-3.884C4.642,-8.021 3.231,-12.362 0,-15.128" style="fill:rgb(252,203,0);fill-rule:nonzero;"/>
        </g>
        <g transform="matrix(1,0,0,1,188.795,436.156)">
            <path d="M0,-9.309L-11.225,-2.447C-6.198,0.514 -0.344,2.219 5.911,2.219C12.167,2.219 18.021,0.514 23.047,-2.447L11.823,-9.309C8.194,-11.528 3.628,-11.528 0,-9.309" style="fill:rgb(252,203,0);fill-rule:nonzero;"/>
        </g>
        <g transform="matrix(0.383622,-0.92349,-0.92349,-0.383622,183.509,374.128)">
            <path d="M-7.877,-6.716L6.35,-6.716C0.401,5.04 -11.67,11.981 -24.29,11.802L-17.964,-0.549C-16.025,-4.335 -12.131,-6.716 -7.877,-6.716" style="fill:rgb(252,203,0);fill-rule:nonzero;"/>
        </g>
        <g transform="matrix(1,0,0,1,213.59,410.062)">
            <path d="M0,7.36L3.071,20.209C10.33,14.006 14.937,4.79 14.937,-5.507C14.937,-8.03 14.652,-10.485 14.129,-12.849L3.653,-3.884C0.422,-1.119 -0.989,3.223 0,7.36" style="fill:rgb(252,203,0);fill-rule:nonzero;"/>
        </g>
        <g transform="matrix(1,0,0,1,185.527,97.7948)">
            <path d="M0,-3.202L5.133,-3.612L7.109,-8.367L9.179,-13.351L11.25,-8.367L13.226,-3.612L18.359,-3.202L23.739,-2.773L19.638,0.736L15.726,4.085L16.923,9.093L18.178,14.342L13.573,11.527L9.179,8.841L4.786,11.527L0.181,14.342L1.436,9.093L2.633,4.085L-1.279,0.736L-5.38,-2.773L0,-3.202ZM-12.724,32.104L9.179,18.713L31.083,32.104L25.115,7.135L44.619,-9.557L19.028,-11.598L9.179,-35.306L-0.669,-11.598L-26.26,-9.557L-6.756,7.135L-12.724,32.104Z" style="fill:rgb(252,203,0);fill-rule:nonzero;"/>
        </g>
        <g transform="matrix(1,0,0,1,440.489,315.314)">
            <path d="M0,-28.15L-14.305,-29.291L-19.81,-42.543C-22.455,-48.911 -31.478,-48.911 -34.123,-42.543L-39.628,-29.291L-53.933,-28.15C-60.807,-27.602 -63.595,-19.021 -58.355,-14.537L-47.453,-5.207L-50.789,8.75C-52.393,15.458 -45.093,20.761 -39.209,17.163L-26.966,9.678L-14.724,17.163C-8.84,20.761 -1.54,15.458 -3.144,8.75L-6.479,-5.207L4.423,-14.537C9.663,-19.021 6.875,-27.602 0,-28.15" style="fill:rgb(252,203,0);fill-rule:nonzero;"/>
        </g>
        <g transform="matrix(1,0,0,1,331.723,200.257)">
            <path d="M0,-9.041L-11.33,0.656L-14.068,3L-13.23,6.505L-9.764,21.01C-9.599,21.702 -9.717,22.291 -10.126,22.809C-10.558,23.355 -11.227,23.695 -11.872,23.695C-12.247,23.695 -12.612,23.583 -12.989,23.353L-25.712,15.574L-28.788,13.694L-31.863,15.574L-44.586,23.353C-44.963,23.583 -45.328,23.695 -45.703,23.695C-46.35,23.695 -47.019,23.355 -47.449,22.809C-47.858,22.291 -47.977,21.702 -47.812,21.01L-44.345,6.505L-43.507,3L-46.246,0.656L-57.575,-9.041C-58.528,-9.856 -58.392,-10.836 -58.225,-11.348C-58.059,-11.86 -57.593,-12.733 -56.344,-12.833L-41.478,-14.018L-37.885,-14.304L-36.502,-17.633L-30.781,-31.405C-30.3,-32.562 -29.326,-32.735 -28.788,-32.735C-28.25,-32.735 -27.275,-32.562 -26.795,-31.405L-21.073,-17.633L-19.69,-14.304L-16.098,-14.018L-1.231,-12.833C0.018,-12.733 0.483,-11.86 0.649,-11.348C0.815,-10.836 0.952,-9.856 0,-9.041M-0.763,-18.709L-15.629,-19.895L-21.35,-33.667C-22.725,-36.977 -25.756,-38.631 -28.788,-38.631C-31.819,-38.631 -34.851,-36.977 -36.226,-33.667L-41.946,-19.895L-56.813,-18.709C-63.957,-18.14 -66.854,-9.223 -61.409,-4.562L-50.079,5.135L-53.546,19.639C-54.84,25.056 -50.55,29.59 -45.703,29.59C-44.313,29.59 -42.875,29.217 -41.511,28.383L-28.788,20.604L-16.064,28.383C-14.7,29.217 -13.264,29.59 -11.872,29.59C-7.026,29.59 -2.735,25.055 -4.029,19.639L-7.496,5.135L3.834,-4.562C9.279,-9.223 6.382,-18.14 -0.763,-18.709" style="fill:rgb(252,203,0);fill-rule:nonzero;"/>
        </g>
        <g transform="matrix(1,0,0,1,-12.0712,2.527)">
            <g>
                <g transform="matrix(1,0,0,1,110.789,202.702)">
                    <path d="M0,-13.93L-25.846,-9.132L-24.074,-2.814L-38.654,14.154L-24.074,-2.814L-47.779,-13.93L-24.074,-2.814L-23.89,-31.287L-24.074,-2.814L0,-13.93ZM-58,-6.965C-58,11.874 -42.729,27.146 -23.89,27.146C-5.051,27.146 10.221,11.874 10.221,-6.965C10.221,-25.804 -5.051,-41.076 -23.89,-41.076C-42.729,-41.076 -58,-25.804 -58,-6.965" style="fill:rgb(252,203,0);fill-rule:nonzero;"/>
                </g>
                <g transform="matrix(0.609737,0,0,0.609737,65.0713,196.72)">
                    <path d="M0,-7.956L13.555,3.645C14.917,4.811 15.512,6.641 15.095,8.385L10.947,25.737C9.96,29.872 14.459,33.141 18.086,30.923L33.308,21.617C34.837,20.682 36.762,20.682 38.291,21.617L53.513,30.923C57.14,33.141 61.64,29.872 60.651,25.737L56.504,8.385C56.087,6.641 56.682,4.811 58.044,3.645L71.599,-7.956C74.828,-10.72 73.11,-16.009 68.872,-16.347L51.087,-17.765C49.3,-17.908 47.743,-19.039 47.056,-20.694L40.211,-37.171C38.58,-41.097 33.019,-41.097 31.388,-37.171L24.543,-20.694C23.855,-19.039 22.299,-17.908 20.512,-17.765L2.727,-16.347C-1.511,-16.009 -3.229,-10.72 0,-7.956" style="fill:white;fill-rule:nonzero;"/>
                </g>
            </g>
        </g>
        <g transform="matrix(1,0,0,1,324.081,401.345)">
            <path d="M0,6.526C-2.579,8.733 -3.705,12.198 -2.916,15.499L-2.916,15.5C-1.045,23.327 -9.563,29.515 -16.429,25.317C-19.324,23.547 -22.968,23.547 -25.863,25.317C-32.729,29.515 -41.247,23.327 -39.376,15.5L-39.376,15.499C-38.587,12.198 -39.713,8.733 -42.292,6.526C-48.406,1.294 -45.152,-8.719 -37.13,-9.359C-33.747,-9.629 -30.8,-11.77 -29.497,-14.905C-26.41,-22.336 -15.882,-22.336 -12.795,-14.905C-11.492,-11.77 -8.545,-9.629 -5.162,-9.359C2.86,-8.719 6.114,1.294 0,6.526M-21.146,-30.848C-39.985,-30.848 -55.257,-15.577 -55.257,3.262C-55.257,22.101 -39.985,37.374 -21.146,37.374C-2.308,37.374 12.965,22.101 12.965,3.262C12.965,-15.577 -2.308,-30.848 -21.146,-30.848" style="fill:rgb(252,203,0);fill-rule:nonzero;"/>
        </g>
        <g transform="matrix(-0.949422,0.314002,0.314002,0.949422,76.1709,324.878)">
            <path d="M9.971,-39.377C11.938,-36.637 13.53,-33.557 14.645,-30.187C18.204,-19.424 16.102,-8.156 9.971,0.406L-2.189,-19.252L9.971,-39.377Z" style="fill:rgb(252,203,0);fill-rule:nonzero;"/>
        </g>
        <g transform="matrix(0.949422,0.314002,0.314002,-0.949422,101.257,326.078)">
            <path d="M6.149,-0.406C12.28,8.155 14.381,19.423 10.822,30.186C9.707,33.557 8.116,36.637 6.149,39.377L-6.011,19.251L6.149,-0.406Z" style="fill:rgb(252,203,0);fill-rule:nonzero;"/>
        </g>
        <g transform="matrix(1,0,0,1,86.8994,290.439)">
            <path d="M0,-23.665L9.083,-1.802L32.521,0.067C28.149,-13.731 15.245,-23.732 0,-23.732C-15.245,-23.732 -28.149,-13.731 -32.521,0.067L-9.082,-1.802L0,-23.665Z" style="fill:rgb(252,203,0);fill-rule:nonzero;"/>
        </g>
        <g transform="matrix(-0.85316,0.52165,0.52165,0.85316,91.6827,333.582)">
            <path d="M-4.783,-16.993L18.326,-16.993C15.637,-10.716 11.052,-5.18 4.783,-1.346C-1.486,2.487 -8.504,4.044 -15.316,3.577L-4.783,-16.993Z" style="fill:rgb(252,203,0);fill-rule:nonzero;"/>
        </g>
        <g transform="matrix(1,0,0,1,431.576,196.695)">
            <path d="M0,-1.916L-6.27,3.451L-4.352,11.478C-3.43,15.335 -7.628,18.386 -11.012,16.316L-18.053,12.012L-25.095,16.316C-28.479,18.386 -32.677,15.335 -31.755,11.478L-29.836,3.451L-36.106,-1.916C-39.12,-4.495 -37.517,-9.43 -33.563,-9.746L-25.336,-10.401L-22.169,-18.023C-20.647,-21.686 -15.459,-21.686 -13.937,-18.023L-10.771,-10.401L-2.544,-9.746C1.41,-9.43 3.014,-4.495 0,-1.916M-18.053,-35.069C-36.892,-35.069 -52.164,-19.797 -52.164,-0.958C-52.164,17.881 -36.892,33.153 -18.053,33.153C0.786,33.153 16.058,17.881 16.058,-0.958C16.058,-19.797 0.786,-35.069 -18.053,-35.069" style="fill:rgb(252,203,0);fill-rule:nonzero;"/>
        </g>
        <g transform="matrix(1,0,0,1,302.935,272.603)">
            <path d="M0,56.429C-15.558,56.429 -28.215,43.772 -28.215,28.214C-28.215,12.657 -15.558,-0.001 0,-0.001C15.559,-0.001 28.216,12.657 28.216,28.214C28.216,43.772 15.559,56.429 0,56.429M0,-5.896C-18.839,-5.896 -34.11,9.375 -34.11,28.214C-34.11,47.053 -18.839,62.325 0,62.325C18.839,62.325 34.111,47.053 34.111,28.214C34.111,9.375 18.839,-5.896 0,-5.896" style="fill:rgb(252,203,0);fill-rule:nonzero;"/>
        </g>
        <g transform="matrix(1,0,0,1,318.444,308.314)">
            <path d="M0,-16.192L-8.227,-16.847L-11.394,-24.469C-12.915,-28.132 -18.104,-28.132 -19.626,-24.469L-22.792,-16.847L-31.019,-16.192C-34.973,-15.877 -36.576,-10.941 -33.563,-8.362L-27.293,-2.996L-29.211,5.032C-30.133,8.889 -25.935,11.94 -22.551,9.87L-15.51,5.566L-8.468,9.87C-5.084,11.94 -0.886,8.889 -1.808,5.032L-3.727,-2.996L2.544,-8.362C5.558,-10.941 3.954,-15.877 0,-16.192" style="fill:rgb(252,203,0);fill-rule:nonzero;"/>
        </g>
        <g transform="matrix(1,0,0,1,86.0078,368.564)">
            <path d="M0,36.817L0,0L-9.73,23.423L0,36.817Z" style="fill:rgb(252,203,0);fill-rule:nonzero;"/>
        </g>
        <g transform="matrix(1,0,0,1,87.7905,368.563)">
            <path d="M0,36.818L9.731,23.424L0,0L0,36.818Z" style="fill:rgb(252,203,0);fill-rule:nonzero;"/>
        </g>
        <g transform="matrix(1,0,0,1,74.8354,406.429)">
            <path d="M0,-13.394L-25.287,-11.378L9.731,0L0,-13.394Z" style="fill:rgb(252,203,0);fill-rule:nonzero;"/>
        </g>
        <g transform="matrix(1,0,0,1,98.9639,406.429)">
            <path d="M0,-13.394L-9.732,0L25.286,-11.378L0,-13.394Z" style="fill:rgb(252,203,0);fill-rule:nonzero;"/>
        </g>
        <g transform="matrix(1,0,0,1,105.528,396.747)">
            <path d="M0,16.493L19.271,0L-15.745,11.377L0,16.493Z" style="fill:rgb(252,203,0);fill-rule:nonzero;"/>
        </g>
        <g transform="matrix(1,0,0,1,89.2329,439.604)">
            <path d="M0,-29.785L21.641,0L15.745,-24.67L0,-29.785Z" style="fill:rgb(252,203,0);fill-rule:nonzero;"/>
        </g>
        <g transform="matrix(1,0,0,1,84.0161,401.863)">
            <path d="M0,6.261L-35.016,-5.116L-15.745,11.377L0,6.261Z" style="fill:rgb(252,203,0);fill-rule:nonzero;"/>
        </g>
        <g transform="matrix(1,0,0,1,87.7905,424.097)">
            <path d="M0,3.325L21.642,16.556L0,-13.231L0,3.325Z" style="fill:rgb(252,203,0);fill-rule:nonzero;"/>
        </g>
        <g transform="matrix(1,0,0,1,68.8213,434.49)">
            <path d="M0,-19.555L-5.896,5.115L15.745,-24.67L0,-19.555Z" style="fill:rgb(252,203,0);fill-rule:nonzero;"/>
        </g>
        <g transform="matrix(1,0,0,1,86.0078,424.098)">
            <path d="M0,3.324L0,-13.231L-21.641,16.555L0,3.324Z" style="fill:rgb(252,203,0);fill-rule:nonzero;"/>
        </g>
    </g>
    <g id="designed-by-freepik" serif:id="designed by freepik">
        <g transform="matrix(1,0,0,1,174.099,475.98)">
            <path d="M0,5.08C-0.15,5.41 -0.35,5.66 -0.61,5.82C-0.86,5.98 -1.15,6.06 -1.45,6.06C-1.76,6.06 -2.04,5.97 -2.3,5.8C-2.56,5.63 -2.76,5.38 -2.91,5.05C-3.05,4.71 -3.13,4.31 -3.13,3.83C-3.13,3.38 -3.06,2.98 -2.92,2.64C-2.78,2.3 -2.58,2.04 -2.33,1.86C-2.08,1.68 -1.79,1.58 -1.47,1.58C-1.16,1.58 -0.87,1.67 -0.61,1.85C-0.35,2.03 -0.15,2.29 0,2.62C0.16,2.96 0.23,3.36 0.23,3.83C0.23,4.33 0.16,4.74 0,5.08M1.77,-2.09C1.63,-2.26 1.43,-2.34 1.16,-2.34C0.89,-2.34 0.69,-2.25 0.54,-2.07C0.4,-1.88 0.33,-1.61 0.33,-1.25L0.33,1.35C0,0.99 -0.34,0.72 -0.69,0.54C-1.04,0.37 -1.46,0.28 -1.97,0.28C-2.84,0.28 -3.55,0.59 -4.09,1.2C-4.62,1.82 -4.89,2.67 -4.89,3.77C-4.89,4.29 -4.82,4.77 -4.69,5.22C-4.55,5.67 -4.36,6.06 -4.09,6.39C-3.83,6.72 -3.52,6.97 -3.16,7.15C-2.81,7.33 -2.42,7.42 -2,7.42C-1.68,7.42 -1.38,7.37 -1.12,7.28C-0.85,7.2 -0.6,7.07 -0.37,6.9C-0.14,6.73 0.09,6.51 0.33,6.24L0.33,6.41C0.33,6.73 0.41,6.98 0.56,7.16C0.72,7.33 0.92,7.42 1.16,7.42C1.4,7.42 1.6,7.33 1.76,7.17C1.91,7 1.99,6.75 1.99,6.41L1.99,-1.34C1.99,-1.67 1.92,-1.92 1.77,-2.09" style="fill:rgb(22,22,22);fill-rule:nonzero;"/>
        </g>
        <g transform="matrix(1,0,0,1,179.249,481.729)">
            <path d="M0,-3.82C0.28,-4.12 0.64,-4.269 1.08,-4.269C1.54,-4.269 1.91,-4.12 2.19,-3.82C2.47,-3.519 2.63,-3.07 2.68,-2.469L-0.51,-2.469C-0.45,-3.059 -0.28,-3.509 0,-3.82M3.67,-0.75C3.5,-0.75 3.37,-0.71 3.28,-0.63C3.06,-0.429 2.88,-0.259 2.75,-0.139C2.61,-0.019 2.46,0.09 2.3,0.201C2.13,0.3 1.97,0.38 1.79,0.43C1.62,0.481 1.43,0.5 1.22,0.5C0.9,0.5 0.62,0.42 0.36,0.271C0.1,0.12 -0.11,-0.11 -0.27,-0.42C-0.43,-0.719 -0.51,-1.08 -0.51,-1.469L2.93,-1.469C3.39,-1.469 3.74,-1.54 4,-1.67C4.25,-1.799 4.38,-2.09 4.38,-2.53C4.38,-3.009 4.25,-3.469 4.01,-3.929C3.77,-4.389 3.4,-4.769 2.9,-5.059C2.41,-5.349 1.82,-5.49 1.14,-5.49C0.61,-5.49 0.13,-5.41 -0.3,-5.24C-0.74,-5.07 -1.1,-4.82 -1.4,-4.509C-1.69,-4.189 -1.92,-3.809 -2.07,-3.36C-2.23,-2.92 -2.31,-2.439 -2.31,-1.92C-2.31,-0.82 -1.99,0.061 -1.37,0.701C-0.74,1.34 0.14,1.67 1.27,1.67C1.76,1.67 2.2,1.6 2.58,1.47C2.96,1.34 3.27,1.18 3.52,0.991C3.77,0.79 3.96,0.59 4.09,0.38C4.21,0.16 4.27,-0.019 4.27,-0.179C4.27,-0.36 4.22,-0.5 4.11,-0.599C3.99,-0.7 3.85,-0.75 3.67,-0.75" style="fill:rgb(22,22,22);fill-rule:nonzero;"/>
        </g>
        <g transform="matrix(1,0,0,1,189.919,479.41)">
            <path d="M0,0.829C-0.18,0.579 -0.44,0.359 -0.79,0.18C-1.13,-0.011 -1.58,-0.171 -2.12,-0.301C-2.58,-0.41 -2.94,-0.511 -3.2,-0.581C-3.47,-0.66 -3.67,-0.761 -3.83,-0.881C-3.98,-0.99 -4.06,-1.15 -4.06,-1.331C-4.06,-1.53 -3.96,-1.7 -3.75,-1.841C-3.53,-1.971 -3.27,-2.041 -2.95,-2.041C-2.64,-2.041 -2.4,-1.99 -2.22,-1.881C-2.04,-1.78 -1.88,-1.641 -1.75,-1.471C-1.59,-1.271 -1.44,-1.11 -1.32,-1.011C-1.19,-0.91 -1.04,-0.851 -0.86,-0.851C-0.61,-0.851 -0.41,-0.921 -0.28,-1.051C-0.14,-1.181 -0.08,-1.341 -0.08,-1.541C-0.08,-1.731 -0.14,-1.921 -0.27,-2.11C-0.39,-2.301 -0.58,-2.481 -0.82,-2.641C-1.06,-2.801 -1.36,-2.921 -1.73,-3.021C-2.09,-3.11 -2.5,-3.16 -2.95,-3.16C-3.53,-3.16 -4.03,-3.07 -4.44,-2.881C-4.85,-2.691 -5.16,-2.441 -5.37,-2.131C-5.58,-1.82 -5.68,-1.481 -5.68,-1.131C-5.68,-0.74 -5.57,-0.4 -5.34,-0.131C-5.11,0.14 -4.81,0.359 -4.43,0.519C-4.05,0.68 -3.56,0.84 -2.95,0.989C-2.42,1.119 -2.03,1.26 -1.8,1.399C-1.56,1.539 -1.45,1.769 -1.45,2.069C-1.45,2.279 -1.56,2.449 -1.78,2.609C-2.01,2.769 -2.3,2.85 -2.65,2.85C-3.08,2.85 -3.43,2.769 -3.68,2.619C-3.93,2.459 -4.14,2.229 -4.33,1.909C-4.41,1.749 -4.51,1.619 -4.61,1.529C-4.71,1.439 -4.85,1.399 -5.03,1.399C-5.24,1.399 -5.42,1.47 -5.55,1.6C-5.69,1.739 -5.76,1.909 -5.76,2.1C-5.76,2.39 -5.65,2.68 -5.44,2.97C-5.22,3.26 -4.89,3.499 -4.44,3.699C-3.99,3.89 -3.45,3.989 -2.82,3.989C-2.16,3.989 -1.6,3.899 -1.14,3.72C-0.67,3.539 -0.32,3.279 -0.09,2.93C0.15,2.59 0.26,2.169 0.26,1.689C0.26,1.369 0.18,1.079 0,0.829" style="fill:rgb(22,22,22);fill-rule:nonzero;"/>
        </g>
        <g transform="matrix(1,0,0,1,192.579,483.18)">
            <path d="M0,-9.25C-0.17,-9.39 -0.37,-9.47 -0.6,-9.47C-0.84,-9.47 -1.04,-9.39 -1.22,-9.22C-1.4,-9.061 -1.49,-8.86 -1.49,-8.61C-1.49,-8.33 -1.4,-8.12 -1.23,-7.97C-1.05,-7.82 -0.84,-7.75 -0.6,-7.75C-0.36,-7.75 -0.16,-7.82 0.01,-7.97C0.18,-8.13 0.27,-8.34 0.27,-8.61C0.27,-8.89 0.18,-9.101 0,-9.25M0.02,-6.66C-0.15,-6.84 -0.36,-6.93 -0.62,-6.93C-0.88,-6.93 -1.09,-6.84 -1.25,-6.66C-1.41,-6.49 -1.49,-6.23 -1.49,-5.88L-1.49,-0.851C-1.49,-0.51 -1.41,-0.25 -1.25,-0.061C-1.09,0.12 -0.88,0.22 -0.62,0.22C-0.36,0.22 -0.15,0.13 0.02,-0.05C0.19,-0.23 0.27,-0.5 0.27,-0.851L0.27,-5.93C0.27,-6.24 0.19,-6.49 0.02,-6.66" style="fill:rgb(22,22,22);fill-rule:nonzero;"/>
        </g>
        <g transform="matrix(1,0,0,1,198.589,481.261)">
            <path d="M0,-0.272C-0.16,0.039 -0.37,0.279 -0.63,0.428C-0.89,0.588 -1.17,0.668 -1.46,0.668C-1.95,0.668 -2.36,0.489 -2.67,0.119C-2.98,-0.242 -3.13,-0.782 -3.13,-1.492C-3.13,-2.202 -2.98,-2.742 -2.68,-3.122C-2.38,-3.501 -1.98,-3.702 -1.47,-3.702C-0.96,-3.702 -0.54,-3.501 -0.23,-3.102C0.09,-2.702 0.25,-2.142 0.25,-1.421C0.25,-0.971 0.16,-0.591 0,-0.272M1.79,-4.682C1.68,-4.902 1.45,-5.011 1.11,-5.011C0.88,-5.011 0.68,-4.921 0.53,-4.761C0.38,-4.591 0.31,-4.352 0.31,-4.051L0.31,-3.812C0,-4.221 -0.34,-4.522 -0.71,-4.711C-1.07,-4.902 -1.5,-5.001 -2,-5.001C-2.42,-5.001 -2.8,-4.921 -3.15,-4.772C-3.5,-4.631 -3.8,-4.412 -4.07,-4.112C-4.33,-3.822 -4.54,-3.461 -4.68,-3.042C-4.83,-2.612 -4.9,-2.142 -4.9,-1.612C-4.9,-0.902 -4.78,-0.282 -4.54,0.258C-4.31,0.798 -3.97,1.218 -3.53,1.518C-3.09,1.829 -2.58,1.978 -1.99,1.978C-1.5,1.978 -1.08,1.878 -0.72,1.678C-0.37,1.478 -0.06,1.188 0.21,0.818C0.2,1.388 0.19,1.808 0.17,2.068C0.16,2.329 0.1,2.568 0,2.798C-0.1,3.029 -0.28,3.199 -0.53,3.329C-0.78,3.458 -1.13,3.518 -1.59,3.518C-1.81,3.518 -2.01,3.499 -2.18,3.458C-2.35,3.418 -2.5,3.358 -2.62,3.268C-2.74,3.188 -2.86,3.088 -2.96,2.968C-3.06,2.848 -3.16,2.728 -3.25,2.619C-3.44,2.388 -3.67,2.279 -3.93,2.279C-4.13,2.279 -4.31,2.348 -4.45,2.478C-4.6,2.619 -4.67,2.789 -4.67,3.008C-4.67,3.289 -4.54,3.558 -4.29,3.829C-4.03,4.098 -3.66,4.318 -3.19,4.489C-2.71,4.659 -2.17,4.739 -1.56,4.739C-0.9,4.739 -0.35,4.678 0.09,4.539C0.54,4.409 0.9,4.208 1.17,3.928C1.45,3.659 1.65,3.308 1.77,2.888C1.89,2.468 1.96,1.968 1.96,1.378L1.96,-3.721C1.96,-4.142 1.9,-4.461 1.79,-4.682" style="fill:rgb(22,22,22);fill-rule:nonzero;"/>
        </g>
        <g transform="matrix(1,0,0,1,207.899,481.55)">
            <path d="M0,-3.45C-0.03,-3.69 -0.11,-3.93 -0.22,-4.14C-0.4,-4.51 -0.67,-4.79 -1.04,-5C-1.4,-5.2 -1.82,-5.3 -2.28,-5.3C-2.76,-5.3 -3.18,-5.2 -3.55,-5.01C-3.65,-4.96 -3.74,-4.9 -3.84,-4.83C-4.09,-4.65 -4.33,-4.41 -4.56,-4.11L-4.56,-4.33C-4.56,-4.54 -4.6,-4.721 -4.67,-4.86C-4.75,-5.01 -4.85,-5.12 -4.97,-5.19C-5.1,-5.26 -5.24,-5.3 -5.39,-5.3C-5.64,-5.3 -5.84,-5.221 -5.99,-5.05C-6.14,-4.89 -6.21,-4.64 -6.21,-4.3L-6.21,0.779C-6.21,1.12 -6.13,1.38 -5.96,1.57C-5.8,1.75 -5.59,1.85 -5.34,1.85C-5.08,1.85 -4.86,1.76 -4.7,1.58C-4.53,1.4 -4.45,1.13 -4.45,0.779L-4.45,-1.42C-4.45,-2.14 -4.41,-2.63 -4.32,-2.89C-4.2,-3.221 -4.01,-3.471 -3.76,-3.66C-3.5,-3.85 -3.21,-3.94 -2.9,-3.94C-2.42,-3.94 -2.1,-3.79 -1.94,-3.48C-1.78,-3.17 -1.7,-2.73 -1.7,-2.15L-1.7,0.779C-1.7,1.12 -1.61,1.38 -1.45,1.57C-1.29,1.75 -1.08,1.85 -0.81,1.85C-0.56,1.85 -0.35,1.76 -0.19,1.58C-0.02,1.4 0.06,1.13 0.06,0.779L0.06,-2.49C0.06,-2.88 0.04,-3.2 0,-3.45" style="fill:rgb(22,22,22);fill-rule:nonzero;"/>
        </g>
        <g transform="matrix(1,0,0,1,211.109,481.729)">
            <path d="M0,-3.82C0.28,-4.12 0.64,-4.269 1.07,-4.269C1.53,-4.269 1.9,-4.12 2.18,-3.82C2.47,-3.519 2.63,-3.07 2.67,-2.469L-0.52,-2.469C-0.46,-3.059 -0.29,-3.509 0,-3.82M3.66,-0.75C3.49,-0.75 3.37,-0.71 3.28,-0.63C3.06,-0.429 2.88,-0.259 2.74,-0.139C2.6,-0.019 2.45,0.09 2.29,0.201C2.13,0.3 1.96,0.38 1.79,0.43C1.62,0.481 1.44,0.5 1.24,0.5L1.21,0.5C0.9,0.5 0.61,0.42 0.35,0.271C0.09,0.12 -0.12,-0.11 -0.27,-0.42C-0.3,-0.479 -0.33,-0.53 -0.35,-0.59L-0.35,-0.599C-0.46,-0.86 -0.51,-1.16 -0.52,-1.469L2.92,-1.469C3.38,-1.469 3.74,-1.54 3.99,-1.67C4.24,-1.799 4.37,-2.09 4.37,-2.53C4.37,-3.009 4.25,-3.469 4,-3.929C3.76,-4.389 3.39,-4.769 2.9,-5.059C2.41,-5.349 1.82,-5.49 1.13,-5.49C0.6,-5.49 0.12,-5.41 -0.31,-5.24C-0.74,-5.07 -1.11,-4.82 -1.4,-4.509C-1.7,-4.189 -1.93,-3.809 -2.08,-3.36C-2.23,-2.92 -2.31,-2.439 -2.31,-1.92C-2.31,-0.82 -2,0.061 -1.37,0.701C-0.75,1.34 0.13,1.67 1.26,1.67C1.75,1.67 2.19,1.6 2.57,1.47C2.58,1.47 2.6,1.46 2.61,1.46C2.97,1.33 3.27,1.17 3.52,0.991C3.77,0.79 3.95,0.59 4.08,0.38C4.2,0.16 4.27,-0.019 4.27,-0.179C4.27,-0.36 4.21,-0.5 4.1,-0.599C3.99,-0.7 3.84,-0.75 3.66,-0.75" style="fill:rgb(22,22,22);fill-rule:nonzero;"/>
        </g>
        <g transform="matrix(1,0,0,1,220.869,475.98)">
            <path d="M0,5.08C-0.15,5.41 -0.36,5.66 -0.61,5.82C-0.87,5.98 -1.15,6.06 -1.46,6.06C-1.76,6.06 -2.04,5.97 -2.3,5.8C-2.56,5.63 -2.76,5.38 -2.91,5.05C-3.06,4.71 -3.13,4.31 -3.13,3.83C-3.13,3.38 -3.06,2.98 -2.92,2.64C-2.78,2.3 -2.59,2.04 -2.33,1.86C-2.08,1.68 -1.79,1.58 -1.47,1.58C-1.16,1.58 -0.88,1.67 -0.62,1.85C-0.36,2.03 -0.15,2.29 0,2.62C0.15,2.96 0.23,3.36 0.23,3.83C0.23,4.33 0.15,4.74 0,5.08M1.77,-2.09C1.63,-2.26 1.42,-2.34 1.16,-2.34C0.89,-2.34 0.68,-2.25 0.54,-2.07C0.4,-1.88 0.32,-1.61 0.32,-1.25L0.32,1.35C-0.01,0.99 -0.34,0.72 -0.69,0.54C-1.04,0.37 -1.47,0.28 -1.97,0.28C-2.85,0.28 -3.55,0.59 -4.09,1.2C-4.63,1.82 -4.9,2.67 -4.9,3.77C-4.9,4.29 -4.83,4.77 -4.69,5.22C-4.56,5.67 -4.36,6.06 -4.1,6.39C-3.84,6.72 -3.53,6.97 -3.17,7.15C-2.81,7.33 -2.42,7.42 -2,7.42C-1.68,7.42 -1.39,7.37 -1.12,7.28C-0.85,7.2 -0.6,7.07 -0.37,6.9C-0.14,6.73 0.09,6.51 0.32,6.24L0.32,6.41C0.32,6.73 0.4,6.98 0.56,7.16C0.72,7.33 0.91,7.42 1.16,7.42C1.4,7.42 1.6,7.33 1.75,7.17C1.91,7 1.99,6.75 1.99,6.41L1.99,-1.34C1.99,-1.67 1.91,-1.92 1.77,-2.09" style="fill:rgb(22,22,22);fill-rule:nonzero;"/>
        </g>
        <g transform="matrix(1,0,0,1,231.339,475.579)">
            <path d="M0,5.881C-0.32,6.271 -0.7,6.461 -1.14,6.461C-1.66,6.461 -2.08,6.271 -2.4,5.891C-2.72,5.521 -2.88,4.981 -2.88,4.28C-2.88,3.811 -2.8,3.391 -2.65,3.051C-2.5,2.7 -2.3,2.441 -2.04,2.261C-1.77,2.08 -1.48,1.981 -1.14,1.981C-0.82,1.981 -0.53,2.08 -0.29,2.261C-0.04,2.441 0.15,2.7 0.28,3.03C0.41,3.37 0.48,3.771 0.48,4.231C0.48,4.95 0.32,5.5 0,5.881M1.88,2.301C1.64,1.78 1.3,1.381 0.86,1.101C0.42,0.82 -0.09,0.681 -0.68,0.681C-1.18,0.681 -1.61,0.78 -1.95,0.961C-2.3,1.141 -2.63,1.401 -2.96,1.75L-2.96,-0.939C-2.96,-1.26 -3.04,-1.51 -3.18,-1.68C-3.33,-1.859 -3.54,-1.939 -3.81,-1.939C-4.06,-1.939 -4.26,-1.849 -4.41,-1.67C-4.55,-1.489 -4.62,-1.22 -4.62,-0.859L-4.62,6.811C-4.62,7.141 -4.55,7.391 -4.4,7.561C-4.25,7.731 -4.06,7.82 -3.81,7.82C-3.56,7.82 -3.36,7.731 -3.2,7.561C-3.04,7.391 -2.96,7.141 -2.96,6.811L-2.96,6.641C-2.77,6.86 -2.61,7.03 -2.5,7.141C-2.38,7.25 -2.24,7.36 -2.07,7.471C-1.9,7.57 -1.7,7.66 -1.46,7.721C-1.22,7.78 -0.97,7.82 -0.7,7.82C-0.26,7.82 0.15,7.731 0.52,7.551C0.88,7.37 1.2,7.12 1.45,6.79C1.71,6.471 1.91,6.08 2.04,5.641C2.18,5.191 2.24,4.711 2.24,4.171C2.24,3.45 2.12,2.83 1.88,2.301" style="fill:rgb(22,22,22);fill-rule:nonzero;"/>
        </g>
        <g transform="matrix(1,0,0,1,240.009,485.61)">
            <path d="M0,-8.97C-0.07,-9.09 -0.16,-9.18 -0.28,-9.25C-0.4,-9.32 -0.53,-9.36 -0.66,-9.36C-0.85,-9.36 -0.99,-9.33 -1.09,-9.26C-1.19,-9.2 -1.29,-9.07 -1.38,-8.89C-1.47,-8.7 -1.57,-8.45 -1.68,-8.12L-3.09,-4.1L-4.58,-8.43C-4.68,-8.73 -4.79,-8.96 -4.92,-9.12C-5.05,-9.281 -5.24,-9.36 -5.49,-9.36C-5.64,-9.36 -5.78,-9.32 -5.91,-9.241C-6.05,-9.17 -6.16,-9.06 -6.229,-8.93C-6.31,-8.81 -6.35,-8.67 -6.35,-8.52C-6.35,-8.37 -6.28,-8.15 -6.15,-7.83L-3.99,-2.39L-4.15,-1.991C-4.27,-1.71 -4.37,-1.491 -4.47,-1.34C-4.56,-1.19 -4.66,-1.09 -4.78,-1.031C-4.89,-0.97 -5.05,-0.94 -5.25,-0.94C-5.34,-0.94 -5.43,-0.95 -5.54,-0.98C-5.63,-1 -5.729,-1.02 -5.82,-1.02C-6.06,-1.02 -6.24,-0.96 -6.36,-0.85C-6.49,-0.741 -6.55,-0.59 -6.55,-0.39C-6.55,-0.09 -6.42,0.11 -6.16,0.23C-5.9,0.34 -5.52,0.39 -5,0.39C-4.479,0.39 -4.06,0.31 -3.75,0.15C-3.43,-0.01 -3.18,-0.241 -3,-0.54C-2.81,-0.84 -2.61,-1.25 -2.42,-1.781L-0.12,-7.781C-0.07,-7.94 -0.02,-8.09 0.021,-8.241C0.06,-8.39 0.08,-8.51 0.1,-8.59C0.1,-8.72 0.07,-8.85 0,-8.97" style="fill:rgb(22,22,22);fill-rule:nonzero;"/>
        </g>
        <g transform="matrix(1,0,0,1,261.319,480.624)">
            <path d="M0,-4.222L0.419,-4.222L0.419,-4.749C0.419,-5.301 0.486,-5.737 0.626,-6.062C0.765,-6.386 1.003,-6.622 1.336,-6.77C1.668,-6.917 2.124,-6.992 2.703,-6.992C3.732,-6.992 4.243,-6.743 4.243,-6.237C4.243,-6.075 4.189,-5.935 4.08,-5.82C3.976,-5.704 3.848,-5.646 3.702,-5.646C3.635,-5.646 3.514,-5.659 3.345,-5.686C3.184,-5.708 3.038,-5.724 2.923,-5.724C2.605,-5.724 2.403,-5.628 2.309,-5.443C2.223,-5.256 2.177,-4.99 2.177,-4.64L2.177,-4.222L2.605,-4.222C3.277,-4.222 3.609,-4.021 3.609,-3.615C3.609,-3.33 3.523,-3.147 3.343,-3.07C3.166,-2.992 2.92,-2.953 2.605,-2.953L2.177,-2.953L2.177,1.703C2.177,2.049 2.095,2.313 1.927,2.495C1.763,2.679 1.551,2.77 1.288,2.77C1.039,2.77 0.833,2.679 0.666,2.495C0.5,2.313 0.419,2.049 0.419,1.703L0.419,-2.953L-0.065,-2.953C-0.328,-2.953 -0.527,-3.01 -0.671,-3.131C-0.812,-3.246 -0.884,-3.402 -0.884,-3.59C-0.884,-4.013 -0.589,-4.222 0,-4.222" style="fill:rgb(22,22,22);fill-rule:nonzero;"/>
        </g>
        <g transform="matrix(1,0,0,1,267.072,478.783)">
            <path d="M0,2.075L0,3.544C0,3.899 -0.09,4.167 -0.253,4.344C-0.421,4.523 -0.632,4.611 -0.889,4.611C-1.147,4.611 -1.354,4.522 -1.517,4.34C-1.677,4.161 -1.761,3.895 -1.761,3.544L-1.761,-1.351C-1.761,-2.141 -1.477,-2.536 -0.906,-2.536C-0.612,-2.536 -0.403,-2.445 -0.273,-2.26C-0.146,-2.074 -0.074,-1.803 -0.059,-1.441C0.149,-1.803 0.364,-2.074 0.584,-2.26C0.809,-2.445 1.101,-2.536 1.472,-2.536C1.844,-2.536 2.198,-2.445 2.546,-2.26C2.895,-2.074 3.068,-1.828 3.068,-1.525C3.068,-1.311 2.993,-1.131 2.848,-0.994C2.698,-0.853 2.54,-0.783 2.369,-0.783C2.302,-0.783 2.145,-0.826 1.899,-0.905C1.652,-0.983 1.433,-1.023 1.247,-1.023C0.989,-1.023 0.777,-0.953 0.615,-0.821C0.451,-0.682 0.324,-0.484 0.233,-0.22C0.146,0.048 0.085,0.367 0.049,0.732C0.016,1.099 0,1.548 0,2.075" style="fill:rgb(22,22,22);fill-rule:nonzero;"/>
        </g>
        <g transform="matrix(1,0,0,1,272.228,481.719)">
            <path d="M0,-3.81C0.28,-4.11 0.641,-4.259 1.07,-4.259C1.541,-4.259 1.9,-4.11 2.19,-3.81C2.471,-3.52 2.631,-3.07 2.671,-2.469L-0.52,-2.469C-0.459,-3.06 -0.289,-3.499 0,-3.81M3.66,-0.74C3.5,-0.74 3.37,-0.7 3.28,-0.62C3.061,-0.419 2.881,-0.249 2.74,-0.14C2.601,-0.009 2.461,0.1 2.291,0.201C2.131,0.31 1.961,0.39 1.791,0.43C1.61,0.491 1.421,0.51 1.211,0.51C0.9,0.51 0.61,0.43 0.351,0.281C0.091,0.121 -0.119,-0.11 -0.279,-0.41C-0.43,-0.709 -0.51,-1.07 -0.52,-1.469L2.921,-1.469C3.381,-1.469 3.74,-1.53 3.99,-1.66C4.24,-1.799 4.37,-2.08 4.37,-2.52C4.37,-2.999 4.25,-3.459 4,-3.929C3.761,-4.39 3.391,-4.759 2.9,-5.049C2.41,-5.339 1.82,-5.48 1.131,-5.48C0.601,-5.48 0.12,-5.4 -0.31,-5.23C-0.739,-5.06 -1.109,-4.82 -1.399,-4.499C-1.699,-4.179 -1.93,-3.799 -2.079,-3.36C-2.239,-2.91 -2.31,-2.429 -2.31,-1.91C-2.31,-0.81 -2,0.071 -1.369,0.711C-0.75,1.35 0.131,1.67 1.261,1.67C1.75,1.67 2.19,1.61 2.57,1.48C2.95,1.35 3.271,1.19 3.521,1.001C3.771,0.8 3.961,0.6 4.091,0.38C4.211,0.17 4.271,-0.009 4.271,-0.169C4.271,-0.35 4.211,-0.49 4.101,-0.589C3.99,-0.69 3.841,-0.74 3.66,-0.74" style="fill:rgb(22,22,22);fill-rule:nonzero;"/>
        </g>
        <g transform="matrix(1,0,0,1,279.529,481.719)">
            <path d="M0,-3.81C0.29,-4.11 0.649,-4.259 1.08,-4.259C1.54,-4.259 1.91,-4.11 2.199,-3.81C2.479,-3.52 2.64,-3.07 2.68,-2.469L-0.51,-2.469C-0.45,-3.06 -0.28,-3.499 0,-3.81M3.67,-0.74C3.51,-0.74 3.38,-0.7 3.29,-0.62C3.069,-0.419 2.89,-0.249 2.75,-0.14C2.609,-0.009 2.47,0.1 2.3,0.201C2.14,0.31 1.97,0.39 1.79,0.43C1.62,0.491 1.43,0.51 1.22,0.51C0.91,0.51 0.62,0.43 0.359,0.281C0.1,0.121 -0.11,-0.11 -0.26,-0.41C-0.42,-0.709 -0.5,-1.07 -0.51,-1.469L2.93,-1.469C3.39,-1.469 3.75,-1.53 4,-1.66C4.25,-1.799 4.38,-2.08 4.38,-2.52C4.38,-2.999 4.26,-3.459 4.01,-3.929C3.77,-4.39 3.399,-4.759 2.91,-5.049C2.41,-5.339 1.83,-5.48 1.14,-5.48C0.609,-5.48 0.13,-5.4 -0.301,-5.23C-0.74,-5.06 -1.101,-4.82 -1.391,-4.499C-1.69,-4.179 -1.92,-3.799 -2.07,-3.36C-2.23,-2.91 -2.311,-2.429 -2.311,-1.91C-2.311,-0.81 -1.99,0.071 -1.36,0.711C-0.74,1.35 0.14,1.67 1.27,1.67C1.76,1.67 2.199,1.61 2.58,1.48C2.96,1.35 3.279,1.19 3.529,1.001C3.779,0.8 3.97,0.6 4.09,0.38C4.22,0.17 4.27,-0.009 4.27,-0.169C4.27,-0.35 4.22,-0.49 4.109,-0.589C4,-0.69 3.85,-0.74 3.67,-0.74" style="fill:rgb(22,22,22);fill-rule:nonzero;"/>
        </g>
        <g transform="matrix(1,0,0,1,289.529,481.229)">
            <path d="M0,-0.21C-0.15,0.13 -0.34,0.38 -0.601,0.55C-0.84,0.72 -1.12,0.811 -1.41,0.811C-1.471,0.811 -1.53,0.811 -1.58,0.79C-2,0.76 -2.351,0.561 -2.641,0.22C-2.971,-0.16 -3.13,-0.71 -3.13,-1.41C-3.13,-2.15 -2.971,-2.71 -2.63,-3.1C-2.301,-3.48 -1.891,-3.67 -1.41,-3.67C-1.101,-3.67 -0.82,-3.58 -0.57,-3.4C-0.32,-3.22 -0.13,-2.97 0.01,-2.63C0.16,-2.3 0.229,-1.9 0.229,-1.439C0.229,-1.01 0.17,-0.64 0.04,-0.33C0.029,-0.29 0.02,-0.25 0,-0.21M1.979,-1.63C1.96,-2.28 1.83,-2.84 1.6,-3.33C1.33,-3.86 0.97,-4.27 0.52,-4.55C0.06,-4.83 -0.44,-4.97 -0.98,-4.97C-1.431,-4.97 -1.83,-4.87 -2.181,-4.68C-2.54,-4.49 -2.891,-4.189 -3.221,-3.78L-3.221,-3.99C-3.221,-4.32 -3.29,-4.56 -3.45,-4.73C-3.61,-4.9 -3.811,-4.98 -4.061,-4.98C-4.311,-4.98 -4.51,-4.9 -4.66,-4.74C-4.811,-4.57 -4.88,-4.32 -4.88,-3.98L-4.88,3.6C-4.88,3.99 -4.82,4.27 -4.721,4.48C-4.61,4.67 -4.391,4.77 -4.061,4.77C-3.5,4.77 -3.221,4.38 -3.221,3.61L-3.221,0.98C-3.04,1.2 -2.86,1.39 -2.67,1.55C-2.53,1.67 -2.391,1.77 -2.24,1.86C-1.9,2.061 -1.48,2.16 -0.98,2.16C-0.561,2.16 -0.17,2.08 0.189,1.92C0.56,1.75 0.87,1.51 1.14,1.21C1.399,0.9 1.609,0.52 1.77,0.07C1.92,-0.38 1.99,-0.88 1.99,-1.42C1.99,-1.49 1.99,-1.56 1.979,-1.63" style="fill:rgb(22,22,22);fill-rule:nonzero;"/>
        </g>
        <g transform="matrix(1,0,0,1,293.899,483.17)">
            <path d="M0,-9.24C-0.181,-9.39 -0.38,-9.46 -0.61,-9.46C-0.841,-9.46 -1.051,-9.38 -1.23,-9.22C-1.41,-9.06 -1.5,-8.85 -1.5,-8.6C-1.5,-8.33 -1.41,-8.12 -1.23,-7.97C-1.061,-7.82 -0.851,-7.74 -0.61,-7.74C-0.37,-7.74 -0.171,-7.82 0.01,-7.97C0.18,-8.12 0.26,-8.33 0.26,-8.6C0.26,-8.88 0.17,-9.1 0,-9.24M0.01,-6.66C-0.16,-6.841 -0.37,-6.92 -0.63,-6.92C-0.88,-6.92 -1.091,-6.841 -1.25,-6.66C-1.41,-6.48 -1.5,-6.22 -1.5,-5.87L-1.5,-0.841C-1.5,-0.5 -1.41,-0.24 -1.25,-0.051C-1.091,0.13 -0.88,0.22 -0.63,0.22C-0.37,0.22 -0.16,0.14 0.01,-0.051C0.18,-0.23 0.26,-0.49 0.26,-0.841L0.26,-5.92C0.26,-6.24 0.18,-6.48 0.01,-6.66" style="fill:rgb(22,22,22);fill-rule:nonzero;"/>
        </g>
        <g transform="matrix(1,0,0,1,299.827,474.436)">
            <path d="M0,8.156L-1.548,5.604L-2.502,6.505L-2.502,7.904C-2.502,8.243 -2.592,8.502 -2.771,8.683C-2.945,8.868 -3.154,8.959 -3.385,8.959C-3.655,8.959 -3.869,8.87 -4.022,8.687C-4.176,8.509 -4.255,8.243 -4.255,7.891L-4.255,0.393C-4.255,0.006 -4.178,-0.291 -4.031,-0.496C-3.88,-0.703 -3.662,-0.803 -3.385,-0.803C-3.114,-0.803 -2.901,-0.71 -2.741,-0.524C-2.583,-0.341 -2.502,-0.068 -2.502,0.291L-2.502,4.555L-0.525,2.48C-0.28,2.225 -0.097,2.046 0.035,1.953C0.163,1.858 0.318,1.811 0.502,1.811C0.723,1.811 0.904,1.882 1.055,2.02C1.197,2.16 1.271,2.337 1.271,2.545C1.271,2.802 1.032,3.147 0.557,3.576L-0.376,4.431L1.426,7.266C1.557,7.479 1.655,7.635 1.713,7.745C1.771,7.852 1.801,7.962 1.801,8.057C1.801,8.338 1.724,8.555 1.57,8.718C1.418,8.88 1.216,8.959 0.97,8.959C0.756,8.959 0.588,8.904 0.473,8.785C0.357,8.668 0.197,8.458 0,8.156" style="fill:rgb(22,22,22);fill-rule:nonzero;"/>
        </g>
        <g transform="matrix(1,0,0,1,303.647,481.457)">
            <path d="M0,1.937C-0.265,1.937 -0.492,1.851 -0.687,1.679C-0.879,1.51 -0.978,1.268 -0.978,0.958C-0.978,0.696 -0.884,0.47 -0.699,0.283C-0.513,0.093 -0.287,0 -0.016,0C0.253,0 0.482,0.093 0.677,0.279C0.866,0.465 0.963,0.693 0.963,0.958C0.963,1.264 0.866,1.504 0.677,1.675C0.482,1.851 0.257,1.937 0,1.937" style="fill:rgb(22,22,22);fill-rule:nonzero;"/>
        </g>
        <g transform="matrix(1,0,0,1,312.389,478.4)">
            <path d="M0,2.819C0,3.037 -0.065,3.272 -0.197,3.52C-0.327,3.771 -0.528,4.006 -0.798,4.232C-1.065,4.457 -1.402,4.64 -1.811,4.776C-2.218,4.913 -2.679,4.984 -3.187,4.984C-4.275,4.984 -5.124,4.666 -5.733,4.035C-6.341,3.4 -6.646,2.55 -6.646,1.486C-6.646,0.763 -6.508,0.127 -6.227,-0.428C-5.95,-0.98 -5.546,-1.409 -5.019,-1.711C-4.491,-2.015 -3.856,-2.165 -3.125,-2.165C-2.669,-2.165 -2.252,-2.099 -1.87,-1.965C-1.49,-1.833 -1.17,-1.66 -0.904,-1.451C-0.643,-1.238 -0.439,-1.015 -0.301,-0.779C-0.161,-0.54 -0.093,-0.317 -0.093,-0.11C-0.093,0.099 -0.17,0.278 -0.325,0.424C-0.484,0.57 -0.675,0.644 -0.894,0.644C-1.042,0.644 -1.163,0.605 -1.261,0.531C-1.357,0.455 -1.467,0.335 -1.585,0.164C-1.8,-0.16 -2.022,-0.407 -2.26,-0.568C-2.492,-0.732 -2.788,-0.813 -3.149,-0.813C-3.666,-0.813 -4.088,-0.611 -4.406,-0.204C-4.723,0.199 -4.883,0.757 -4.883,1.459C-4.883,1.79 -4.84,2.095 -4.759,2.372C-4.68,2.648 -4.562,2.884 -4.406,3.08C-4.25,3.274 -4.064,3.422 -3.846,3.523C-3.626,3.627 -3.385,3.675 -3.125,3.675C-2.771,3.675 -2.47,3.594 -2.22,3.431C-1.965,3.268 -1.743,3.02 -1.551,2.684C-1.443,2.487 -1.329,2.334 -1.206,2.221C-1.082,2.11 -0.929,2.052 -0.748,2.052C-0.533,2.052 -0.355,2.135 -0.215,2.298C-0.072,2.461 0,2.636 0,2.819" style="fill:rgb(22,22,22);fill-rule:nonzero;"/>
        </g>
        <g transform="matrix(1,0,0,1,317.739,478.171)">
            <path d="M0,3.309C-0.32,3.719 -0.74,3.919 -1.271,3.919C-1.63,3.919 -1.931,3.83 -2.19,3.649C-2.45,3.459 -2.65,3.199 -2.79,2.849C-2.931,2.509 -3,2.109 -3,1.649C-3,1.189 -2.931,0.779 -2.79,0.429C-2.65,0.089 -2.45,-0.181 -2.181,-0.361C-1.92,-0.531 -1.62,-0.621 -1.271,-0.621C-0.74,-0.621 -0.32,-0.42 0,-0.021C0.31,0.379 0.47,0.939 0.47,1.649C0.47,2.359 0.31,2.909 0,3.309M1.989,0.199C1.83,-0.231 1.6,-0.611 1.29,-0.931C0.979,-1.251 0.609,-1.491 0.18,-1.661C-0.261,-1.841 -0.74,-1.92 -1.271,-1.92C-1.8,-1.92 -2.28,-1.841 -2.71,-1.67C-3.141,-1.501 -3.511,-1.261 -3.82,-0.941C-4.12,-0.63 -4.36,-0.251 -4.521,0.189C-4.681,0.629 -4.761,1.12 -4.761,1.649C-4.761,2.179 -4.681,2.659 -4.53,3.099C-4.36,3.529 -4.13,3.909 -3.811,4.229C-3.511,4.549 -3.13,4.799 -2.71,4.969C-2.29,5.139 -1.811,5.229 -1.271,5.229C-0.74,5.229 -0.261,5.139 0.18,4.969C0.6,4.799 0.97,4.559 1.28,4.239C1.59,3.919 1.83,3.539 1.989,3.099C2.149,2.659 2.229,2.169 2.229,1.649C2.229,1.12 2.149,0.639 1.989,0.199" style="fill:rgb(22,22,22);fill-rule:nonzero;"/>
        </g>
        <g transform="matrix(1,0,0,1,326.677,479.691)">
            <path d="M0,0.26L0,2.596C0,2.967 -0.082,3.24 -0.251,3.428C-0.42,3.613 -0.638,3.704 -0.913,3.704C-1.18,3.704 -1.397,3.613 -1.558,3.428C-1.726,3.24 -1.81,2.967 -1.81,2.596L-1.81,-0.204C-1.81,-0.646 -1.824,-0.991 -1.853,-1.237C-1.884,-1.476 -1.967,-1.68 -2.099,-1.835C-2.231,-1.995 -2.443,-2.073 -2.729,-2.073C-3.306,-2.073 -3.683,-1.877 -3.865,-1.476C-4.047,-1.086 -4.141,-0.518 -4.141,0.223L-4.141,2.596C-4.141,2.96 -4.224,3.238 -4.386,3.425C-4.555,3.611 -4.771,3.704 -5.04,3.704C-5.308,3.704 -5.525,3.611 -5.695,3.425C-5.865,3.238 -5.95,2.96 -5.95,2.596L-5.95,-2.432C-5.95,-2.763 -5.874,-3.015 -5.723,-3.185C-5.567,-3.359 -5.366,-3.444 -5.12,-3.444C-4.878,-3.444 -4.679,-3.36 -4.516,-3.203C-4.355,-3.042 -4.275,-2.819 -4.275,-2.536L-4.275,-2.37C-3.968,-2.732 -3.642,-3.001 -3.297,-3.17C-2.946,-3.346 -2.563,-3.431 -2.136,-3.431C-1.694,-3.431 -1.315,-3.343 -0.999,-3.168C-0.681,-2.991 -0.42,-2.723 -0.212,-2.37C0.086,-2.728 0.404,-2.995 0.743,-3.17C1.082,-3.344 1.457,-3.431 1.87,-3.431C2.349,-3.431 2.766,-3.335 3.112,-3.147C3.458,-2.959 3.718,-2.687 3.891,-2.338C4.04,-2.017 4.114,-1.517 4.114,-0.835L4.114,2.596C4.114,2.967 4.031,3.24 3.865,3.428C3.698,3.613 3.476,3.704 3.201,3.704C2.934,3.704 2.718,3.611 2.548,3.425C2.378,3.238 2.293,2.96 2.293,2.596L2.293,-0.36C2.293,-0.738 2.276,-1.04 2.246,-1.266C2.214,-1.495 2.126,-1.687 1.986,-1.841C1.843,-1.995 1.627,-2.073 1.341,-2.073C1.108,-2.073 0.889,-2.001 0.681,-1.865C0.473,-1.73 0.31,-1.542 0.192,-1.314C0.066,-1.017 0,-0.492 0,0.26" style="fill:rgb(22,22,22);fill-rule:nonzero;"/>
        </g>
        <g transform="matrix(1,0,0,1,244.872,479.385)">
            <path d="M0,0.012C-0.001,0.009 -0.001,0.006 -0.001,0C-0.001,0.006 -0.001,0.009 0,0.012" style="fill:rgb(22,22,22);fill-rule:nonzero;"/>
        </g>
        <g transform="matrix(1,0,0,1,244.961,479.483)">
            <path d="M0,0.476L0.002,0.476C-0.032,0.316 -0.058,0.157 -0.079,0C-0.058,0.159 -0.032,0.318 0,0.476" style="fill:rgb(22,22,22);fill-rule:nonzero;"/>
        </g>
        <g transform="matrix(1,0,0,1,245.542,481.568)">
            <path d="M0,0.022C-0.004,0.015 -0.007,0.007 -0.012,0C-0.007,0.007 -0.004,0.015 0,0.022" style="fill:rgb(22,22,22);fill-rule:nonzero;"/>
        </g>
        <g transform="matrix(1,0,0,1,245.487,481.39)">
            <path d="M0,0.091C-0.015,0.061 -0.03,0.029 -0.044,0C-0.03,0.031 -0.015,0.061 0,0.091" style="fill:rgb(22,22,22);fill-rule:nonzero;"/>
        </g>
        <g transform="matrix(1,0,0,1,245.124,481.372)">
            <path d="M0,-0.785C0.086,-0.514 0.19,-0.251 0.31,0C0.188,-0.256 0.086,-0.519 0.002,-0.785L0,-0.785Z" style="fill:rgb(22,22,22);fill-rule:nonzero;"/>
        </g>
        <g transform="matrix(1,0,0,1,251.675,470.86)">
            <path d="M0,1.803C0.34,1.803 0.59,1.829 0.878,1.878L0.959,1.362C0.959,1.362 0.165,1.117 -0.878,1.202L-0.96,0.921C-0.636,0.853 -0.393,0.565 -0.393,0.22C-0.393,-0.175 -0.713,-0.494 -1.108,-0.494C-1.504,-0.494 -1.824,-0.175 -1.824,0.22C-1.824,0.565 -1.581,0.853 -1.257,0.921L-1.167,1.235C-2.274,1.387 -3.156,1.82 -3.156,1.82L-3,2.297C-2.33,2.074 -1.749,1.939 -1.222,1.881C-0.705,1.826 -0.316,1.803 0,1.803" style="fill:rgb(22,22,22);fill-rule:nonzero;"/>
        </g>
        <g transform="matrix(1,0,0,1,245.529,477.915)">
            <path d="M0,-2.638L0.004,-2.643C0.03,-2.677 0.055,-2.708 0.081,-2.74L-0.131,-2.893L-0.462,-3.134C-0.48,-3.109 -1.001,-2.63 -1.412,-1.746C-1.429,-1.774 -1.45,-1.801 -1.473,-1.827C-1.596,-1.961 -1.768,-2.03 -1.986,-2.026L-1.997,-2.026C-2.132,-2.026 -2.225,-2.072 -2.286,-2.126C-2.225,-2.202 -2.189,-2.299 -2.189,-2.407C-2.189,-2.656 -2.392,-2.86 -2.643,-2.86C-2.892,-2.86 -3.096,-2.656 -3.096,-2.407C-3.096,-2.156 -2.892,-1.952 -2.643,-1.952C-2.603,-1.952 -2.565,-1.959 -2.529,-1.966C-2.418,-1.843 -2.241,-1.735 -1.982,-1.741C-1.849,-1.742 -1.751,-1.707 -1.686,-1.635C-1.61,-1.553 -1.585,-1.435 -1.577,-1.345C-1.578,-1.344 -1.578,-1.342 -1.579,-1.342C-1.875,-0.535 -1.79,0.467 -1.79,0.467L-1.074,0.496C-1.059,0.131 -1.007,-0.508 -0.822,-1.016C-0.465,-1.997 -0.018,-2.612 0,-2.638" style="fill:rgb(22,22,22);fill-rule:nonzero;"/>
        </g>
        <g transform="matrix(1,0,0,1,257.909,476.83)">
            <path d="M0,-3.568C-0.249,-3.568 -0.453,-3.366 -0.453,-3.115C-0.453,-3.076 -0.447,-3.039 -0.437,-3.003C-0.562,-2.89 -0.67,-2.713 -0.666,-2.454C-0.664,-2.32 -0.698,-2.223 -0.771,-2.158C-0.828,-2.107 -0.9,-2.08 -0.971,-2.062C-1.504,-2.809 -2.161,-3.265 -2.161,-3.265L-2.675,-2.714C-2.286,-2.361 -1.89,-1.918 -1.504,-1.366C-1.237,-0.984 -0.962,-0.491 -0.733,0L-0.04,-0.33C-0.04,-0.33 -0.356,-1.113 -0.803,-1.815C-0.726,-1.842 -0.647,-1.884 -0.578,-1.945C-0.442,-2.068 -0.376,-2.241 -0.38,-2.459C-0.381,-2.6 -0.335,-2.695 -0.279,-2.758C-0.202,-2.699 -0.105,-2.661 0,-2.661C0.252,-2.661 0.454,-2.865 0.454,-3.115C0.454,-3.366 0.252,-3.568 0,-3.568" style="fill:rgb(22,22,22);fill-rule:nonzero;"/>
        </g>
        <g transform="matrix(1,0,0,1,256.108,483.454)">
            <path d="M0,-3.956C-0.955,-3.49 -2.527,-2.876 -4.596,-2.587C-5.408,-2.475 -6.195,-2.433 -6.919,-2.433C-7.862,-2.433 -8.694,-2.503 -9.333,-2.584C-10.063,-2.676 -10.633,-2.788 -10.982,-2.867C-10.898,-2.602 -10.796,-2.338 -10.674,-2.082C-10.672,-2.075 -10.669,-2.068 -10.666,-2.063C-10.651,-2.034 -10.637,-2.003 -10.622,-1.973C-10.607,-1.943 -10.592,-1.914 -10.578,-1.887C-10.573,-1.879 -10.57,-1.871 -10.566,-1.864C-10.361,-1.477 -10.114,-1.122 -9.833,-0.814C-8.858,0.253 -7.863,0.422 -7.854,0.423L-7.838,0.425L-7.824,0.43C-7.815,0.434 -6.934,0.718 -5.593,0.718C-4.274,0.718 -2.98,0.452 -1.748,-0.073C-0.835,-0.54 0.029,-1.25 0.457,-1.883C0.788,-2.372 1.027,-2.894 1.169,-3.437C1.244,-3.726 1.304,-4.187 1.269,-4.674C1,-4.493 0.575,-4.236 0,-3.956" style="fill:rgb(22,22,22);fill-rule:nonzero;"/>
        </g>
        <g transform="matrix(1,0,0,1,254.149,476.369)">
            <path d="M0,1.051C-0.65,1.051 -1.181,0.521 -1.181,-0.139C-1.181,-0.79 -0.65,-1.319 0,-1.319C0.649,-1.319 1.18,-0.79 1.18,-0.139C1.18,0.521 0.649,1.051 0,1.051M-5.581,2.45C-6.641,2.45 -7.49,1.601 -7.49,0.54C-7.49,-0.51 -6.641,-1.359 -5.581,-1.359C-4.53,-1.359 -3.67,-0.51 -3.67,0.54C-3.67,1.601 -4.53,2.45 -5.581,2.45M1.939,-0.689C0.59,-2.63 -0.88,-3.13 -1.63,-3.25C-1.92,-3.3 -2.15,-3.319 -2.471,-3.319C-2.78,-3.319 -3.15,-3.3 -3.66,-3.25C-4.16,-3.199 -4.72,-3.059 -5.37,-2.84C-6.291,-2.54 -7.11,-2.059 -7.76,-1.46L-7.78,-1.439C-7.88,-1.349 -8.081,-1.159 -8.311,-0.869C-8.34,-0.829 -8.76,-0.239 -9.081,0.66C-9.331,1.341 -9.32,2.321 -9.32,2.33C-9.32,2.561 -9.3,2.79 -9.28,3.021L-9.28,3.03C-9.271,3.061 -9.271,3.08 -9.271,3.111C-9.25,3.271 -9.22,3.431 -9.19,3.591C-8.71,3.71 -5.88,4.37 -2.721,3.931C-0.73,3.651 0.77,3.071 1.689,2.62C2.449,2.261 2.939,1.921 3.13,1.78C2.939,1.091 2.42,-0.01 1.939,-0.689" style="fill:rgb(22,22,22);fill-rule:nonzero;"/>
        </g>
    </g>
</svg>
