<?xml version="1.0" encoding="UTF-8" standalone="no"?>
<!DOCTYPE svg PUBLIC "-//W3C//DTD SVG 1.1//EN" "http://www.w3.org/Graphics/SVG/1.1/DTD/svg11.dtd">
<svg width="100%" height="100%" viewBox="0 0 80 80" version="1.1" xmlns="http://www.w3.org/2000/svg" xmlns:xlink="http://www.w3.org/1999/xlink" xml:space="preserve" xmlns:serif="http://www.serif.com/" style="fill-rule:evenodd;clip-rule:evenodd;stroke-linejoin:round;stroke-miterlimit:2;">
    <g id="Mesa-de-trabajo1" serif:id="Mesa de trabajo1" transform="matrix(0.983167,0,0,1.10403,0,0)">
        <rect x="0" y="0" width="81.37" height="72.462" style="fill:none;"/>
        <clipPath id="_clip1">
            <rect x="0" y="0" width="81.37" height="72.462"/>
        </clipPath>
        <g clip-path="url(#_clip1)">
            <g transform="matrix(0.13322,0,0,0.118636,-0.160286,-0.142422)">
                <g>
                    <path d="M241.819,320.606L271.596,320.606L256.707,277.252L241.819,320.606Z" style="fill-rule:nonzero;"/>
                    <path d="M605.516,298.642C615.345,288.172 613.792,271.459 602.207,262.973L579.036,246.001C570.205,239.53 566.89,227.889 570.994,217.733L581.754,191.104C587.134,177.787 579.659,162.768 565.787,159.034L538.049,151.577C527.474,148.736 520.184,139.079 520.344,128.128L520.757,99.404C520.96,85.045 508.561,73.743 494.289,75.271L465.725,78.334C454.836,79.499 444.55,73.127 440.742,62.86L430.765,35.942C425.773,22.477 410.127,16.413 397.358,22.994L371.839,36.17C362.108,41.193 350.214,38.968 342.955,30.772L323.91,9.266C314.389,-1.488 297.608,-1.488 288.087,9.266L269.045,30.773C261.785,38.969 249.892,41.194 240.161,36.171L214.636,22.995C201.873,16.413 186.233,22.471 181.235,35.936L171.245,62.873C167.437,73.14 157.151,79.506 146.268,78.341L117.704,75.278C103.425,73.75 91.02,85.052 91.236,99.411L91.649,128.129C91.809,139.08 84.519,148.737 73.944,151.578L46.206,159.041C32.334,162.769 24.859,177.788 30.239,191.105L40.999,217.734C45.103,227.884 41.788,239.525 32.957,245.996L9.785,262.973C-1.801,271.459 -3.347,288.172 6.482,298.642L26.134,319.582C33.628,327.563 34.743,339.617 28.846,348.842L13.372,373.042C5.638,385.139 10.229,401.279 23.177,407.497L49.072,419.927C58.944,424.666 64.337,435.494 62.167,446.229L56.479,474.392C53.638,488.467 63.751,501.852 78.067,502.974L106.705,505.211C117.619,506.061 126.567,514.215 128.416,525.005L133.291,553.316C135.725,567.465 149.992,576.303 163.746,572.174L191.256,563.916C201.745,560.767 213.028,565.142 218.655,574.528L233.421,599.166C240.804,611.485 257.301,614.566 268.628,605.748L291.3,588.111C299.94,581.388 312.043,581.388 320.683,588.111L343.349,605.748C354.682,614.567 371.179,611.485 378.562,599.166L393.328,574.534C398.961,565.148 410.238,560.773 420.727,563.922L448.243,572.18C461.998,576.309 476.258,567.472 478.699,553.323L483.567,525.012C485.422,514.221 494.364,506.068 505.278,505.218L533.909,502.981C548.225,501.859 558.337,488.474 555.497,474.399L549.815,446.236C547.652,435.507 553.044,424.673 562.917,419.934L588.812,407.504C601.76,401.292 606.351,385.146 598.617,373.049L583.143,348.849C577.245,339.624 578.361,327.57 585.855,319.589L605.516,298.642Z" style="fill-rule:nonzero;"/>
                </g>
            </g>
        </g>
    </g>
</svg>
