<svg xmlns="http://www.w3.org/2000/svg" width="80" height="80" viewBox="0 0 80 80" fill="none">
  <path d="M73.5223 73.2784C75.3745 75.3635 74.0537 78.6664 71.2749 78.9047C63.3151 79.5869 52.7759 80.0001 41.2136 80.0001C28.4148 80.0001 16.8705 79.4936 8.69124 78.6785C5.94614 78.4049 4.62928 75.1257 6.47571 73.076C6.48967 73.0606 6.50347 73.0451 6.51743 73.0297C14.7369 63.8977 26.6517 58.1571 39.9063 58.1571C53.0185 58.1571 64.8105 63.7684 73.0233 72.7256C73.1912 72.9085 73.3574 73.0926 73.5223 73.2784Z" fill="url(#paint0_linear_1413_4072)"/>
  <path d="M71.2754 78.9051C63.3155 79.5863 52.7765 80 41.2134 80C39.265 80 37.347 79.9884 35.4652 79.9653L27.8958 72.3959C27.2115 71.8751 26.9223 71.0869 27.0525 70.3405C24.5979 67.9206 23.1108 64.8064 23.0906 61.4114C28.211 59.3415 33.7988 58.1901 39.6512 58.1583C39.7365 58.1569 39.8205 58.1569 39.9058 58.1569C44.857 58.1569 49.6189 58.9567 54.071 60.435C61.4118 62.8709 67.9108 67.1495 73.0225 72.7256C73.1903 72.9079 73.3566 73.093 73.5215 73.2783C75.3747 75.3641 74.054 78.6663 71.2754 78.9051Z" fill="url(#paint1_linear_1413_4072)"/>
  <path d="M73.0234 72.7256C64.8299 63.7897 53.0743 58.1844 39.9995 58.1577V79.9985C40.403 79.9994 40.8075 80.0001 41.2136 80.0001C52.776 80.0001 63.3151 79.5869 71.2751 78.9045C74.0539 78.6664 75.3746 75.3634 73.5225 73.2782C73.3575 73.0926 73.1912 72.9085 73.0234 72.7256Z" fill="url(#paint2_linear_1413_4072)"/>
  <path d="M40 75.3503C30.6757 75.3503 23.0898 69.0642 23.0898 61.3374C23.0898 56.8923 25.6727 52.6672 29.9993 50.0353C30.6404 49.6452 31.5087 49.8016 31.938 50.3851C32.367 50.9687 32.1948 51.758 31.5532 52.1483C27.9509 54.3396 25.8848 57.6888 25.8848 61.3374C25.8848 67.6625 32.2169 72.8084 39.9998 72.8084C47.7827 72.8084 54.1148 67.6626 54.1148 61.3374C54.1148 57.6888 52.0487 54.3396 48.4465 52.1483C47.805 51.758 47.6327 50.9687 48.0618 50.3851C48.4908 49.8016 49.3589 49.6449 50.0004 50.0353C54.3269 52.667 56.9099 56.8921 56.9099 61.3374C56.9101 69.0642 49.3242 75.3503 40 75.3503Z" fill="url(#paint3_linear_1413_4072)"/>
  <path d="M39.9995 72.1727C38.8419 72.1727 37.9042 73.0265 37.9042 74.0792V80H42.0959V74.0794C42.0959 73.0265 41.1581 72.1727 39.9995 72.1727Z" fill="url(#paint4_linear_1413_4072)"/>
  <path d="M42.0963 74.0792C42.0963 73.0264 41.1578 72.1727 40 72.1727C38.8422 72.1727 37.9037 73.0264 37.9037 74.0792V76.187L42.0963 80V74.0792Z" fill="url(#paint5_linear_1413_4072)"/>
  <path d="M39.9995 76.3036C35.5074 76.3036 31.2089 74.9156 27.8958 72.3956C26.8598 71.6076 26.7223 70.2047 27.5889 69.2625C28.4554 68.32 29.998 68.1952 31.034 68.9832C33.4685 70.835 36.6525 71.8549 39.9995 71.8549C43.3465 71.8549 46.5305 70.835 48.965 68.9832C50.0009 68.1952 51.5434 68.32 52.41 69.2625C53.2765 70.2047 53.1391 71.6076 52.1031 72.3956C48.7903 74.9156 44.4918 76.3036 39.9995 76.3036Z" fill="url(#paint6_linear_1413_4072)"/>
  <path d="M52.4102 69.2624C52.2543 69.0929 52.0759 68.9509 51.8832 68.8348C51.9652 69.5465 51.669 70.2814 51.0201 70.7751C47.7072 73.2951 43.4086 74.683 38.9164 74.683C34.5249 74.683 30.3189 73.3559 27.0374 70.942C27.1061 71.4891 27.3948 72.0144 27.8959 72.3956C31.2088 74.9156 35.5073 76.3035 39.9995 76.3035C44.4918 76.3035 48.7901 74.9156 52.1032 72.3956C53.1393 71.6075 53.2767 70.2047 52.4102 69.2624Z" fill="url(#paint7_linear_1413_4072)"/>
  <path d="M40 65.1608C43.7901 65.1608 46.8627 63.2561 46.8627 60.9064C46.8627 58.5568 43.7901 56.652 40 56.652C36.2098 56.652 33.1372 58.5568 33.1372 60.9064C33.1372 63.2561 36.2098 65.1608 40 65.1608Z" fill="url(#paint8_linear_1413_4072)"/>
  <path d="M25.0695 55.0112V58.2144C25.0695 58.8031 25.1989 59.3827 25.4464 59.9027L29.7339 68.9119C30.2941 70.089 31.6196 70.5112 32.6527 69.8412L40 65.0774L25.0695 55.0112Z" fill="url(#paint9_linear_1413_4072)"/>
  <path d="M54.9305 55.0112V58.2144C54.9305 58.8031 54.8011 59.3827 54.5536 59.9027L50.266 68.9119C49.7059 70.089 48.3804 70.5112 47.3473 69.8412L40 65.0774L54.9305 55.0112Z" fill="url(#paint10_linear_1413_4072)"/>
  <path d="M19.8407 40.6345C17.4015 40.6345 15.4241 38.6571 15.4241 36.2179V33.5912C15.4241 31.152 17.4015 29.1746 19.8407 29.1746C22.2799 29.1746 24.2573 31.152 24.2573 33.5912V36.2179C24.2573 38.6571 22.2799 40.6345 19.8407 40.6345Z" fill="url(#paint11_linear_1413_4072)"/>
  <path d="M60.1592 40.6345C57.72 40.6345 55.7426 38.6571 55.7426 36.2179V33.5912C55.7426 31.152 57.72 29.1746 60.1592 29.1746C62.5984 29.1746 64.5758 31.152 64.5758 33.5912V36.2179C64.5758 38.6571 62.5984 40.6345 60.1592 40.6345Z" fill="url(#paint12_linear_1413_4072)"/>
  <path d="M39.9999 61.9932C51.0352 61.9932 60.1133 53.2685 60.512 42.2404C60.683 37.5121 60.683 32.7805 60.512 28.0521C60.1133 17.0239 51.0352 8.29919 39.9999 8.29919C28.9646 8.29919 19.8865 17.0239 19.4877 28.052C19.3168 32.7803 19.3168 37.5119 19.4877 42.2402C19.8865 53.2685 28.9646 61.9932 39.9999 61.9932Z" fill="url(#paint13_linear_1413_4072)"/>
  <path d="M57.6039 27.953C57.5441 27.9042 57.0453 27.3588 56.7984 27.1997C56.5121 26.755 56.0626 26.4302 55.5335 26.3083C51.7035 25.4267 47.8293 25.4267 43.9995 26.3083C43.2869 26.4723 42.7176 27.0044 42.4989 27.7023C42.3537 28.1662 42.2329 28.6309 42.1313 29.096C41.5138 28.707 40.7838 28.4805 40.0001 28.4805C39.5808 28.4805 39.1777 28.5472 38.7982 28.667L37.2655 27.1997C36.9794 26.755 36.5297 26.4302 36.0006 26.3083C32.1706 25.4267 28.2964 25.4267 24.4666 26.3083C23.754 26.4723 23.1846 27.0044 22.9661 27.7023C22.9399 27.7858 22.9173 27.8694 22.8925 27.953H19.4927C19.4913 27.9861 19.4891 28.0189 19.4878 28.052C19.4876 28.0582 19.4875 28.0643 19.4872 28.0706C19.4707 28.5266 19.4572 28.9828 19.4439 29.4389C19.4329 29.8341 19.4227 30.2292 19.4136 30.6245C19.4136 30.6261 19.4136 30.6275 19.4135 30.6289L22.26 33.0992C22.325 34.4027 22.5596 35.7053 22.9659 37.0021C23.1127 37.4709 23.4185 37.8644 23.8191 38.1222L46.6031 60.9062C54.4514 58.2427 60.1968 50.9625 60.5121 42.2402C60.6831 37.5119 60.6831 32.7803 60.5121 28.052C60.5109 28.0189 60.5087 27.9861 60.5073 27.953H57.6039Z" fill="url(#paint14_linear_1413_4072)"/>
  <path d="M41.2654 45.612H38.7343C36.7059 45.612 35.1255 44.1164 35.3425 42.4022L36.6657 31.9459H43.3337L44.657 42.4022C44.8742 44.1164 43.2938 45.612 41.2654 45.612Z" fill="url(#paint15_linear_1413_4072)"/>
  <path d="M33.8015 31.9459C33.8015 33.58 32.4768 34.9047 30.8427 34.9047C29.2087 34.9047 27.8842 33.58 27.8842 31.9459C27.8842 30.3119 29.2089 28.9872 30.8427 28.9872C32.4769 28.9872 33.8015 30.3119 33.8015 31.9459Z" fill="url(#paint16_linear_1413_4072)"/>
  <path d="M32.1664 29.2992C32.3659 29.6975 32.4784 30.1469 32.4784 30.6226C32.4784 32.2567 31.1537 33.5814 29.5196 33.5814C29.0439 33.5814 28.5943 33.4689 28.1962 33.2694C28.682 34.239 29.6845 34.9045 30.8428 34.9045C32.4768 34.9045 33.8015 33.5798 33.8015 31.9458C33.8015 30.7877 33.1359 29.785 32.1664 29.2992Z" fill="url(#paint17_linear_1413_4072)"/>
  <path d="M52.1156 31.9459C52.1156 33.58 50.7909 34.9047 49.1568 34.9047C47.5228 34.9047 46.1982 33.58 46.1982 31.9459C46.1982 30.3119 47.5228 28.9872 49.1568 28.9872C50.791 28.9872 52.1156 30.3119 52.1156 31.9459Z" fill="url(#paint18_linear_1413_4072)"/>
  <path d="M50.4805 29.2992C50.68 29.6975 50.7925 30.1469 50.7925 30.6226C50.7925 32.2567 49.4677 33.5814 47.8337 33.5814C47.3579 33.5814 46.9084 33.4689 46.5103 33.2694C46.9961 34.239 47.9986 34.9045 49.1568 34.9045C50.7909 34.9045 52.1156 33.5798 52.1156 31.9458C52.1156 30.7877 51.45 29.785 50.4805 29.2992Z" fill="url(#paint19_linear_1413_4072)"/>
  <path d="M19.5454 34.9172L19.9255 29.2478C20.129 26.214 21.8706 23.4607 24.4832 21.9788C25.7785 21.2441 27.2248 20.8582 28.6781 20.8582H39.768C43.7975 20.8582 47.6237 19.2718 50.3641 16.4897L53.035 20.7602C53.6747 21.7831 54.5726 22.6358 55.6371 23.2285C57.8176 24.4425 59.2673 26.7308 59.4229 29.2489L59.6728 33.291C59.7196 34.0474 60.3497 34.6634 61.08 34.6634C61.688 34.6634 62.1876 34.2317 62.2904 33.6193L64.1018 22.8234C64.621 19.7289 64.7498 16.6187 64.4973 13.5619C64.1203 9.00016 59.6397 5.64768 55.1177 6.4389C49.3269 1.20486 41.4007 -1.00047 33.7743 0.423841L27.144 1.66212C21.133 2.78478 16.5229 7.91388 16.3381 13.9289L16.141 20.3424C16.0519 23.2447 16.1931 26.1875 16.5704 29.1438L17.3373 35.1551C17.4057 35.6914 17.8309 36.0764 18.3564 36.0764C18.9702 36.0765 19.5026 35.5564 19.5454 34.9172Z" fill="url(#paint20_linear_1413_4072)"/>
  <path d="M55.1178 6.4389C49.3269 1.20486 41.4007 -1.00047 33.7743 0.423841L27.144 1.66212C21.133 2.78478 16.5229 7.91388 16.3381 13.9289L16.141 20.3424C16.0519 23.2447 16.1931 26.1875 16.5704 29.1438L17.3373 35.1551C17.4057 35.6914 17.8309 36.0764 18.3566 36.0764C18.9704 36.0764 19.5028 35.5562 19.5456 34.917L19.9257 29.2477C20.1291 26.2138 21.8708 23.4605 24.4833 21.9787C25.7787 21.2439 27.225 20.858 28.6783 20.858H39.7682C43.7977 20.858 47.6239 19.2717 50.3643 16.4896C50.3639 16.4899 48.6629 9.44565 55.1178 6.4389Z" fill="url(#paint21_linear_1413_4072)"/>
  <path d="M23.6499 30.629H16.9237C16.1848 30.629 15.5857 30.0299 15.5857 29.2909C15.5857 28.5519 16.1848 27.9529 16.9237 27.9529H23.6499V30.629Z" fill="url(#paint22_linear_1413_4072)"/>
  <path d="M56.3501 30.629H63.0762C63.8152 30.629 64.4143 30.0299 64.4143 29.2909C64.4143 28.5519 63.8152 27.9529 63.0762 27.9529H56.3501V30.629Z" fill="url(#paint23_linear_1413_4072)"/>
  <path d="M38.1147 31.4032C38.491 30.7515 39.1934 30.3118 40 30.3118C40.8066 30.3118 41.509 30.7515 41.8854 31.4032H43.8584C43.3846 29.7173 41.8372 28.4807 39.9999 28.4807C38.1625 28.4807 36.6151 29.7173 36.1414 31.4032H38.1147Z" fill="url(#paint24_linear_1413_4072)"/>
  <path d="M36.4508 36.3303C36.2638 36.9273 35.7768 37.3825 35.1672 37.5229C31.8907 38.2771 28.5765 38.2771 25.2999 37.5229C24.6902 37.3825 24.2031 36.9273 24.0162 36.3303C23.1885 33.6876 23.1884 31.0172 24.0162 28.3744C24.2031 27.7773 24.6902 27.3221 25.2998 27.1817C28.5762 26.4275 31.8905 26.4275 35.1671 27.1817C35.7768 27.3221 36.2638 27.7773 36.4508 28.3744C37.2786 31.0173 37.2784 33.6878 36.4508 36.3303Z" fill="url(#paint25_linear_1413_4072)"/>
  <path d="M37.501 27.7023C37.2825 27.0044 36.7131 26.4723 36.0005 26.3083C32.1705 25.4267 28.2963 25.4267 24.4665 26.3083C23.7539 26.4723 23.1846 27.0044 22.9659 27.7023C21.9984 30.7916 21.9986 33.9131 22.9659 37.0022C23.1845 37.7001 23.7539 38.2322 24.4665 38.3963C28.2965 39.2778 32.1705 39.2778 36.0005 38.3963C36.7131 38.2322 37.2823 37.7001 37.501 37.0022C38.4685 33.9133 38.4685 30.7917 37.501 27.7023ZM35.5057 35.7255C35.3471 36.2317 34.9341 36.6178 34.4172 36.7368C31.6387 37.3764 28.8284 37.3764 26.05 36.7368C25.533 36.6178 25.12 36.2319 24.9614 35.7255C24.2596 33.4846 24.2594 31.2201 24.9614 28.979C25.12 28.4728 25.533 28.0868 26.0499 27.9677C28.8282 27.3282 31.6387 27.3282 34.4171 27.9677C34.9341 28.0868 35.3471 28.4727 35.5057 28.979C36.2077 31.2201 36.2075 33.4846 35.5057 35.7255Z" fill="url(#paint26_linear_1413_4072)"/>
  <path d="M55.9838 36.3303C55.7968 36.9273 55.3097 37.3825 54.7002 37.5229C51.4236 38.2771 48.1094 38.2771 44.8329 37.5229C44.2231 37.3825 43.7361 36.9273 43.5491 36.3303C42.7215 33.6876 42.7213 31.0172 43.5491 28.3744C43.7361 27.7773 44.2232 27.3221 44.8327 27.1817C48.1091 26.4275 51.4235 26.4275 54.7 27.1817C55.3097 27.3221 55.7968 27.7773 55.9838 28.3744C56.8115 31.0173 56.8115 33.6878 55.9838 36.3303Z" fill="url(#paint27_linear_1413_4072)"/>
  <path d="M57.0341 27.7023C56.8156 27.0044 56.2462 26.4723 55.5335 26.3083C51.7036 25.4267 47.8294 25.4267 43.9996 26.3083C43.2869 26.4723 42.7177 27.0044 42.499 27.7023C41.5315 30.7916 41.5317 33.9131 42.499 37.0022C42.7175 37.7001 43.2869 38.2322 43.9996 38.3963C47.8295 39.2778 51.7036 39.2778 55.5335 38.3963C56.2462 38.2322 56.8154 37.7001 57.0341 37.0022C58.0015 33.9133 58.0016 30.7917 57.0341 27.7023ZM55.0386 35.7255C54.88 36.2317 54.467 36.6178 53.9502 36.7368C51.1717 37.3764 48.3613 37.3764 45.5829 36.7368C45.0659 36.6178 44.6529 36.2319 44.4943 35.7255C43.7925 33.4846 43.7924 31.2201 44.4943 28.979C44.6529 28.4728 45.0659 28.0868 45.5828 27.9677C48.3611 27.3282 51.1717 27.3282 53.95 27.9677C54.467 28.0868 54.88 28.4727 55.0386 28.979C55.7406 31.2201 55.7404 33.4846 55.0386 35.7255Z" fill="url(#paint28_linear_1413_4072)"/>
  <path d="M45.6423 50.61C45.6381 50.6094 45.6339 50.6089 45.6296 50.6083C45.2938 50.563 44.9583 50.6816 44.7154 50.9178C43.3907 52.2066 41.7692 52.966 40.0169 52.966C38.2425 52.966 36.6026 52.1885 35.269 50.8707C35.031 50.6356 34.7015 50.5153 34.3691 50.554C34.3674 50.5542 34.3656 50.5545 34.3637 50.5547C33.863 50.6132 33.6249 51.4237 33.9587 51.9354C33.9884 51.9809 34.0185 52.0262 34.0486 52.0711C35.5288 54.2692 37.6538 55.6463 40.0168 55.6463C42.4055 55.6463 44.5528 54.2375 46.034 51.9964C46.0365 51.9926 46.039 51.9889 46.0416 51.9851C46.3744 51.4819 46.1371 50.6772 45.6423 50.61Z" fill="url(#paint29_linear_1413_4072)"/>
  <defs>
    <linearGradient id="paint0_linear_1413_4072" x1="39.9999" y1="68.8338" x2="39.9999" y2="80.3915" gradientUnits="userSpaceOnUse">
      <stop stop-color="#EDF5FF"/>
      <stop offset="1" stop-color="#D5E8FE"/>
    </linearGradient>
    <linearGradient id="paint1_linear_1413_4072" x1="53.2015" y1="81.7423" x2="38.6656" y2="40.7489" gradientUnits="userSpaceOnUse">
      <stop stop-color="#07485E" stop-opacity="0"/>
      <stop offset="0.2708" stop-color="#074459" stop-opacity="0.271"/>
      <stop offset="0.597" stop-color="#05394A" stop-opacity="0.597"/>
      <stop offset="0.9505" stop-color="#032632" stop-opacity="0.951"/>
      <stop offset="1" stop-color="#03232E"/>
    </linearGradient>
    <linearGradient id="paint2_linear_1413_4072" x1="47.8183" y1="69.0987" x2="24.9164" y2="50.9027" gradientUnits="userSpaceOnUse">
      <stop stop-color="#07485E" stop-opacity="0"/>
      <stop offset="0.2708" stop-color="#074459" stop-opacity="0.271"/>
      <stop offset="0.597" stop-color="#05394A" stop-opacity="0.597"/>
      <stop offset="0.9505" stop-color="#032632" stop-opacity="0.951"/>
      <stop offset="1" stop-color="#03232E"/>
    </linearGradient>
    <linearGradient id="paint3_linear_1413_4072" x1="40" y1="55.2173" x2="40" y2="73.7084" gradientUnits="userSpaceOnUse">
      <stop stop-color="#CBD0E4"/>
      <stop offset="1" stop-color="#6A7D83"/>
    </linearGradient>
    <linearGradient id="paint4_linear_1413_4072" x1="36.907" y1="72.8562" x2="42.5109" y2="79.8742" gradientUnits="userSpaceOnUse">
      <stop stop-color="#9AE1D3"/>
      <stop offset="1" stop-color="#80D1C1"/>
    </linearGradient>
    <linearGradient id="paint5_linear_1413_4072" x1="43.7042" y1="78.4687" x2="38.6066" y2="73.371" gradientUnits="userSpaceOnUse">
      <stop stop-color="#0B799D" stop-opacity="0"/>
      <stop offset="0.1739" stop-color="#117D9E" stop-opacity="0.174"/>
      <stop offset="0.414" stop-color="#2389A0" stop-opacity="0.414"/>
      <stop offset="0.6928" stop-color="#409CA3" stop-opacity="0.693"/>
      <stop offset="0.9986" stop-color="#69B7A8" stop-opacity="0.999"/>
      <stop offset="1" stop-color="#69B7A8"/>
    </linearGradient>
    <linearGradient id="paint6_linear_1413_4072" x1="39.9995" y1="68.4651" x2="39.9995" y2="76.3036" gradientUnits="userSpaceOnUse">
      <stop stop-color="#9AE1D3"/>
      <stop offset="1" stop-color="#80D1C1"/>
    </linearGradient>
    <linearGradient id="paint7_linear_1413_4072" x1="39.6912" y1="70.3697" x2="54.6386" y2="85.8734" gradientUnits="userSpaceOnUse">
      <stop stop-color="#0B799D" stop-opacity="0"/>
      <stop offset="0.1739" stop-color="#117D9E" stop-opacity="0.174"/>
      <stop offset="0.414" stop-color="#2389A0" stop-opacity="0.414"/>
      <stop offset="0.6928" stop-color="#409CA3" stop-opacity="0.693"/>
      <stop offset="0.9986" stop-color="#69B7A8" stop-opacity="0.999"/>
      <stop offset="1" stop-color="#69B7A8"/>
    </linearGradient>
    <linearGradient id="paint8_linear_1413_4072" x1="40" y1="58.9483" x2="40" y2="63.5517" gradientUnits="userSpaceOnUse">
      <stop stop-color="#FCE9CB"/>
      <stop offset="1" stop-color="#FFBD95"/>
    </linearGradient>
    <linearGradient id="paint9_linear_1413_4072" x1="31.3485" y1="61.2117" x2="34.5069" y2="66.4139" gradientUnits="userSpaceOnUse">
      <stop stop-color="#EDF5FF"/>
      <stop offset="1" stop-color="#D5E8FE"/>
    </linearGradient>
    <linearGradient id="paint10_linear_1413_4072" x1="47.325" y1="59.9187" x2="53.2925" y2="65.2627" gradientUnits="userSpaceOnUse">
      <stop stop-color="#EDF5FF"/>
      <stop offset="1" stop-color="#D5E8FE"/>
    </linearGradient>
    <linearGradient id="paint11_linear_1413_4072" x1="18.7894" y1="33.8533" x2="22.9919" y2="38.0558" gradientUnits="userSpaceOnUse">
      <stop stop-color="#FCE9CB"/>
      <stop offset="1" stop-color="#FFBD95"/>
    </linearGradient>
    <linearGradient id="paint12_linear_1413_4072" x1="59.1079" y1="33.8533" x2="63.3104" y2="38.0558" gradientUnits="userSpaceOnUse">
      <stop stop-color="#FCE9CB"/>
      <stop offset="1" stop-color="#FFBD95"/>
    </linearGradient>
    <linearGradient id="paint13_linear_1413_4072" x1="30.0688" y1="19.462" x2="47.8926" y2="47.611" gradientUnits="userSpaceOnUse">
      <stop stop-color="#FCE9CB"/>
      <stop offset="1" stop-color="#FFBD95"/>
    </linearGradient>
    <linearGradient id="paint14_linear_1413_4072" x1="43.2356" y1="52.5284" x2="37.1603" y2="9.42372" gradientUnits="userSpaceOnUse">
      <stop stop-color="#FAA68E" stop-opacity="0"/>
      <stop offset="1" stop-color="#C9766E"/>
    </linearGradient>
    <linearGradient id="paint15_linear_1413_4072" x1="39.9999" y1="34.2904" x2="39.9999" y2="60.536" gradientUnits="userSpaceOnUse">
      <stop stop-color="#FAA68E" stop-opacity="0"/>
      <stop offset="1" stop-color="#C9766E"/>
    </linearGradient>
    <linearGradient id="paint16_linear_1413_4072" x1="29.7359" y1="30.8389" x2="33.5679" y2="34.6709" gradientUnits="userSpaceOnUse">
      <stop stop-color="#8A7889"/>
      <stop offset="1" stop-color="#6E566E"/>
    </linearGradient>
    <linearGradient id="paint17_linear_1413_4072" x1="30.9457" y1="33.0799" x2="35.0125" y2="25.516" gradientUnits="userSpaceOnUse">
      <stop stop-color="#6E566E" stop-opacity="0"/>
      <stop offset="0.0471" stop-color="#6E566E" stop-opacity="0.047"/>
      <stop offset="1" stop-color="#6E566E"/>
    </linearGradient>
    <linearGradient id="paint18_linear_1413_4072" x1="48.05" y1="30.8389" x2="51.882" y2="34.6709" gradientUnits="userSpaceOnUse">
      <stop stop-color="#8A7889"/>
      <stop offset="1" stop-color="#6E566E"/>
    </linearGradient>
    <linearGradient id="paint19_linear_1413_4072" x1="49.2597" y1="33.0799" x2="53.3267" y2="25.516" gradientUnits="userSpaceOnUse">
      <stop stop-color="#6E566E" stop-opacity="0"/>
      <stop offset="0.0471" stop-color="#6E566E" stop-opacity="0.047"/>
      <stop offset="1" stop-color="#6E566E"/>
    </linearGradient>
    <linearGradient id="paint20_linear_1413_4072" x1="34.63" y1="17.7344" x2="50.6099" y2="31.3377" gradientUnits="userSpaceOnUse">
      <stop stop-color="#8A7889"/>
      <stop offset="1" stop-color="#6E566E"/>
    </linearGradient>
    <linearGradient id="paint21_linear_1413_4072" x1="30.6212" y1="11.3958" x2="39.9633" y2="27.2118" gradientUnits="userSpaceOnUse">
      <stop stop-color="#6E566E" stop-opacity="0"/>
      <stop offset="0.2944" stop-color="#674D66" stop-opacity="0.294"/>
      <stop offset="1" stop-color="#593B56"/>
    </linearGradient>
    <linearGradient id="paint22_linear_1413_4072" x1="19.6179" y1="28.391" x2="19.6179" y2="29.7568" gradientUnits="userSpaceOnUse">
      <stop stop-color="#8A7889"/>
      <stop offset="1" stop-color="#6E566E"/>
    </linearGradient>
    <linearGradient id="paint23_linear_1413_4072" x1="60.3821" y1="28.391" x2="60.3821" y2="29.7568" gradientUnits="userSpaceOnUse">
      <stop stop-color="#8A7889"/>
      <stop offset="1" stop-color="#6E566E"/>
    </linearGradient>
    <linearGradient id="paint24_linear_1413_4072" x1="40" y1="28.959" x2="40" y2="30.4506" gradientUnits="userSpaceOnUse">
      <stop stop-color="#8A7889"/>
      <stop offset="1" stop-color="#6E566E"/>
    </linearGradient>
    <linearGradient id="paint25_linear_1413_4072" x1="31.6151" y1="36.0826" x2="27.9989" y2="26.319" gradientUnits="userSpaceOnUse">
      <stop stop-color="white" stop-opacity="0"/>
      <stop offset="1" stop-color="white"/>
    </linearGradient>
    <linearGradient id="paint26_linear_1413_4072" x1="26.1804" y1="28.2992" x2="34.5374" y2="36.6562" gradientUnits="userSpaceOnUse">
      <stop stop-color="#8A7889"/>
      <stop offset="1" stop-color="#6E566E"/>
    </linearGradient>
    <linearGradient id="paint27_linear_1413_4072" x1="51.1482" y1="36.0826" x2="47.532" y2="26.319" gradientUnits="userSpaceOnUse">
      <stop stop-color="white" stop-opacity="0"/>
      <stop offset="1" stop-color="white"/>
    </linearGradient>
    <linearGradient id="paint28_linear_1413_4072" x1="45.7133" y1="28.2992" x2="54.0703" y2="36.6562" gradientUnits="userSpaceOnUse">
      <stop stop-color="#8A7889"/>
      <stop offset="1" stop-color="#6E566E"/>
    </linearGradient>
    <linearGradient id="paint29_linear_1413_4072" x1="40" y1="55.0687" x2="40" y2="50.3901" gradientUnits="userSpaceOnUse">
      <stop stop-color="#FF9690"/>
      <stop offset="1" stop-color="#F9545B"/>
    </linearGradient>
  </defs>
</svg>