<svg width="68" height="58" viewBox="0 0 68 58" fill="none" xmlns="http://www.w3.org/2000/svg">
<g id="Group">
<g id="Group_2">
<g id="Group_3">
<path id="Vector" d="M28.2982 43.4176V31.4034C28.2982 28.3538 25.826 25.8817 22.7764 25.8817H16.5717C9.43058 25.8817 3.6416 31.6706 3.6416 38.8118L7.01761 36.1795C9.34984 34.361 12.2227 33.3733 15.1801 33.3733H18.9429C20.3405 33.3733 21.4733 34.5061 21.4733 35.9037V41.2382C21.4733 43.7247 23.489 45.7404 25.9755 45.7404C27.2582 45.7404 28.2982 44.7004 28.2982 43.4176Z" fill="url(#paint0_linear_1488_13281)"/>
<path id="Vector_2" d="M35.8846 40.4528C35.8632 39.3521 35.3206 38.3793 34.4937 37.7706C33.6676 37.1624 33.3752 36.0624 33.7296 35.0997C33.8873 34.6714 33.9946 34.1961 33.9946 33.6954C33.9946 31.8114 32.4663 30.284 30.5822 30.284H20.777C20.7819 30.284 20.7867 30.2844 20.7916 30.2844H11.1002C9.05887 30.2844 7.17481 30.9577 5.65818 32.0944H1.61646C1.04677 32.0944 0.584961 32.5562 0.584961 33.1259V51.8556C0.584961 52.4205 1.03913 52.8886 1.60405 52.8871C2.84791 52.8838 4.05044 53.3763 4.90504 54.2799C6.82879 56.3138 9.55273 57.5828 12.5734 57.5828H26.6753V57.582H28.9925C30.9066 57.582 32.509 56.0156 32.4717 54.1019C32.4627 53.6394 32.3508 53.1986 32.1878 52.7978C31.7867 51.8107 32.0573 50.6756 32.9005 50.0243C33.7269 49.386 34.2599 48.3905 34.2382 47.2775C34.2291 46.8093 34.1077 46.3644 33.9314 45.9606C33.497 44.9667 33.7824 43.8256 34.6226 43.1393C35.4056 42.4997 35.9054 41.5315 35.8846 40.4528Z" fill="url(#paint1_linear_1488_13281)"/>
<path id="Vector_3" d="M0.584961 51.8556C0.584961 52.4205 1.03913 52.8886 1.60405 52.8871C2.84791 52.8838 4.05044 53.3763 4.90504 54.2799C6.82879 56.3139 9.55273 57.5828 12.5734 57.5828H26.6753V57.582H28.9925C30.9065 57.582 32.509 56.0156 32.4717 54.1019C32.4627 53.6394 32.3508 53.1986 32.1878 52.7978C31.7867 51.8107 32.0573 50.6757 32.9005 50.0243C33.7269 49.386 34.2599 48.3905 34.2382 47.2775C34.2294 46.8202 34.1129 46.3854 33.9432 45.9892H0.584961V51.8556Z" fill="url(#paint2_linear_1488_13281)"/>
</g>
<g id="Group_4">
<path id="Vector_4" d="M41.3247 30.2844H56.8996C58.941 30.2844 60.825 30.9577 62.3417 32.0944H66.3834C66.9531 32.0944 67.4149 32.5562 67.4149 33.1259V51.8556C67.4149 52.4253 66.9531 52.8871 66.3834 52.8871C65.1439 52.8871 63.9467 53.3793 63.0949 54.2799C61.1712 56.3139 58.4472 57.5828 55.4265 57.5828H41.3247V30.2844Z" fill="url(#paint3_linear_1488_13281)"/>
<path id="Vector_5" d="M41.3247 57.5824H55.4265C61.2561 57.5824 65.9814 52.857 65.9814 47.0274V39.3643C65.9814 34.3496 61.9157 30.2838 56.9001 30.2838H41.3247V57.5824Z" fill="url(#paint4_linear_1488_13281)"/>
<g id="Group_5">
<path id="Vector_6" d="M37.241 50.7577H43.6807C45.5653 50.7577 47.0931 49.2299 47.0931 47.3453C47.0931 45.4607 45.5653 43.9329 43.6807 43.9329H37.1736C35.3122 43.9329 33.7979 45.4239 33.7619 47.2776C33.7245 49.1913 35.3269 50.7577 37.241 50.7577Z" fill="url(#paint5_linear_1488_13281)"/>
</g>
<path id="Vector_7" d="M42.4961 45.4346C42.8356 45.6288 43.2285 45.7404 43.6476 45.7404C46.1341 45.7404 48.1498 43.7247 48.1498 41.2382V35.9037C48.1498 34.5063 49.2826 33.3733 50.6802 33.3733H54.4428C57.4003 33.3733 60.2731 34.3609 62.6054 36.1795L65.9619 38.7966C65.9735 38.9847 65.9814 39.1739 65.9814 39.3649V47.0275C65.9814 52.8567 61.256 57.5821 55.4267 57.5821H54.6436L42.4961 45.4346Z" fill="url(#paint6_linear_1488_13281)"/>
<g id="Group_6">
<path id="Vector_8" d="M37.4178 37.1079H41.3248V36.1821C41.3248 32.9247 43.9656 30.2838 47.223 30.2838H37.4178C35.5337 30.2838 34.0054 31.8113 34.0054 33.6953C34.0054 35.5805 35.5337 37.1079 37.4178 37.1079Z" fill="url(#paint7_linear_1488_13281)"/>
</g>
<path id="Vector_9" d="M35.5946 43.9328H43.6806C45.5653 43.9328 47.0931 42.405 47.0931 40.5204C47.0931 38.6358 45.5653 37.108 43.6806 37.108H35.5273C33.6658 37.108 32.1515 38.599 32.1154 40.4528C32.0783 42.3664 33.6806 43.9328 35.5946 43.9328Z" fill="url(#paint8_linear_1488_13281)"/>
<path id="Vector_10" d="M39.0074 57.5821H43.6804C45.565 57.5821 47.0928 56.0543 47.0928 54.1697C47.0928 52.2851 45.565 50.7573 43.6804 50.7573H38.9399C37.0784 50.7573 35.5641 52.2483 35.528 54.1021C35.4909 56.0157 37.0933 57.5821 39.0074 57.5821Z" fill="url(#paint9_linear_1488_13281)"/>
<path id="Vector_11" d="M41.3252 43.4176V31.4034C41.3252 28.3538 43.7974 25.8817 46.847 25.8817H53.0517C60.1928 25.8817 65.9818 31.6706 65.9818 38.8118L62.6058 36.1795C60.2735 34.361 57.4007 33.3733 54.4432 33.3733H50.6804C49.2829 33.3733 48.15 34.5061 48.15 35.9037V41.2382C48.15 43.7247 46.1344 45.7404 43.6479 45.7404C42.365 45.7404 41.3252 44.7004 41.3252 43.4176Z" fill="url(#paint10_linear_1488_13281)"/>
<path id="Vector_12" d="M48.1499 35.9037V35.2245C48.1499 31.8261 50.9048 29.0712 54.3032 29.0712H57.3217C61.0542 29.0712 64.3601 31.5078 65.4354 35.0821C65.7906 36.2631 65.9815 37.5151 65.9815 38.8118L62.6055 36.1795C60.2733 34.361 57.4004 33.3733 54.443 33.3733H50.6803C49.2827 33.3733 48.1499 34.5061 48.1499 35.9037Z" fill="url(#paint11_linear_1488_13281)"/>
<path id="Vector_13" d="M48.7451 42.8626C48.7451 39.2639 50.0103 35.9614 52.1191 33.3733H54.4429C57.4003 33.3733 60.2732 34.3609 62.6054 36.1795L65.9619 38.7966C65.9735 38.9847 65.9814 39.1739 65.9814 39.3649V47.0275C65.9814 52.2214 62.2298 56.539 57.2884 57.4184C50.8158 55.7406 48.7451 49.86 48.7451 42.8626Z" fill="url(#paint12_linear_1488_13281)"/>
</g>
</g>
<g id="Group_7">
<g id="Group_8">
<g id="Group_9">
<path id="Vector_14" d="M41.562 9.98933C40.2917 9.46478 39.6869 8.00979 40.2115 6.73948L42.1862 1.95636C42.7108 0.686045 44.1658 0.0814381 45.4361 0.605849C46.7064 1.13026 47.3111 2.58538 46.7866 3.8557L44.8118 8.63881C44.2874 9.90913 42.8323 10.5137 41.562 9.98933Z" fill="url(#paint13_linear_1488_13281)"/>
</g>
</g>
<g id="Group_10">
<g id="Group_11">
<path id="Vector_15" d="M6.34129 16.8524C6.86584 15.582 8.32082 14.9773 9.59114 15.5018L14.3743 17.4766C15.6446 18.0011 16.2493 19.4561 15.7248 20.7264C15.2004 21.9968 13.7452 22.6014 12.4749 22.077L7.6918 20.1022C6.42149 19.5778 5.81688 18.1227 6.34129 16.8524Z" fill="url(#paint14_linear_1488_13281)"/>
</g>
</g>
<g id="Group_12">
<g id="Group_13">
<path id="Vector_16" d="M52.282 20.6843C51.7546 19.4152 52.3559 17.9587 53.625 17.4313L58.4035 15.4455C59.6726 14.9181 61.1291 15.5194 61.6565 16.7885C62.1839 18.0576 61.5825 19.5141 60.3135 20.0415L55.535 22.0273C54.2659 22.5547 52.8094 21.9534 52.282 20.6843Z" fill="url(#paint15_linear_1488_13281)"/>
</g>
</g>
<g id="Group_14">
<g id="Group_15">
<path id="Vector_17" d="M22.5239 0.632303C23.793 0.104891 25.2495 0.706225 25.7769 1.97531L27.7627 6.75379C28.2901 8.02288 27.6888 9.47937 26.4197 10.0068C25.1506 10.5342 23.6941 9.93286 23.1667 8.66377L21.1809 3.88529C20.6535 2.61606 21.2548 1.15971 22.5239 0.632303Z" fill="url(#paint16_linear_1488_13281)"/>
</g>
</g>
</g>
</g>
<defs>
<linearGradient id="paint0_linear_1488_13281" x1="13.214" y1="29.8754" x2="18.1318" y2="37.8074" gradientUnits="userSpaceOnUse">
<stop stop-color="#F1B0A2"/>
<stop offset="1" stop-color="#CA6E59"/>
</linearGradient>
<linearGradient id="paint1_linear_1488_13281" x1="12.9832" y1="36.1507" x2="24.7226" y2="53.2045" gradientUnits="userSpaceOnUse">
<stop stop-color="#F1B0A2"/>
<stop offset="1" stop-color="#CA6E59"/>
</linearGradient>
<linearGradient id="paint2_linear_1488_13281" x1="17.4119" y1="50.8675" x2="17.4119" y2="58.1292" gradientUnits="userSpaceOnUse">
<stop stop-color="#CA6E59" stop-opacity="0"/>
<stop offset="1" stop-color="#883F2E"/>
</linearGradient>
<linearGradient id="paint3_linear_1488_13281" x1="40.9424" y1="32.1416" x2="63.8404" y2="54.3009" gradientUnits="userSpaceOnUse">
<stop stop-color="#FFDFCF"/>
<stop offset="1" stop-color="#FFA78F"/>
</linearGradient>
<linearGradient id="paint4_linear_1488_13281" x1="51.4866" y1="43.9331" x2="41.7944" y2="43.9331" gradientUnits="userSpaceOnUse">
<stop stop-color="#FFB09E" stop-opacity="0"/>
<stop offset="1" stop-color="#EC806B"/>
</linearGradient>
<linearGradient id="paint5_linear_1488_13281" x1="40.4271" y1="43.9466" x2="40.4271" y2="51.4391" gradientUnits="userSpaceOnUse">
<stop stop-color="#FFDFCF"/>
<stop offset="1" stop-color="#FFA78F"/>
</linearGradient>
<linearGradient id="paint6_linear_1488_13281" x1="55.1608" y1="44.978" x2="44.2571" y2="39.4113" gradientUnits="userSpaceOnUse">
<stop stop-color="#FFB09E" stop-opacity="0"/>
<stop offset="1" stop-color="#EC806B"/>
</linearGradient>
<linearGradient id="paint7_linear_1488_13281" x1="40.6142" y1="28.9156" x2="40.6142" y2="38.9644" gradientUnits="userSpaceOnUse">
<stop stop-color="#FFDFCF"/>
<stop offset="1" stop-color="#FFA78F"/>
</linearGradient>
<linearGradient id="paint8_linear_1488_13281" x1="39.604" y1="37.1218" x2="39.604" y2="44.6141" gradientUnits="userSpaceOnUse">
<stop stop-color="#FFDFCF"/>
<stop offset="1" stop-color="#FFA78F"/>
</linearGradient>
<linearGradient id="paint9_linear_1488_13281" x1="41.3101" y1="50.7709" x2="41.3101" y2="58.2634" gradientUnits="userSpaceOnUse">
<stop stop-color="#FFDFCF"/>
<stop offset="1" stop-color="#FFA78F"/>
</linearGradient>
<linearGradient id="paint10_linear_1488_13281" x1="43.76" y1="29.2924" x2="68.9153" y2="53.6363" gradientUnits="userSpaceOnUse">
<stop stop-color="#FFDFCF"/>
<stop offset="1" stop-color="#FFA78F"/>
</linearGradient>
<linearGradient id="paint11_linear_1488_13281" x1="54.192" y1="33.9415" x2="30.8859" y2="33.9415" gradientUnits="userSpaceOnUse">
<stop stop-color="#F89580" stop-opacity="0"/>
<stop offset="0.9972" stop-color="#C5715A"/>
</linearGradient>
<linearGradient id="paint12_linear_1488_13281" x1="58.4686" y1="46.1895" x2="37.3844" y2="31.5256" gradientUnits="userSpaceOnUse">
<stop stop-color="#F89580" stop-opacity="0"/>
<stop offset="0.9972" stop-color="#C5715A"/>
</linearGradient>
<linearGradient id="paint13_linear_1488_13281" x1="41.2735" y1="4.33933" x2="47.6601" y2="6.97966" gradientUnits="userSpaceOnUse">
<stop stop-color="#CCFC5C"/>
<stop offset="0.1591" stop-color="#C6F95A"/>
<stop offset="0.3653" stop-color="#B6F053"/>
<stop offset="0.5975" stop-color="#9BE248"/>
<stop offset="0.8469" stop-color="#76CF38"/>
<stop offset="1" stop-color="#5CC12D"/>
</linearGradient>
<linearGradient id="paint14_linear_1488_13281" x1="12.0449" y1="16.1968" x2="9.4046" y2="22.5832" gradientUnits="userSpaceOnUse">
<stop stop-color="#CCFC5C"/>
<stop offset="0.1591" stop-color="#C6F95A"/>
<stop offset="0.3653" stop-color="#B6F053"/>
<stop offset="0.5975" stop-color="#9BE248"/>
<stop offset="0.8469" stop-color="#76CF38"/>
<stop offset="1" stop-color="#5CC12D"/>
</linearGradient>
<linearGradient id="paint15_linear_1488_13281" x1="56.4438" y1="16.8757" x2="59.098" y2="23.2556" gradientUnits="userSpaceOnUse">
<stop stop-color="#CCFC5C"/>
<stop offset="0.1591" stop-color="#C6F95A"/>
<stop offset="0.3653" stop-color="#B6F053"/>
<stop offset="0.5975" stop-color="#9BE248"/>
<stop offset="0.8469" stop-color="#76CF38"/>
<stop offset="1" stop-color="#5CC12D"/>
</linearGradient>
<linearGradient id="paint16_linear_1488_13281" x1="26.5359" y1="5.0867" x2="20.156" y2="7.74096" gradientUnits="userSpaceOnUse">
<stop stop-color="#CCFC5C"/>
<stop offset="0.1591" stop-color="#C6F95A"/>
<stop offset="0.3653" stop-color="#B6F053"/>
<stop offset="0.5975" stop-color="#9BE248"/>
<stop offset="0.8469" stop-color="#76CF38"/>
<stop offset="1" stop-color="#5CC12D"/>
</linearGradient>
</defs>
</svg>
