<svg width="127" height="127" viewBox="0 0 127 127" fill="none" xmlns="http://www.w3.org/2000/svg">
<g id="bolsa-de-papel 1">
<g id="Group">
<g id="Group_2">
<path id="Vector" d="M106.58 90.7024V29.0593C106.58 24.7959 103.124 21.3397 98.8604 21.3397H28.1388C23.8753 21.3397 20.4192 24.7959 20.4192 29.0593V90.7024C20.4192 94.9218 19.7717 99.1165 18.4993 103.139L12.8074 121.135C11.8888 124.039 14.0575 127 17.1042 127H109.895C112.942 127 115.111 124.039 114.192 121.135L108.5 103.139C107.228 99.1165 106.58 94.922 106.58 90.7024Z" fill="url(#paint0_linear_24_311026)"/>
<g id="Group_3">
<path id="Vector_2" d="M38.2229 37.4408C41.4353 37.4408 44.0395 34.8366 44.0395 31.6242C44.0395 28.4118 41.4353 25.8076 38.2229 25.8076C35.0104 25.8076 32.4062 28.4118 32.4062 31.6242C32.4062 34.8366 35.0104 37.4408 38.2229 37.4408Z" fill="url(#paint1_linear_24_311026)"/>
<path id="Vector_3" d="M88.7766 37.4408C91.989 37.4408 94.5932 34.8366 94.5932 31.6242C94.5932 28.4118 91.989 25.8076 88.7766 25.8076C85.5641 25.8076 82.96 28.4118 82.96 31.6242C82.96 34.8366 85.5641 37.4408 88.7766 37.4408Z" fill="url(#paint2_linear_24_311026)"/>
</g>
<path id="Vector_4" d="M20.4194 29.0593V90.7024C20.4194 92.8375 20.253 94.9659 19.9243 97.0691H107.075C106.747 94.9659 106.58 92.8372 106.58 90.7024V29.0593C106.58 24.7959 103.124 21.3397 98.8605 21.3397H28.139C23.8755 21.3397 20.4194 24.7959 20.4194 29.0593Z" fill="url(#paint3_linear_24_311026)"/>
<path id="Vector_5" d="M109.895 127H63.2011L44.9629 108.762H63.4401V61.0969C63.4601 61.0994 63.48 61.0994 63.4999 61.0994C66.9638 61.0994 69.7702 58.293 69.7702 54.8291C69.7702 51.3652 66.9638 48.5588 63.4999 48.5588C63.48 48.5588 63.4601 48.5588 63.4401 48.5613V21.3409H98.8607C103.124 21.3409 106.58 24.7948 106.58 29.0606V90.7029C106.58 94.9213 107.228 99.1172 108.5 103.139L114.193 121.136C115.111 124.039 112.943 127 109.895 127Z" fill="url(#paint4_linear_24_311026)"/>
<path id="Vector_6" d="M12.8074 121.135C11.8888 124.039 14.0575 127 17.1042 127H109.895C112.942 127 115.111 124.039 114.192 121.135L109.879 107.501H17.1199L12.8074 121.135Z" fill="url(#paint5_linear_24_311026)"/>
</g>
<path id="Vector_7" d="M63.4996 61.1002C66.963 61.1002 69.7706 58.2926 69.7706 54.8292C69.7706 51.3658 66.963 48.5581 63.4996 48.5581C60.0362 48.5581 57.2285 51.3658 57.2285 54.8292C57.2285 58.2926 60.0362 61.1002 63.4996 61.1002Z" fill="url(#paint6_linear_24_311026)"/>
<g id="Group_4">
<path id="Vector_8" d="M84.4882 103.728V58.5232C84.4882 56.3632 83.397 54.3484 81.5862 53.1683L66.9901 43.6555C64.8682 42.2714 62.1307 42.2714 60.0089 43.6555L45.4128 53.1683C43.6019 54.3481 42.5107 56.3632 42.5107 58.5232V103.728C42.5107 105.772 43.4682 107.592 44.9623 108.762C46.0466 109.612 47.4167 110.121 48.9036 110.12H78.0956C79.6164 110.12 81.0132 109.591 82.1086 108.704C83.5619 107.532 84.4882 105.739 84.4882 103.728ZM63.4996 59.7904C60.927 59.789 58.8417 57.7037 58.8417 55.1325C58.8432 52.5599 60.9285 50.4746 63.4996 50.4746C66.0707 50.4746 68.156 52.5599 68.1575 55.1325C68.1575 57.7039 66.0722 59.7892 63.4996 59.7904Z" fill="url(#paint7_linear_24_311026)"/>
<path id="Vector_9" d="M42.5112 90.1797V103.728C42.5112 105.772 43.4687 107.591 44.9628 108.762C45.8371 109.447 46.8992 109.905 48.0566 110.059H78.9423C80.1324 109.902 81.2206 109.423 82.1088 108.704C83.5619 107.532 84.4885 105.738 84.4885 103.728V90.1797H42.5112Z" fill="url(#paint8_linear_24_311026)"/>
<g id="Group_5">
<path id="Vector_10" d="M74.8409 64.9507C74.3242 64.0037 73.2059 63.428 72.1675 63.428C71.2625 63.428 70.4579 63.8304 70.0558 64.685L52.4075 100.937C52.2566 101.239 52.156 101.591 52.156 101.892C52.156 102.762 52.6859 103.703 53.5779 104.201L59.4971 110.12H78.0956C79.6164 110.12 81.0131 109.59 82.1086 108.703C83.5616 107.532 84.4882 105.738 84.4882 103.727V74.5982L74.8409 64.9507Z" fill="url(#paint9_linear_24_311026)"/>
<path id="Vector_11" d="M58.3246 68.0119C56.9886 66.2165 54.6787 65.4896 52.0049 65.4896C47.7313 65.4896 44.4629 67.2997 44.4629 72.2774V79.4173C44.4629 81.9857 45.3345 83.7086 46.7638 84.7769L72.1071 110.12H78.0957C79.6165 110.12 81.0132 109.591 82.1087 108.704C83.5617 107.532 84.4883 105.738 84.4883 103.728V94.1754L58.3246 68.0119Z" fill="url(#paint10_linear_24_311026)"/>
<path id="Vector_12" d="M82.1085 108.704C83.5615 107.532 84.4881 105.738 84.4881 103.728V87.2789L81.3605 84.1512C80.0245 82.3557 77.7146 81.6288 75.0408 81.6288C70.7672 81.6288 67.4988 83.439 67.4988 88.4166V95.5565C67.4988 98.1247 68.3703 99.8479 69.7995 100.916L78.9417 110.058C80.132 109.901 81.2203 109.423 82.1085 108.704Z" fill="url(#paint11_linear_24_311026)"/>
<g id="Group_6">
<path id="Vector_13" d="M44.259 79.2134V72.0735C44.259 67.0958 47.5274 65.2857 51.8011 65.2857C56.0247 65.2857 59.3434 67.0958 59.3434 72.0735V79.2134C59.3434 84.191 56.0247 86.0011 51.8011 86.0011C47.5272 86.0011 44.259 84.191 44.259 79.2134ZM54.3152 72.0735C54.3152 70.4142 53.36 69.66 51.8011 69.66C50.2425 69.66 49.3375 70.4142 49.3375 72.0735V79.2134C49.3375 80.8726 50.2425 81.6268 51.8011 81.6268C53.36 81.6268 54.3152 80.8726 54.3152 79.2134V72.0735ZM74.93 65.8891C74.93 66.1909 74.8797 66.5427 74.7288 66.8445L57.0303 103.097C56.6781 103.851 55.7229 104.354 54.7677 104.354C53.0581 104.354 51.9517 102.946 51.9517 101.689C51.9517 101.387 52.0524 101.035 52.2033 100.734L69.8515 64.4816C70.2539 63.627 71.0583 63.2245 71.9635 63.2245C73.3712 63.2241 74.93 64.2801 74.93 65.8891ZM67.3377 95.4036V88.2637C67.3377 83.2861 70.6061 81.4759 74.8797 81.4759C79.1034 81.4759 82.4218 83.2861 82.4218 88.2637V95.4036C82.4218 100.382 79.1034 102.191 74.8797 102.191C70.6061 102.191 67.3377 100.382 67.3377 95.4036ZM77.3938 88.2637C77.3938 86.6045 76.4386 85.8502 74.88 85.8502C73.3214 85.8502 72.4162 86.6045 72.4162 88.2637V95.4036C72.4162 97.0628 73.3214 97.8171 74.88 97.8171C76.4386 97.8171 77.3938 97.0631 77.3938 95.4036V88.2637Z" fill="url(#paint12_linear_24_311026)"/>
</g>
</g>
<path id="Vector_14" d="M68.1574 55.1324C68.1574 57.7035 66.0721 59.7888 63.4995 59.7903H84.4881V58.5231C84.4881 56.3631 83.3969 54.3483 81.5861 53.1681L66.99 43.6554C65.9292 42.9633 64.7142 42.6172 63.4995 42.6172V50.4745C66.0706 50.4748 68.1562 52.56 68.1574 55.1324Z" fill="url(#paint13_linear_24_311026)"/>
</g>
<path id="Vector_15" d="M88.8147 31.6242C87.0957 31.6242 85.7019 30.2305 85.7019 28.5115V20.3215C85.7019 12.5491 79.3783 6.22549 71.6057 6.22549H55.3935C47.6209 6.22549 41.2975 12.5491 41.2975 20.3215V28.5115C41.2975 30.2305 39.9037 31.6242 38.1848 31.6242C36.4655 31.6242 35.072 30.2305 35.072 28.5115V20.3215C35.072 9.11611 44.1884 0 55.3938 0H71.6059C82.8113 0 91.9274 9.11611 91.9274 20.3215V28.5115C91.9274 30.2305 90.5337 31.6242 88.8147 31.6242Z" fill="url(#paint14_linear_24_311026)"/>
<path id="Vector_16" d="M63.4995 52.3422C62.468 52.3422 61.6318 51.5062 61.6318 50.4746V21.3398C61.6318 20.3081 62.468 19.4721 63.4995 19.4721C64.5312 19.4721 65.3671 20.3081 65.3671 21.3398V50.4746C65.3671 51.5062 64.5312 52.3422 63.4995 52.3422Z" fill="url(#paint15_linear_24_311026)"/>
</g>
</g>
<defs>
<linearGradient id="paint0_linear_24_311026" x1="33.5657" y1="53.4506" x2="109.268" y2="116.203" gradientUnits="userSpaceOnUse">
<stop stop-color="#FEE45A"/>
<stop offset="1" stop-color="#FEA613"/>
</linearGradient>
<linearGradient id="paint1_linear_24_311026" x1="47.0155" y1="40.4168" x2="31.1612" y2="24.5625" gradientUnits="userSpaceOnUse">
<stop stop-color="#FEE45A"/>
<stop offset="1" stop-color="#FEA613"/>
</linearGradient>
<linearGradient id="paint2_linear_24_311026" x1="97.5692" y1="40.4168" x2="81.7146" y2="24.5625" gradientUnits="userSpaceOnUse">
<stop stop-color="#FEE45A"/>
<stop offset="1" stop-color="#FEA613"/>
</linearGradient>
<linearGradient id="paint3_linear_24_311026" x1="53.9526" y1="50.6292" x2="115.709" y2="123.841" gradientUnits="userSpaceOnUse">
<stop stop-color="#FEA613" stop-opacity="0"/>
<stop offset="1" stop-color="#E94444"/>
</linearGradient>
<linearGradient id="paint4_linear_24_311026" x1="97.7832" y1="77.0384" x2="36.0263" y2="66.2477" gradientUnits="userSpaceOnUse">
<stop stop-color="#FEA613" stop-opacity="0"/>
<stop offset="1" stop-color="#E94444"/>
</linearGradient>
<linearGradient id="paint5_linear_24_311026" x1="63.4998" y1="114.722" x2="63.4998" y2="130.937" gradientUnits="userSpaceOnUse">
<stop stop-color="#FEA613" stop-opacity="0"/>
<stop offset="1" stop-color="#E94444"/>
</linearGradient>
<linearGradient id="paint6_linear_24_311026" x1="69.2044" y1="60.5337" x2="56.5041" y2="47.8335" gradientUnits="userSpaceOnUse">
<stop stop-color="#FEA613" stop-opacity="0"/>
<stop offset="1" stop-color="#E94444"/>
</linearGradient>
<linearGradient id="paint7_linear_24_311026" x1="42.1295" y1="59.7558" x2="88.8376" y2="106.464" gradientUnits="userSpaceOnUse">
<stop stop-color="#FEDBBD"/>
<stop offset="1" stop-color="#FD3581"/>
</linearGradient>
<linearGradient id="paint8_linear_24_311026" x1="63.4998" y1="96.4241" x2="63.4998" y2="106.883" gradientUnits="userSpaceOnUse">
<stop stop-color="#FE646F" stop-opacity="0"/>
<stop offset="0.2966" stop-color="#FC616A" stop-opacity="0.297"/>
<stop offset="0.6214" stop-color="#F5575D" stop-opacity="0.621"/>
<stop offset="0.9585" stop-color="#EB4747" stop-opacity="0.959"/>
<stop offset="1" stop-color="#E94444"/>
</linearGradient>
<linearGradient id="paint9_linear_24_311026" x1="81.0199" y1="95.8289" x2="61.3473" y2="83.7515" gradientUnits="userSpaceOnUse">
<stop stop-color="#FE646F" stop-opacity="0"/>
<stop offset="0.2966" stop-color="#FC616A" stop-opacity="0.297"/>
<stop offset="0.6214" stop-color="#F5575D" stop-opacity="0.621"/>
<stop offset="0.9585" stop-color="#EB4747" stop-opacity="0.959"/>
<stop offset="1" stop-color="#E94444"/>
</linearGradient>
<linearGradient id="paint10_linear_24_311026" x1="73.6149" y1="94.4175" x2="43.2345" y2="74.3712" gradientUnits="userSpaceOnUse">
<stop stop-color="#FE646F" stop-opacity="0"/>
<stop offset="0.2966" stop-color="#FC616A" stop-opacity="0.297"/>
<stop offset="0.6214" stop-color="#F5575D" stop-opacity="0.621"/>
<stop offset="0.9585" stop-color="#EB4747" stop-opacity="0.959"/>
<stop offset="1" stop-color="#E94444"/>
</linearGradient>
<linearGradient id="paint11_linear_24_311026" x1="99.8788" y1="105.251" x2="71.9886" y2="93.1742" gradientUnits="userSpaceOnUse">
<stop stop-color="#FE646F" stop-opacity="0"/>
<stop offset="0.2966" stop-color="#FC616A" stop-opacity="0.297"/>
<stop offset="0.6214" stop-color="#F5575D" stop-opacity="0.621"/>
<stop offset="0.9585" stop-color="#EB4747" stop-opacity="0.959"/>
<stop offset="1" stop-color="#E94444"/>
</linearGradient>
<linearGradient id="paint12_linear_24_311026" x1="53.5041" y1="64.6039" x2="63.9473" y2="84.7647" gradientUnits="userSpaceOnUse">
<stop stop-color="#EAF6FF"/>
<stop offset="1" stop-color="#B3DAFE"/>
</linearGradient>
<linearGradient id="paint13_linear_24_311026" x1="72.3549" y1="56.0874" x2="61.481" y2="43.7193" gradientUnits="userSpaceOnUse">
<stop stop-color="#FE646F" stop-opacity="0"/>
<stop offset="0.2966" stop-color="#FC616A" stop-opacity="0.297"/>
<stop offset="0.6214" stop-color="#F5575D" stop-opacity="0.621"/>
<stop offset="0.9585" stop-color="#EB4747" stop-opacity="0.959"/>
<stop offset="1" stop-color="#E94444"/>
</linearGradient>
<linearGradient id="paint14_linear_24_311026" x1="57.2656" y1="-2.23869" x2="66.3549" y2="35.1143" gradientUnits="userSpaceOnUse">
<stop stop-color="#8AC9FE"/>
<stop offset="1" stop-color="#814AA0"/>
</linearGradient>
<linearGradient id="paint15_linear_24_311026" x1="61.6321" y1="35.9072" x2="65.3674" y2="35.9072" gradientUnits="userSpaceOnUse">
<stop stop-color="#EAF6FF"/>
<stop offset="1" stop-color="#B3DAFE"/>
</linearGradient>
</defs>
</svg>
