<svg width="127" height="127" viewBox="0 0 127 127" fill="none" xmlns="http://www.w3.org/2000/svg">
<g id="chequeo 1" clip-path="url(#clip0_24_311052)">
<path id="Vector" d="M116.778 10.6581C116.778 6.75085 113.61 3.58405 109.704 3.58405H17.296C13.389 3.58405 10.2219 6.75135 10.2219 10.6581V65.3789V120.565C10.2219 124.119 13.3892 127 17.296 127H81.1664H96.0271H109.704C113.611 127 116.778 124.119 116.778 120.565V93.2409V93.2404V10.6581Z" fill="url(#paint0_linear_24_311052)"/>
<path id="Vector_2" d="M109.47 12.9632C108.322 11.4811 106.526 10.5259 104.506 10.5259H63.4999H22.4939C19.3834 10.5259 16.2156 13.3367 16.2156 16.8042V65.3689V114.347C16.2156 115.782 16.7987 117.092 17.7594 118.095L26.6643 127H81.1665H96.0272H109.704C113.611 127 116.778 124.119 116.778 120.565V93.2409V93.2404V20.2706L109.47 12.9632Z" fill="url(#paint1_linear_24_311052)"/>
<path id="Vector_3" d="M110.784 113.779V16.8044C110.784 13.3387 107.972 10.5261 104.506 10.5261H22.4939C19.0282 10.5261 16.2156 13.3387 16.2156 16.8044V113.779C16.2156 117.245 19.0282 120.058 22.4939 120.058H104.506C107.971 120.058 110.784 117.245 110.784 113.779Z" fill="url(#paint2_linear_24_311052)"/>
<path id="Vector_4" d="M79.1789 120.058H22.4939C19.0264 120.058 16.2156 117.247 16.2156 113.779V16.8044C16.2156 13.337 19.0264 10.5261 22.4939 10.5261H104.506C107.973 10.5261 110.784 13.337 110.784 16.8044V90.0967C110.784 91.0574 110.406 91.9796 109.732 92.664L85.2407 117.52C83.6415 119.144 81.458 120.058 79.1789 120.058Z" fill="url(#paint3_linear_24_311052)"/>
<path id="Vector_5" d="M63.4999 120.058H21.848C18.7375 120.058 16.2156 117.247 16.2156 113.779V101.642V16.8044C16.2156 13.337 18.7372 10.5261 21.848 10.5261H63.4999V120.058Z" fill="url(#paint4_linear_24_311052)"/>
<path id="Vector_6" d="M110.784 65.3687V114.346C110.784 117.501 107.973 120.057 104.506 120.057H92.368H22.4939C19.0264 120.057 16.2156 117.501 16.2156 114.346V65.3687C16.2156 65.0219 110.784 65.3687 110.784 65.3687Z" fill="url(#paint5_linear_24_311052)"/>
<path id="Vector_7" d="M110.463 91.5958C110.463 91.5958 110.277 92.1212 109.547 92.8517C109.276 93.1228 85.3851 117.374 85.3851 117.374C83.6937 119.091 81.3844 120.058 78.9744 120.058C81.055 120.058 82.7412 118.371 82.7412 116.291V97.8744C82.7412 94.4069 85.5521 91.5961 89.0195 91.5961L110.463 91.5958Z" fill="url(#paint6_linear_24_311052)"/>
<path id="Vector_8" d="M110.784 31.0301L90.2799 10.5259H38.981V11.973C38.981 14.7223 40.2095 17.1906 42.1438 18.8602L110.784 87.5006V31.0301Z" fill="url(#paint7_linear_24_311052)"/>
<path id="Vector_9" d="M78.9162 21.0753H48.0835C43.0643 21.0753 38.981 16.9919 38.981 11.9727V5.09686H88.0185V11.9727C88.0187 16.9919 83.9354 21.0753 78.9162 21.0753ZM43.1134 9.22882V11.9725C43.1134 14.7131 45.3431 16.9426 48.0835 16.9426H78.9162C81.6566 16.9426 83.8863 14.7131 83.8863 11.9725V9.22882H43.1134Z" fill="#A5B0B8"/>
<path id="Vector_10" d="M86.1859 12.9483H40.8137C38.3561 12.9483 36.3638 10.9562 36.3638 8.49857V4.4497C36.3638 1.99206 38.3558 0 40.8137 0H86.1861C88.6438 0 90.6358 1.99206 90.6358 4.4497V8.49832C90.6358 10.956 88.6435 12.9483 86.1859 12.9483Z" fill="url(#paint8_linear_24_311052)"/>
<g id="Group">
<path id="Vector_11" d="M71.8967 36.0106H29.165V43.7144H71.8967V36.0106Z" fill="#A5B0B8"/>
<path id="Vector_12" d="M71.8967 65.4272H29.165V73.131H71.8967V65.4272Z" fill="#A5B0B8"/>
</g>
<path id="Vector_13" d="M51.1517 86.7907C47.0537 86.591 43.6594 89.8096 43.5726 93.8429C43.5723 93.8516 43.5694 93.8516 43.5691 93.8429C43.4823 89.8096 40.0878 86.591 35.9901 86.7907C31.4893 87.0099 28.5023 91.412 29.2928 95.8483C30.6221 103.309 39.8045 108.446 42.6992 109.895C43.2486 110.17 43.8941 110.17 44.4432 109.895C47.3382 108.446 56.5204 103.309 57.8497 95.8483C58.6392 91.412 55.6522 87.0097 51.1517 86.7907Z" fill="url(#paint9_linear_24_311052)"/>
<path id="Vector_14" d="M107.135 28.6843C108.067 29.6165 108.067 31.1276 107.135 32.0595L93.6159 45.5773C91.124 48.0691 87.069 48.0691 84.5788 45.5773L79.4554 40.4539C78.5235 39.5219 78.5233 38.0113 79.4549 37.0792C80.3868 36.1468 81.8982 36.1465 82.8304 37.0787L87.9528 42.2011C88.5833 42.8316 89.6107 42.8316 90.2395 42.2011L103.759 28.6831C104.691 27.7512 106.202 27.7512 107.134 28.6831L107.135 28.6843Z" fill="url(#paint10_linear_24_311052)"/>
<path id="Vector_15" d="M107.135 57.5777C108.067 58.5099 108.067 60.0207 107.135 60.9529L93.6159 74.4707C91.124 76.9626 87.069 76.9626 84.5788 74.4707L79.4554 69.3473C78.5235 68.4154 78.5233 66.9048 79.4549 65.9726C80.3868 65.0402 81.8982 65.04 82.8304 65.9721L87.9528 71.0945C88.5833 71.7251 89.6107 71.7251 90.2395 71.0945L103.759 57.5765C104.691 56.6446 106.202 56.6446 107.134 57.5765L107.135 57.5777Z" fill="url(#paint11_linear_24_311052)"/>
</g>
<defs>
<linearGradient id="paint0_linear_24_311052" x1="63.4986" y1="23.4201" x2="63.4986" y2="172.617" gradientUnits="userSpaceOnUse">
<stop stop-color="#FFE7A5"/>
<stop offset="0.966" stop-color="#FFBF5C"/>
</linearGradient>
<linearGradient id="paint1_linear_24_311052" x1="118.845" y1="120.727" x2="-6.19081" y2="-4.31023" gradientUnits="userSpaceOnUse">
<stop stop-color="#FF5D00" stop-opacity="0"/>
<stop offset="1" stop-color="#D54003"/>
</linearGradient>
<linearGradient id="paint2_linear_24_311052" x1="93.2687" y1="95.0633" x2="112.313" y2="114.108" gradientUnits="userSpaceOnUse">
<stop stop-color="#97AAAA"/>
<stop offset="1" stop-color="#E8EFEE"/>
</linearGradient>
<linearGradient id="paint3_linear_24_311052" x1="63.4986" y1="46.6157" x2="63.4986" y2="188.257" gradientUnits="userSpaceOnUse">
<stop stop-color="#E2EDF2"/>
<stop offset="1" stop-color="#E6E6E6"/>
</linearGradient>
<linearGradient id="paint4_linear_24_311052" x1="64.4765" y1="48.8398" x2="114.327" y2="12.6133" gradientUnits="userSpaceOnUse">
<stop stop-color="#9FC7E2" stop-opacity="0"/>
<stop offset="1" stop-color="#4975AD"/>
</linearGradient>
<linearGradient id="paint5_linear_24_311052" x1="67.5891" y1="93.9991" x2="-8.72123" y2="44.0569" gradientUnits="userSpaceOnUse">
<stop stop-color="#9FC7E2" stop-opacity="0"/>
<stop offset="1" stop-color="#4975AD"/>
</linearGradient>
<linearGradient id="paint6_linear_24_311052" x1="83.4514" y1="94.5624" x2="95.8235" y2="106.934" gradientUnits="userSpaceOnUse">
<stop stop-color="white"/>
<stop offset="1" stop-color="#E8EFEE"/>
</linearGradient>
<linearGradient id="paint7_linear_24_311052" x1="76.3116" y1="28.9354" x2="68.8735" y2="-7.29106" gradientUnits="userSpaceOnUse">
<stop stop-color="#9FC7E2" stop-opacity="0"/>
<stop offset="1" stop-color="#4975AD"/>
</linearGradient>
<linearGradient id="paint8_linear_24_311052" x1="63.4983" y1="2.4822" x2="63.4983" y2="14.6067" gradientUnits="userSpaceOnUse">
<stop stop-color="#FF7BAC"/>
<stop offset="1" stop-color="#E24786"/>
</linearGradient>
<linearGradient id="paint9_linear_24_311052" x1="38.8755" y1="90.3579" x2="58.8913" y2="110.374" gradientUnits="userSpaceOnUse">
<stop stop-color="#FF7BAC"/>
<stop offset="1" stop-color="#E24786"/>
</linearGradient>
<linearGradient id="paint10_linear_24_311052" x1="89.6774" y1="30.9551" x2="114.126" y2="55.4033" gradientUnits="userSpaceOnUse">
<stop stop-color="#9EB644"/>
<stop offset="1" stop-color="#738611"/>
</linearGradient>
<linearGradient id="paint11_linear_24_311052" x1="89.6775" y1="59.848" x2="114.126" y2="84.2962" gradientUnits="userSpaceOnUse">
<stop stop-color="#9EB644"/>
<stop offset="1" stop-color="#738611"/>
</linearGradient>
<clipPath id="clip0_24_311052">
<rect width="127" height="127" fill="white"/>
</clipPath>
</defs>
</svg>
