<svg width="127" height="127" viewBox="0 0 127 127" fill="none" xmlns="http://www.w3.org/2000/svg">
<g id="descuento 1" clip-path="url(#clip0_21_310695)">
<g id="Group">
<g id="Group_2">
<path id="Vector" d="M98.0637 99.2109C96.5721 95.2146 92.1032 93.1833 88.1106 94.6859L71.8524 100.8C67.3113 102.508 62.5289 103.296 57.7659 103.188L61.7372 118.212C67.7752 117.688 73.7651 116.371 79.5439 114.24L93.542 109.075C97.5278 107.605 99.5514 103.19 98.0637 99.2109Z" fill="url(#paint0_linear_21_310695)"/>
<path id="Vector_2" d="M108.056 97.8722C106.331 94.0624 101.83 92.3845 98.031 94.1346L82.5595 101.256C76.5379 104.029 69.9396 105.093 63.4569 104.439L57.4443 119.606C68.8275 120.595 80.3805 118.676 90.9713 113.883L104.299 107.848C108.094 106.131 109.775 101.665 108.056 97.8722Z" fill="url(#paint1_linear_21_310695)"/>
<path id="Vector_3" d="M114.991 98.1653C112.986 94.4003 108.289 92.9752 104.529 94.9905L89.2174 103.192C83.2581 106.386 76.6003 107.878 69.9487 107.617L64.8022 123.408C76.4716 123.704 88.1254 121.034 98.6119 115.502L111.808 108.539C115.565 106.557 116.99 101.914 114.991 98.1653Z" fill="url(#paint2_linear_21_310695)"/>
</g>
<g id="Group_3">
<path id="Vector_4" d="M104.199 66.55L100.345 70.4724C98.8311 72.013 98.1286 74.1755 98.4479 76.3119L99.2604 81.7485C99.8155 85.4621 97.2907 88.9349 93.587 89.5525L88.1678 90.4559C86.0332 90.8118 84.1903 92.1515 83.1932 94.0719L80.6661 98.9388C78.9339 102.275 74.8448 103.603 71.4825 101.922L66.5768 99.4689C64.6397 98.5003 62.3597 98.5003 60.4226 99.4689L55.5169 101.922C52.1546 103.603 48.0657 102.275 46.3333 98.9388L43.8062 94.0719C42.8089 92.1513 40.9662 90.8118 38.8316 90.4559L33.4124 89.5522C29.7087 88.9347 27.1839 85.4618 27.739 81.7482L28.5515 76.3119C28.8708 74.1755 28.1683 72.013 26.6543 70.4724L22.7999 66.55C20.1695 63.8731 20.1695 59.5822 22.7999 56.9053L26.654 52.983C28.1681 51.4423 28.8705 49.2798 28.5513 47.1434L27.7387 41.7069C27.1837 37.9932 29.7085 34.5204 33.4122 33.9028L38.8313 32.9994C40.9659 32.6435 42.8089 31.3038 43.806 29.3834L46.333 24.5165C48.0652 21.1804 52.1544 19.8521 55.5166 21.5333L60.4223 23.9861C62.3595 24.9548 64.6395 24.9548 66.5766 23.9861L71.4823 21.533C74.8445 19.8519 78.9334 21.1802 80.6659 24.5163L83.1929 29.3831C84.1903 31.3038 86.033 32.6433 88.1676 32.9991L93.5868 33.9028C97.2904 34.5204 99.8152 37.9932 99.2602 41.7069L98.4476 47.1432C98.1284 49.2795 98.8309 51.442 100.345 52.9827L104.199 56.905C106.83 59.5822 106.83 63.8731 104.199 66.55Z" fill="url(#paint3_linear_21_310695)"/>
<path id="Vector_5" d="M63.4999 92.2407C80.3517 92.2407 94.0128 78.5796 94.0128 61.7278C94.0128 44.876 80.3517 31.2149 63.4999 31.2149C46.6481 31.2149 32.9871 44.876 32.9871 61.7278C32.9871 78.5796 46.6481 92.2407 63.4999 92.2407Z" fill="url(#paint4_linear_21_310695)"/>
<path id="Vector_6" d="M63.4999 87.7547C77.8743 87.7547 89.527 76.102 89.527 61.7277C89.527 47.3534 77.8743 35.7007 63.4999 35.7007C49.1256 35.7007 37.4729 47.3534 37.4729 61.7277C37.4729 76.102 49.1256 87.7547 63.4999 87.7547Z" fill="url(#paint5_linear_21_310695)"/>
<path id="Vector_7" d="M26.6544 70.4725C28.1685 72.0132 28.871 74.1757 28.5517 76.312L27.7392 81.7483C27.1841 85.462 29.7089 88.9348 33.4126 89.5524L38.8318 90.4561C40.9664 90.8119 42.8093 92.1514 43.8064 94.0721L46.3335 98.9389C48.0657 102.275 52.1548 103.603 55.5171 101.922L60.4228 99.4693C62.3599 98.5006 64.6399 98.5006 66.577 99.4693L71.4827 101.922C74.845 103.603 78.9339 102.275 80.6663 98.9389L83.1934 94.0721C84.1907 92.1514 86.0334 90.8119 88.168 90.4561L93.5872 89.5524C97.2909 88.9348 99.8157 85.462 99.2606 81.7483L98.448 76.3117C98.1288 74.1754 98.8313 72.0129 100.345 70.4722L104.2 66.5499C105.515 65.2114 106.172 63.4696 106.172 61.7274H20.8276C20.8276 63.4693 21.4853 65.2114 22.8004 66.5499L26.6544 70.4725Z" fill="url(#paint6_linear_21_310695)"/>
<g id="Group_4">
<path id="Vector_8" d="M88.1684 90.4559L93.5875 89.5522C97.2912 88.9346 99.816 85.4618 99.2609 81.7482L98.4484 76.3116C98.1291 74.1752 98.8316 72.0128 100.346 70.4721L101.266 69.5358C101.361 68.973 101.549 68.4229 101.837 67.9127L75.7672 41.8428C75.2353 40.8679 74.0838 40.2752 73.0148 40.2752C72.0832 40.2752 71.2547 40.6896 70.8406 41.5694L52.6701 78.8937C52.5147 79.2042 52.4111 79.5665 52.4111 79.8773C52.4111 80.7725 52.9567 81.7412 53.8751 82.2539L74.2631 102.642C76.8541 102.752 79.3949 101.387 80.6664 98.939L83.1934 94.0722C84.1908 92.1515 86.0335 90.8117 88.1684 90.4559Z" fill="url(#paint7_linear_21_310695)"/>
<path id="Vector_9" d="M98.912 85.1443L58.7625 44.9949C57.3869 43.1464 55.0088 42.3981 52.2561 42.3981C47.856 42.3981 44.4912 44.2615 44.4912 49.3866V56.7377C44.4912 59.3818 45.3884 61.156 46.8601 62.2557L81.6497 97.0455L83.1936 94.0722C84.1909 92.1515 86.0337 90.812 88.1683 90.4562L93.5874 89.5525C96.1095 89.1319 98.0835 87.387 98.912 85.1443Z" fill="url(#paint8_linear_21_310695)"/>
<path id="Vector_10" d="M75.9729 59.0146C71.5728 59.0146 68.208 60.878 68.208 66.0031V73.3541C68.208 75.9982 69.1052 77.7725 70.5769 78.8722L84.2635 92.5588C85.2868 91.4589 86.6531 90.7086 88.1684 90.4561L93.5876 89.5524C97.2913 88.9348 99.8161 85.462 99.261 81.7483L98.6713 77.8029L82.4796 61.6111C81.1037 59.7629 78.7259 59.0146 75.9729 59.0146Z" fill="url(#paint9_linear_21_310695)"/>
<g id="Group_5">
<path id="Vector_11" d="M44.281 56.5275V49.1764C44.281 44.0516 47.646 42.1879 52.0459 42.1879C56.3943 42.1879 59.8111 44.0516 59.8111 49.1764V56.5275C59.8111 61.6523 56.3943 63.516 52.0459 63.516C47.646 63.516 44.281 61.6523 44.281 56.5275ZM54.6345 49.1764C54.6345 47.4682 53.6509 46.6917 52.0459 46.6917C50.4413 46.6917 49.5094 47.4682 49.5094 49.1764V56.5275C49.5094 58.2358 50.441 59.0122 52.0459 59.0122C53.6509 59.0122 54.6345 58.2358 54.6345 56.5275V49.1764ZM75.8589 42.8092C75.8589 43.12 75.8071 43.4823 75.6518 43.7929L57.43 81.1167C57.0677 81.8931 56.084 82.4108 55.1004 82.4108C53.3403 82.4108 52.2013 80.9615 52.2013 79.6671C52.2013 79.3566 52.3049 78.9943 52.4603 78.6835L70.6303 41.3597C71.0446 40.4797 71.8729 40.0656 72.8045 40.0656C74.254 40.0656 75.8589 41.1528 75.8589 42.8092ZM68.0422 73.1964V65.8456C68.0422 60.7207 71.4072 58.8571 75.8071 58.8571C80.1555 58.8571 83.5721 60.7207 83.5721 65.8456V73.1964C83.5721 78.3214 80.1555 80.1849 75.8071 80.1849C71.407 80.1849 68.0422 78.3212 68.0422 73.1964ZM78.3955 65.8453C78.3955 64.137 77.4118 63.3606 75.8071 63.3606C74.2025 63.3606 73.2704 64.137 73.2704 65.8453V73.1961C73.2704 74.9044 74.2022 75.6808 75.8071 75.6808C77.4118 75.6808 78.3955 74.9044 78.3955 73.1961V65.8453Z" fill="url(#paint10_linear_21_310695)"/>
</g>
</g>
</g>
<g id="Group_6">
<g id="Group_7">
<g id="Group_8">
<g id="Group_9">
<path id="Vector_12" d="M113.135 95.6446L106.764 100.415C106.484 100.611 106.202 100.804 105.918 100.993C98.2698 106.089 89.0317 108.214 79.8832 107.332C72.2323 106.595 69.1706 106.056 59.3169 100.736C57.5987 99.8085 57.3616 97.9523 58.787 96.6176L59.1774 96.2518C66.8196 93.1796 74.1557 89.4107 81.0947 84.9961C85.0787 82.4613 86.1667 77.1248 83.5146 73.2179C81.1006 69.6617 76.3937 68.5159 72.6048 70.5452C66.0994 74.0295 58.9339 76.1534 51.5505 76.7627C50.1398 76.879 48.7206 76.8407 47.3129 76.694C42.8779 76.2323 32.1401 75.1892 28.5441 75.5164C28.5109 75.5194 28.4776 75.5224 28.4442 75.5256C19.031 76.3969 11.3206 83.372 9.4821 92.6459L9.37278 93.198C6.99564 105.177 14.7842 116.817 26.7658 119.192L47.4553 123.294L60.4873 125.75C80.9423 129.439 102.027 124.886 119.087 113.095L123.227 110.011C127.215 107.256 128.198 101.798 125.424 97.8186C122.64 93.8246 117.121 92.8494 113.135 95.6446Z" fill="url(#paint11_linear_21_310695)"/>
<path id="Vector_13" d="M18.5651 79.034C13.9642 82.1136 10.6122 86.9436 9.48161 92.6457L9.37229 93.1977C6.99515 105.177 14.7837 116.817 26.7653 119.192L47.4549 123.293L60.4868 125.75C62.348 126.086 64.2141 126.351 66.0823 126.551L18.5651 79.034Z" fill="url(#paint12_linear_21_310695)"/>
<path id="Vector_14" d="M83.5146 73.2171C81.1003 69.6611 76.3936 68.5154 72.6048 70.5447C65.429 74.388 57.4502 76.5762 49.2619 76.9021C49.1389 76.9071 49.0159 76.9126 48.8931 76.9188C35.0529 77.6116 33.6549 97.5232 47.2613 100.15C48.2392 100.339 49.2507 100.242 50.1748 99.8705L59.1777 96.2515C66.8198 93.1793 74.1562 89.4104 81.0949 84.9958C85.0789 82.4607 86.1669 77.1243 83.5146 73.2171Z" fill="url(#paint13_linear_21_310695)"/>
</g>
</g>
</g>
<path id="Vector_15" d="M13.1619 120.93H5.40896C2.42172 120.93 0 118.508 0 115.521V79.3305C0 76.3432 2.42172 73.9215 5.40896 73.9215H13.1619C16.1492 73.9215 18.5709 76.3432 18.5709 79.3305V115.521C18.5709 118.508 16.1492 120.93 13.1619 120.93Z" fill="url(#paint14_linear_21_310695)"/>
</g>
<g id="Group_10">
<g id="Group_11">
<g id="Group_12">
<g id="Group_13">
<path id="Vector_16" d="M63.5001 16.2819C61.2958 16.2819 59.5088 14.4949 59.5088 12.2906V3.99104C59.5088 1.78696 61.2958 0 63.5001 0C65.7044 0 67.4914 1.78696 67.4914 3.99129V12.2909C67.4914 14.4949 65.7044 16.2819 63.5001 16.2819Z" fill="url(#paint15_linear_21_310695)"/>
</g>
</g>
</g>
<g id="Group_14">
<g id="Group_15">
<g id="Group_16">
<g id="Group_17">
<path id="Vector_17" d="M53.2151 19.0017C51.6565 20.5603 49.1292 20.5603 47.5706 19.0017L41.7019 13.133C40.1433 11.5744 40.1433 9.04734 41.7019 7.48848C43.2605 5.92987 45.7876 5.92987 47.3464 7.48848L53.2151 13.3571C54.7737 14.9157 54.7737 17.443 53.2151 19.0017Z" fill="url(#paint16_linear_21_310695)"/>
</g>
</g>
</g>
<g id="Group_18">
<g id="Group_19">
<g id="Group_20">
<path id="Vector_18" d="M73.7852 19.0017C72.2266 17.443 72.2266 14.916 73.7852 13.3571L79.6538 7.48848C81.2124 5.92987 83.7395 5.92987 85.2983 7.48848C86.857 9.04709 86.857 11.5741 85.2983 13.133L79.4297 19.0017C77.8708 20.5603 75.3438 20.5603 73.7852 19.0017Z" fill="url(#paint17_linear_21_310695)"/>
</g>
</g>
</g>
</g>
</g>
</g>
</g>
<defs>
<linearGradient id="paint0_linear_21_310695" x1="76.916" y1="95.0308" x2="78.381" y2="102.24" gradientUnits="userSpaceOnUse">
<stop stop-color="#FFEEE6"/>
<stop offset="1" stop-color="#FFB09E"/>
</linearGradient>
<linearGradient id="paint1_linear_21_310695" x1="79.7878" y1="95.5871" x2="81.8358" y2="104.428" gradientUnits="userSpaceOnUse">
<stop stop-color="#FFEEE6"/>
<stop offset="1" stop-color="#FFB09E"/>
</linearGradient>
<linearGradient id="paint2_linear_21_310695" x1="85.6659" y1="101.279" x2="88.3515" y2="107.634" gradientUnits="userSpaceOnUse">
<stop stop-color="#FFEEE6"/>
<stop offset="1" stop-color="#FFB09E"/>
</linearGradient>
<linearGradient id="paint3_linear_21_310695" x1="8.60508" y1="6.83265" x2="90.6837" y2="88.9115" gradientUnits="userSpaceOnUse">
<stop stop-color="#FEDBBD"/>
<stop offset="1" stop-color="#FD3581"/>
</linearGradient>
<linearGradient id="paint4_linear_21_310695" x1="106.096" y1="104.324" x2="26.9312" y2="25.1587" gradientUnits="userSpaceOnUse">
<stop stop-color="#FEDBBD"/>
<stop offset="1" stop-color="#FD3581"/>
</linearGradient>
<linearGradient id="paint5_linear_21_310695" x1="45.1639" y1="43.3914" x2="81.0665" y2="79.2943" gradientUnits="userSpaceOnUse">
<stop stop-color="#FEDBBD"/>
<stop offset="1" stop-color="#FD3581"/>
</linearGradient>
<linearGradient id="paint6_linear_21_310695" x1="63.4999" y1="72.0124" x2="63.4999" y2="111.897" gradientUnits="userSpaceOnUse">
<stop stop-color="#FE646F" stop-opacity="0"/>
<stop offset="0.2966" stop-color="#FC616A" stop-opacity="0.297"/>
<stop offset="0.6214" stop-color="#F5575D" stop-opacity="0.621"/>
<stop offset="0.9585" stop-color="#EB4747" stop-opacity="0.959"/>
<stop offset="1" stop-color="#E94444"/>
</linearGradient>
<linearGradient id="paint7_linear_21_310695" x1="82.362" y1="76.1435" x2="55.0756" y2="60.7511" gradientUnits="userSpaceOnUse">
<stop stop-color="#FE646F" stop-opacity="0"/>
<stop offset="0.2966" stop-color="#FC616A" stop-opacity="0.297"/>
<stop offset="0.6214" stop-color="#F5575D" stop-opacity="0.621"/>
<stop offset="0.9585" stop-color="#EB4747" stop-opacity="0.959"/>
<stop offset="1" stop-color="#E94444"/>
</linearGradient>
<linearGradient id="paint8_linear_21_310695" x1="64.6429" y1="67.9772" x2="40.9474" y2="56.5073" gradientUnits="userSpaceOnUse">
<stop stop-color="#FE646F" stop-opacity="0"/>
<stop offset="0.2966" stop-color="#FC616A" stop-opacity="0.297"/>
<stop offset="0.6214" stop-color="#F5575D" stop-opacity="0.621"/>
<stop offset="0.9585" stop-color="#EB4747" stop-opacity="0.959"/>
<stop offset="1" stop-color="#E94444"/>
</linearGradient>
<linearGradient id="paint9_linear_21_310695" x1="94.1153" y1="83.1396" x2="65.3744" y2="66.2675" gradientUnits="userSpaceOnUse">
<stop stop-color="#FE646F" stop-opacity="0"/>
<stop offset="0.2966" stop-color="#FC616A" stop-opacity="0.297"/>
<stop offset="0.6214" stop-color="#F5575D" stop-opacity="0.621"/>
<stop offset="0.9585" stop-color="#EB4747" stop-opacity="0.959"/>
<stop offset="1" stop-color="#E94444"/>
</linearGradient>
<linearGradient id="paint10_linear_21_310695" x1="44.281" y1="61.2382" x2="59.8114" y2="61.2382" gradientUnits="userSpaceOnUse">
<stop stop-color="#EAF6FF"/>
<stop offset="1" stop-color="#B3DAFE"/>
</linearGradient>
<linearGradient id="paint11_linear_21_310695" x1="58.8995" y1="75.8852" x2="80.6893" y2="136.962" gradientUnits="userSpaceOnUse">
<stop stop-color="#FFEEE6"/>
<stop offset="1" stop-color="#FFB09E"/>
</linearGradient>
<linearGradient id="paint12_linear_21_310695" x1="44.4061" y1="102.793" x2="6.99266" y2="102.793" gradientUnits="userSpaceOnUse">
<stop stop-color="#FFB09E" stop-opacity="0"/>
<stop offset="1" stop-color="#EC806B"/>
</linearGradient>
<linearGradient id="paint13_linear_21_310695" x1="61.1048" y1="83.8094" x2="74.971" y2="97.6753" gradientUnits="userSpaceOnUse">
<stop stop-color="#FFB09E" stop-opacity="0"/>
<stop offset="1" stop-color="#EC806B"/>
</linearGradient>
<linearGradient id="paint14_linear_21_310695" x1="1.18533" y1="90.5944" x2="26.3577" y2="111.824" gradientUnits="userSpaceOnUse">
<stop stop-color="#8AC9FE"/>
<stop offset="1" stop-color="#814AA0"/>
</linearGradient>
<linearGradient id="paint15_linear_21_310695" x1="59.9237" y1="8.14095" x2="71.009" y2="8.14095" gradientUnits="userSpaceOnUse">
<stop stop-color="#FEE45A"/>
<stop offset="1" stop-color="#FEA613"/>
</linearGradient>
<linearGradient id="paint16_linear_21_310695" x1="44.6631" y1="15.7922" x2="52.5004" y2="7.95487" gradientUnits="userSpaceOnUse">
<stop stop-color="#FEE45A"/>
<stop offset="1" stop-color="#FEA613"/>
</linearGradient>
<linearGradient id="paint17_linear_21_310695" x1="76.8174" y1="10.4105" x2="84.655" y2="18.2481" gradientUnits="userSpaceOnUse">
<stop stop-color="#FEE45A"/>
<stop offset="1" stop-color="#FEA613"/>
</linearGradient>
<clipPath id="clip0_21_310695">
<rect width="127" height="127" fill="white"/>
</clipPath>
</defs>
</svg>
