<svg width="127" height="127" viewBox="0 0 127 127" fill="none" xmlns="http://www.w3.org/2000/svg">
<g id="Group">
<path id="Vector" d="M68.8573 26.6412L47.0602 12.4334H26.909L5.11187 26.6387C1.92218 28.7188 0 32.2708 0 36.0775V115.736C0 119.338 1.68611 122.545 4.31874 124.606C6.22997 126.105 8.64545 127 11.2644 127H62.7051C65.3858 127 67.8468 126.067 69.777 124.504C72.3396 122.44 73.9722 119.28 73.9722 115.736V36.0775C73.9722 32.2708 72.0475 28.7188 68.8573 26.6412ZM36.9861 38.3105C32.4529 38.3078 28.7777 34.6325 28.7777 30.1021C28.7804 25.5689 32.4557 21.8937 36.9861 21.8937C41.5165 21.8937 45.1918 25.5689 45.1945 30.1021C45.1945 34.6325 41.5192 38.3078 36.9861 38.3105Z" fill="url(#paint0_linear_21_310530)"/>
<path id="Vector_2" d="M13.0499 60.4587C29.5905 60.4587 43.2108 47.9649 44.9943 31.9002C44.1738 35.566 40.9009 38.3082 36.9861 38.3104C32.4529 38.3077 28.7777 34.6324 28.7777 30.102C28.7804 25.5689 32.4557 21.8936 36.9861 21.8936C41.3158 21.8936 44.8621 25.2511 45.1704 29.5056C45.1848 29.1099 45.1945 28.713 45.1945 28.3138C45.1945 22.5376 43.6698 17.1179 41.0025 12.4331H26.9093L5.11212 26.6384C1.92218 28.7187 0 32.2707 0 36.0775V57.6973C3.98804 59.4714 8.40341 60.4587 13.0499 60.4587Z" fill="url(#paint1_linear_21_310530)"/>
<path id="Vector_3" d="M11.7581 52.3306V127H62.7052C65.3859 127 67.8469 126.067 69.7771 124.504C72.3397 122.44 73.9723 119.28 73.9723 115.736V52.3306H11.7581Z" fill="url(#paint2_linear_21_310530)"/>
<path id="Vector_4" d="M0 99.6584V115.736C0 119.338 1.68611 122.545 4.31874 124.606C6.22997 126.104 8.64545 127 11.2644 127H62.7051C65.3858 127 67.8468 126.067 69.777 124.504C72.3396 122.44 73.9722 119.28 73.9722 115.736V99.6584H0Z" fill="url(#paint3_linear_21_310530)"/>
<g id="Group_2">
<path id="Vector_5" d="M123.69 64.501L67.3631 8.17387C64.6717 5.48246 60.8012 4.3315 57.0746 5.1174L27.0334 11.4515C22.6646 12.3708 19.2538 15.7817 18.3344 20.1504L12.0006 50.1911C11.2147 53.9177 12.3657 57.7882 15.0571 60.4796L71.3843 116.807C73.9318 119.354 77.3916 120.428 80.7113 120.025C83.1221 119.733 85.4626 118.66 87.3153 116.807L123.69 80.4321C125.585 78.5373 126.666 76.137 126.925 73.6667C127.276 70.3963 126.196 67.0067 123.69 64.501ZM42.7891 35.9059C39.5818 39.1095 34.385 39.1095 31.1811 35.9059C27.9775 32.6985 27.9775 27.5017 31.1811 24.2979C34.385 21.0942 39.5818 21.0942 42.7891 24.2979C45.9928 27.5017 45.9928 32.6988 42.7891 35.9059Z" fill="url(#paint4_linear_21_310530)"/>
<path id="Vector_6" d="M39.7901 37.8063V85.2124L15.0578 60.4801C12.3664 57.7887 11.2137 53.9176 12.0018 50.1913L15.3768 34.1766H29.8607C30.2119 34.7959 30.6544 35.3777 31.1823 35.9056C33.5094 38.2327 36.8871 38.8599 39.7901 37.8063Z" fill="url(#paint5_linear_21_310530)"/>
<g id="Group_3">
<path id="Vector_7" d="M126.926 73.6666C126.666 76.1369 125.585 78.5372 123.69 80.432L87.3153 116.807C85.4626 118.66 83.122 119.733 80.7113 120.025L57.548 96.8615C56.1829 96.1 55.3723 94.6614 55.3723 93.3314C55.3723 92.8717 55.5267 92.3314 55.7583 91.8717L82.757 36.4111C83.3711 35.1022 84.6027 34.4882 85.9853 34.4882C87.5747 34.4882 89.2873 35.3689 90.0769 36.8182L126.926 73.6666Z" fill="url(#paint6_linear_21_310530)"/>
<path id="Vector_8" d="M113.718 90.405L92.0492 112.073L47.1229 67.1468C44.9368 65.515 43.6033 62.8764 43.6033 58.9496V48.0259C43.6033 40.4114 48.6036 37.6425 55.1408 37.6425C59.2325 37.6425 62.7661 38.7549 64.8117 41.4991L113.718 90.405Z" fill="url(#paint7_linear_21_310530)"/>
<path id="Vector_9" d="M118.991 85.1309L97.323 106.799L82.3639 91.8367C80.1777 90.2049 78.8442 87.5698 78.8442 83.6395V72.7158C78.8442 65.101 83.8445 62.3324 90.382 62.3324C94.4737 62.3324 98.0073 63.4448 100.049 66.1924L118.991 85.1309Z" fill="url(#paint8_linear_21_310530)"/>
<g id="Group_4">
<path id="Vector_10" d="M43.2922 58.6364V47.7137C43.2922 40.0987 48.292 37.3296 54.83 37.3296C61.2914 37.3296 66.3684 40.0987 66.3684 47.7137V58.6364C66.3684 66.2515 61.2914 69.0206 54.83 69.0206C48.292 69.0206 43.2922 66.2515 43.2922 58.6364ZM58.6762 47.7137C58.6762 45.1755 57.2147 44.0215 54.83 44.0215C52.4457 44.0215 51.0611 45.1755 51.0611 47.7137V58.6364C51.0611 61.1747 52.4454 62.3287 54.83 62.3287C57.2149 62.3287 58.6762 61.1747 58.6762 58.6364V47.7137ZM90.2132 38.2527C90.2132 38.7144 90.1363 39.2528 89.9054 39.7145L62.8298 95.1736C62.2914 96.3275 60.8299 97.0965 59.3684 97.0965C56.7532 97.0965 55.0606 94.943 55.0606 93.0198C55.0606 92.5584 55.2148 92.0197 55.4454 91.5583L82.4441 36.0992C83.0596 34.7916 84.2903 34.176 85.6748 34.176C87.8286 34.1758 90.2132 35.7912 90.2132 38.2527ZM78.5984 83.4044V72.4819C78.5984 64.8669 83.5983 62.0978 90.1363 62.0978C96.5976 62.0978 101.674 64.8669 101.674 72.4819V83.4044C101.674 91.0197 96.5976 93.7888 90.1363 93.7888C83.5983 93.7888 78.5984 91.0197 78.5984 83.4044ZM93.9821 72.4819C93.9821 69.9437 92.5206 68.7897 90.1363 68.7897C87.7519 68.7897 86.3671 69.9437 86.3671 72.4819V83.4044C86.3671 85.9429 87.7519 87.0966 90.1363 87.0966C92.5206 87.0966 93.9821 85.9429 93.9821 83.4044V72.4819Z" fill="url(#paint9_linear_21_310530)"/>
</g>
</g>
</g>
<path id="Vector_11" d="M42.79 24.298C41.1039 22.6171 38.8734 21.8183 36.6671 21.9042C35.8762 26.263 32.8927 29.8633 28.9037 31.5201C27.3864 32.1501 25.7217 32.4985 23.9766 32.4985C21.0894 32.4985 18.4194 31.5442 16.2694 29.9383C13.1196 27.5818 11.0769 23.8236 11.0769 19.5988C11.0769 12.4868 16.8618 6.7018 23.9766 6.7018C27.4026 6.7018 30.5175 8.04227 32.8284 10.2297L40.238 8.66681C36.7127 3.44188 30.7372 -6.10352e-05 23.9766 -6.10352e-05C13.1676 -6.10352e-05 4.375 8.79007 4.375 19.5988C4.375 27.094 8.6026 33.6218 14.8004 36.9163C17.5402 38.3746 20.6631 39.2003 23.9766 39.2003C27.1264 39.2003 30.1047 38.4523 32.7425 37.1255C37.7501 34.6136 41.5381 30.0135 42.9588 24.4778C42.905 24.416 42.8487 24.357 42.79 24.298Z" fill="url(#paint10_linear_21_310530)"/>
<path id="Vector_12" d="M36.6671 21.9043C35.8762 26.2631 32.8927 29.8635 28.9037 31.5202C27.3864 32.1502 25.7217 32.4986 23.9766 32.4986C23.2768 32.4986 22.5903 32.4415 21.9204 32.3337V39.0914C22.5965 39.1621 23.282 39.2004 23.9766 39.2004C27.1264 39.2004 30.1047 38.4524 32.7425 37.1256C37.7501 34.6137 41.5382 30.0136 42.9588 24.4779C42.9053 24.4162 42.849 24.3571 42.79 24.2984C41.1036 22.6175 38.8734 21.8186 36.6671 21.9043Z" fill="url(#paint11_linear_21_310530)"/>
<path id="Vector_13" d="M23.9766 -6.10352e-05C23.282 -6.10352e-05 22.5965 0.0375409 21.9204 0.108262V6.86739C22.5903 6.75982 23.2766 6.7018 23.9766 6.7018C27.4026 6.7018 30.5176 8.04227 32.8285 10.2297L40.238 8.66681C36.7127 3.44188 30.7372 -6.10352e-05 23.9766 -6.10352e-05Z" fill="url(#paint12_linear_21_310530)"/>
</g>
<defs>
<linearGradient id="paint0_linear_21_310530" x1="5.53421" y1="44.4563" x2="77.3509" y2="116.273" gradientUnits="userSpaceOnUse">
<stop stop-color="#FEE45A"/>
<stop offset="1" stop-color="#FEA613"/>
</linearGradient>
<linearGradient id="paint1_linear_21_310530" x1="7.87698" y1="53.4695" x2="35.2203" y2="21.0327" gradientUnits="userSpaceOnUse">
<stop stop-color="#FEA613" stop-opacity="0"/>
<stop offset="1" stop-color="#E94444"/>
</linearGradient>
<linearGradient id="paint2_linear_21_310530" x1="23.4968" y1="96.9588" x2="50.5722" y2="83.8233" gradientUnits="userSpaceOnUse">
<stop stop-color="#FEA613" stop-opacity="0"/>
<stop offset="1" stop-color="#E94444"/>
</linearGradient>
<linearGradient id="paint3_linear_21_310530" x1="36.9861" y1="115.73" x2="36.9861" y2="129.145" gradientUnits="userSpaceOnUse">
<stop stop-color="#FEA613" stop-opacity="0"/>
<stop offset="1" stop-color="#E94444"/>
</linearGradient>
<linearGradient id="paint4_linear_21_310530" x1="24.6844" y1="17.8012" x2="132.021" y2="125.138" gradientUnits="userSpaceOnUse">
<stop stop-color="#8AC9FE"/>
<stop offset="1" stop-color="#814AA0"/>
</linearGradient>
<linearGradient id="paint5_linear_21_310530" x1="29.6433" y1="52.435" x2="9.18367" y2="34.1375" gradientUnits="userSpaceOnUse">
<stop stop-color="#5B3374" stop-opacity="0"/>
<stop offset="1" stop-color="#5B3374"/>
</linearGradient>
<linearGradient id="paint6_linear_21_310530" x1="101.712" y1="86.126" x2="56.9713" y2="63.8435" gradientUnits="userSpaceOnUse">
<stop stop-color="#5B3374" stop-opacity="0"/>
<stop offset="1" stop-color="#5B3374"/>
</linearGradient>
<linearGradient id="paint7_linear_21_310530" x1="68.8593" y1="71.6344" x2="38.8639" y2="57.1153" gradientUnits="userSpaceOnUse">
<stop stop-color="#5B3374" stop-opacity="0"/>
<stop offset="1" stop-color="#5B3374"/>
</linearGradient>
<linearGradient id="paint8_linear_21_310530" x1="113.098" y1="92.9453" x2="75.3754" y2="74.6985" gradientUnits="userSpaceOnUse">
<stop stop-color="#5B3374" stop-opacity="0"/>
<stop offset="1" stop-color="#5B3374"/>
</linearGradient>
<linearGradient id="paint9_linear_21_310530" x1="43.2922" y1="65.6361" x2="66.3684" y2="65.6361" gradientUnits="userSpaceOnUse">
<stop stop-color="#EAF6FF"/>
<stop offset="1" stop-color="#B3DAFE"/>
</linearGradient>
<linearGradient id="paint10_linear_21_310530" x1="9.08819" y1="4.71213" x2="32.2861" y2="27.9103" gradientUnits="userSpaceOnUse">
<stop stop-color="#B3DAFE"/>
<stop offset="1" stop-color="#4FC123"/>
</linearGradient>
<linearGradient id="paint11_linear_21_310530" x1="32.2851" y1="30.482" x2="40.8795" y2="21.8879" gradientUnits="userSpaceOnUse">
<stop stop-color="#4FC123" stop-opacity="0"/>
<stop offset="1" stop-color="#017B4E"/>
</linearGradient>
<linearGradient id="paint12_linear_21_310530" x1="27.4651" y1="2.39501" x2="34.0778" y2="12.2245" gradientUnits="userSpaceOnUse">
<stop stop-color="#4FC123" stop-opacity="0"/>
<stop offset="1" stop-color="#017B4E"/>
</linearGradient>
</defs>
</svg>
