<svg width="123" height="127" viewBox="0 0 123 127" fill="none" xmlns="http://www.w3.org/2000/svg">
<g id="beneficios 1" clip-path="url(#clip0_21_310600)">
<path id="Vector" d="M73.2222 60.12C73.2222 73.3419 62.8478 84.0288 50.0664 84.0288C37.2609 84.0288 26.9106 73.3171 26.9106 60.12C26.9106 46.9229 37.285 36.2112 50.0664 36.2112C62.8478 36.2112 73.2222 46.8981 73.2222 60.12Z" fill="url(#paint0_radial_21_310600)"/>
<path id="Vector_2" d="M26.8867 60.1199C26.8867 68.6695 31.2194 76.1503 37.7425 80.3753H62.3666C68.8897 76.1503 73.2223 68.6446 73.2223 60.1199C73.2223 51.5953 68.8897 44.0896 62.3666 39.8646H37.7425C31.2194 44.0896 26.8867 51.5953 26.8867 60.1199Z" fill="url(#paint1_linear_21_310600)"/>
<path id="Vector_3" d="M26.8867 60.12C26.8867 66.209 29.1012 71.7761 32.7118 76.0012H67.3732C71.0079 71.7761 73.1983 66.209 73.1983 60.12C73.1983 54.0309 71.0079 48.4638 67.3973 44.2388H32.7358C29.1012 48.4638 26.8867 54.0309 26.8867 60.12Z" fill="url(#paint2_linear_21_310600)"/>
<path id="Vector_4" d="M26.8867 60.12C26.8867 63.674 27.6329 67.054 28.9808 70.0861H71.1041C72.4521 67.054 73.1983 63.674 73.1983 60.12C73.1983 56.5659 72.4521 53.1859 71.1041 50.1538H28.9808C27.6329 53.1859 26.8867 56.5659 26.8867 60.12Z" fill="url(#paint3_linear_21_310600)"/>
<path id="Vector_5" d="M26.8867 60.1199C26.8867 62.1827 27.1274 64.171 27.6088 66.0847H72.4762C72.9576 64.171 73.1983 62.1827 73.1983 60.1199C73.1983 58.0571 72.9335 56.0689 72.4762 54.1552H27.6088C27.1515 56.0689 26.8867 58.0571 26.8867 60.1199Z" fill="url(#paint4_linear_21_310600)"/>
<path id="Vector_6" d="M48.2131 36.2857C36.2742 37.255 26.8867 47.5691 26.8867 60.12C26.8867 72.6957 36.2742 82.9849 48.2131 83.9542C60.1521 82.9849 69.5396 72.6708 69.5396 60.12C69.5396 47.5442 60.1521 37.255 48.2131 36.2857Z" fill="url(#paint5_radial_21_310600)"/>
<path id="Vector_7" d="M61.5241 39.3426C61.3797 39.2681 61.2353 39.1687 61.1149 39.0941C61.0187 39.0444 60.9224 38.9947 60.8502 38.945C60.7298 38.8704 60.6095 38.8207 60.465 38.7462C60.3688 38.6965 60.2725 38.6467 60.1521 38.597C60.0318 38.5473 59.9114 38.4728 59.7911 38.4231C59.6707 38.3734 59.5744 38.3237 59.4541 38.274C59.3578 38.2242 59.2374 38.1745 59.1412 38.1248C58.6357 37.9012 58.1302 37.7023 57.6007 37.5035C57.5525 37.4786 57.5044 37.4786 57.4562 37.4538C57.2877 37.4041 57.0952 37.3295 56.9267 37.2798C56.8785 37.255 56.8304 37.255 56.7823 37.2301C56.6138 37.1804 56.4212 37.1307 56.2286 37.0561C56.1805 37.0561 56.1564 37.0313 56.1083 37.0313C55.9157 36.9816 55.7232 36.9319 55.5065 36.8822H55.4825C54.3752 36.6088 53.2439 36.41 52.0645 36.3105C53.1476 38.1497 54.4715 39.8397 55.9639 41.306L73.1261 59.0264C73.1261 59.0015 73.1261 58.9767 73.1261 58.9518C73.1261 58.9021 73.1261 58.8773 73.1261 58.8276C73.1261 58.7779 73.1261 58.7282 73.1261 58.6785C73.1261 58.6287 73.1261 58.6039 73.1261 58.5542C73.1261 58.5045 73.1261 58.4548 73.1261 58.4299C73.1261 58.3554 73.1261 58.2808 73.102 58.2062C73.102 58.1317 73.078 58.0571 73.078 57.9577C73.078 57.9577 73.078 57.9577 73.078 57.9329C73.078 57.908 73.078 57.8583 73.078 57.8334C73.078 57.8086 73.078 57.8086 73.078 57.7837C73.078 57.7589 73.078 57.734 73.078 57.7092C73.078 57.6595 73.078 57.6098 73.0539 57.5601C73.0539 57.4855 73.0298 57.4109 73.0298 57.3115C73.0057 57.2121 73.0057 57.1127 73.0057 56.9884C73.0057 56.9636 73.0057 56.9139 72.9817 56.889C72.9817 56.8393 72.9817 56.8145 72.9576 56.7648C72.9576 56.7399 72.9576 56.6902 72.9335 56.6653C72.9095 56.5659 72.9095 56.4665 72.8854 56.3422C72.8854 56.3174 72.8854 56.2925 72.8613 56.2677C72.8613 56.1931 72.8373 56.1434 72.8373 56.0689C72.8132 55.9446 72.7891 55.8203 72.765 55.6961C72.765 55.6712 72.765 55.6215 72.741 55.5967V55.5718C72.741 55.5469 72.741 55.5221 72.7169 55.4972C72.7169 55.4475 72.6928 55.4227 72.6928 55.373C72.6688 55.2487 72.6447 55.1493 72.6206 55.025C72.6206 54.9753 72.5965 54.9256 72.5965 54.8759C72.5965 54.8511 72.5965 54.8511 72.5965 54.8262C72.5965 54.7765 72.5725 54.7268 72.5725 54.6771C72.5725 54.6522 72.5725 54.6522 72.5725 54.6274V54.6025C72.5725 54.5777 72.5484 54.5528 72.5484 54.528C72.5484 54.4783 72.5243 54.4534 72.5243 54.4037C72.5243 54.354 72.5003 54.3043 72.5003 54.2794C72.4762 54.2049 72.4521 54.1055 72.4281 54.0309C72.404 53.9563 72.404 53.9066 72.3799 53.8569C72.3799 53.8321 72.3558 53.8072 72.3558 53.7824C72.3558 53.7575 72.3318 53.7327 72.3318 53.7078C72.3077 53.5835 72.2596 53.4593 72.2355 53.3599C72.2114 53.3102 72.2114 53.2356 72.1873 53.1859C72.1151 52.9871 72.067 52.7634 71.9948 52.5646C71.9948 52.5397 71.9948 52.5397 71.9707 52.5149C71.8985 52.2912 71.8263 52.0675 71.73 51.8438C71.7059 51.7941 71.7059 51.7693 71.6819 51.7195C71.6578 51.6698 71.6337 51.5953 71.6097 51.5456C71.6097 51.5207 71.5856 51.5207 71.5856 51.4959C71.5374 51.3965 71.5134 51.297 71.4652 51.1728C71.4412 51.1231 71.4171 51.0734 71.393 51.0237C71.3208 50.8745 71.2727 50.7006 71.2005 50.5514C71.2005 50.5266 71.1764 50.5017 71.1764 50.5017C71.1764 50.5017 71.1764 50.5017 71.1764 50.4769C71.1523 50.452 71.1523 50.4023 71.1283 50.3775C71.032 50.1538 70.9357 49.9301 70.8394 49.7313C70.8153 49.6816 70.7913 49.6319 70.7672 49.5822C70.7672 49.5573 70.7431 49.5573 70.7431 49.5325C70.6709 49.3833 70.5987 49.2591 70.5506 49.11C70.5265 49.0603 70.5024 49.0354 70.4783 48.9857C70.4061 48.8614 70.358 48.7372 70.2858 48.6129C70.2858 48.6129 70.2858 48.6129 70.2858 48.588C70.2617 48.5383 70.2376 48.5135 70.2136 48.4638C70.1895 48.4389 70.1895 48.3892 70.1654 48.3644C69.9488 47.9419 69.7081 47.5442 69.4433 47.1466C69.4192 47.1217 69.4192 47.0968 69.3952 47.0968C69.2748 46.9229 69.1545 46.7489 69.0582 46.5749C69.0341 46.5501 69.0341 46.5252 69.0101 46.5004C68.6009 45.9039 68.1917 45.3323 67.7343 44.7855C67.7102 44.7606 67.7102 44.7606 67.6862 44.7358C67.5418 44.5618 67.3973 44.3878 67.2529 44.2139C66.94 43.8411 66.603 43.4931 66.266 43.1452C66.0975 42.9712 65.929 42.8221 65.7605 42.6481C65.7605 42.6481 65.7605 42.6481 65.7365 42.6233C65.2069 42.1262 64.6774 41.654 64.0997 41.2066C64.0997 41.2066 64.0997 41.2066 64.0756 41.1818C63.4979 40.7344 62.9202 40.3119 62.3185 39.9143C62.1018 39.79 61.9093 39.6409 61.6926 39.5166C61.6686 39.4172 61.5964 39.3675 61.5241 39.3426Z" fill="url(#paint6_linear_21_310600)"/>
<path id="Vector_8" d="M117.464 60.12C117.464 73.3419 107.09 84.0288 94.3081 84.0288C81.5026 84.0288 71.1523 73.3171 71.1523 60.12C71.1523 46.9229 81.5267 36.2112 94.3081 36.2112C107.114 36.2112 117.464 46.8981 117.464 60.12Z" fill="url(#paint7_radial_21_310600)"/>
<path id="Vector_9" d="M71.1523 60.1199C71.1523 68.6695 75.485 76.1503 82.0081 80.3753H106.632C113.155 76.1503 117.488 68.6446 117.488 60.1199C117.488 51.5953 113.155 44.0896 106.632 39.8646H81.984C75.485 44.0896 71.1523 51.5953 71.1523 60.1199Z" fill="url(#paint8_linear_21_310600)"/>
<path id="Vector_10" d="M71.1523 60.12C71.1523 66.209 73.3668 71.7761 76.9774 76.0012H111.639C115.273 71.7761 117.464 66.209 117.464 60.12C117.464 54.0309 115.249 48.4638 111.639 44.2388H76.9774C73.3428 48.4638 71.1523 54.0309 71.1523 60.12Z" fill="url(#paint9_linear_21_310600)"/>
<path id="Vector_11" d="M71.1523 60.12C71.1523 63.674 71.8985 67.054 73.2465 70.0861H115.37C116.718 67.054 117.464 63.674 117.464 60.12C117.464 56.5659 116.718 53.1859 115.37 50.1538H73.2465C71.8985 53.1859 71.1523 56.5659 71.1523 60.12Z" fill="url(#paint10_linear_21_310600)"/>
<path id="Vector_12" d="M71.1523 60.1199C71.1523 62.1827 71.4171 64.171 71.8745 66.0847H116.742C117.223 64.171 117.464 62.1827 117.464 60.1199C117.464 58.0571 117.223 56.0689 116.742 54.1552H71.8745C71.393 56.0689 71.1523 58.0571 71.1523 60.1199Z" fill="url(#paint11_linear_21_310600)"/>
<path id="Vector_13" d="M92.4788 36.2857C80.5398 37.255 71.1523 47.5691 71.1523 60.12C71.1523 72.6957 80.5398 82.9849 92.4788 83.9542C104.418 82.9849 113.805 72.6708 113.805 60.12C113.805 47.5442 104.394 37.255 92.4788 36.2857Z" fill="url(#paint12_radial_21_310600)"/>
<path id="Vector_14" d="M117.464 59.4738C117.464 59.4489 117.464 59.4241 117.464 59.3992C117.464 59.3744 117.464 59.3495 117.464 59.3495C117.464 59.2998 117.464 59.2501 117.464 59.2004C117.464 59.1507 117.464 59.1258 117.464 59.0761C117.464 59.0513 117.464 59.0016 117.464 58.9767C117.464 58.927 117.464 58.9021 117.464 58.8524C117.464 58.8027 117.464 58.753 117.464 58.7033C117.464 58.6536 117.464 58.6288 117.464 58.5791C117.464 58.5293 117.464 58.4796 117.464 58.4548C117.464 58.3802 117.464 58.3057 117.44 58.2311C117.44 58.1565 117.416 58.082 117.416 57.9826C117.416 57.9826 117.416 57.9826 117.416 57.9577C117.416 57.9329 117.416 57.8832 117.416 57.8583C117.416 57.8335 117.416 57.8335 117.416 57.8086C117.416 57.7838 117.416 57.7589 117.416 57.734C117.416 57.6843 117.416 57.6346 117.392 57.5849C117.392 57.5104 117.368 57.4358 117.368 57.3364C117.344 57.237 117.344 57.1376 117.319 57.0133C117.319 56.9884 117.319 56.9387 117.295 56.9139C117.295 56.8642 117.295 56.8393 117.271 56.7896C117.271 56.7648 117.271 56.7151 117.247 56.6902C117.223 56.5908 117.223 56.4914 117.199 56.3671C117.199 56.3423 117.199 56.3174 117.175 56.2926C117.175 56.218 117.151 56.1683 117.151 56.0937C117.127 55.9695 117.103 55.8452 117.079 55.7209C117.079 55.6961 117.079 55.6464 117.055 55.6215V55.5967C117.055 55.5718 117.055 55.547 117.031 55.5221C117.031 55.4724 117.007 55.4475 117.007 55.3978C116.982 55.2736 116.958 55.1742 116.934 55.0499C116.934 55.0002 116.91 54.9505 116.91 54.9008C116.91 54.8759 116.91 54.8759 116.91 54.8511C116.91 54.8014 116.886 54.7517 116.886 54.702C116.886 54.6771 116.886 54.6771 116.886 54.6522V54.6274C116.886 54.6025 116.862 54.5777 116.862 54.5528C116.862 54.5031 116.838 54.4783 116.838 54.4286C116.838 54.3789 116.814 54.3292 116.814 54.3043C116.79 54.2297 116.766 54.1303 116.742 54.0558C116.718 53.9812 116.718 53.9315 116.694 53.8818C116.694 53.8569 116.67 53.8321 116.67 53.8072C116.67 53.7824 116.645 53.7575 116.645 53.7327C116.621 53.6084 116.573 53.4841 116.549 53.3847C116.525 53.335 116.525 53.2605 116.501 53.2108C116.429 53.0119 116.381 52.7883 116.308 52.5894C116.308 52.5646 116.308 52.5646 116.284 52.5397C116.212 52.316 116.14 52.0924 116.044 51.8687C116.02 51.819 116.02 51.7941 115.996 51.7444C115.971 51.6947 115.947 51.6201 115.923 51.5704C115.923 51.5456 115.899 51.5456 115.899 51.5207C115.851 51.4213 115.827 51.3219 115.779 51.1976C115.755 51.1479 115.731 51.0982 115.707 51.0485C115.635 50.8994 115.586 50.7254 115.514 50.5763C115.514 50.5515 115.49 50.5266 115.49 50.5266C115.49 50.5266 115.49 50.5266 115.49 50.5018C115.466 50.4769 115.466 50.4272 115.442 50.4023C115.346 50.1787 115.249 49.955 115.153 49.7562C115.129 49.7064 115.105 49.6567 115.081 49.607C115.081 49.5822 115.057 49.5822 115.057 49.5573C114.985 49.4082 114.912 49.2839 114.864 49.1348C114.84 49.0851 114.816 49.0603 114.816 49.0106C114.744 48.8863 114.696 48.762 114.624 48.6378C114.624 48.6378 114.624 48.6378 114.624 48.6129C114.599 48.5632 114.575 48.5383 114.551 48.4886C114.527 48.4638 114.527 48.4141 114.503 48.3892C114.287 47.9667 114.046 47.5691 113.781 47.1714C113.757 47.1466 113.757 47.1217 113.733 47.1217C113.613 46.9477 113.492 46.7738 113.396 46.5998C113.372 46.5749 113.372 46.5501 113.348 46.5252C112.939 45.9288 112.529 45.3571 112.072 44.8104C112.048 44.7855 112.048 44.7855 112.024 44.7607C111.88 44.5867 111.735 44.4127 111.591 44.2387C111.278 43.8659 110.941 43.518 110.604 43.17C110.435 42.9961 110.267 42.847 110.098 42.673C110.098 42.673 110.098 42.673 110.074 42.6481C109.545 42.1511 109.015 41.6789 108.437 41.2315C108.437 41.2315 108.437 41.2315 108.413 41.2066C107.836 40.7593 107.258 40.3368 106.656 39.9391C103.094 37.6278 98.8574 36.2857 94.3322 36.2857C93.7063 36.2857 93.1046 36.3106 92.5028 36.3603C91.5881 36.4348 90.7216 36.5591 89.831 36.7331C89.8069 36.7331 89.7588 36.7331 89.7347 36.7579C89.5903 36.7828 89.4459 36.8076 89.3255 36.8573C89.2774 36.8573 89.2292 36.8822 89.1811 36.8822C89.0607 36.907 88.9163 36.9567 88.7959 36.9816C88.7478 37.0064 88.6997 37.0064 88.6515 37.0313C88.5312 37.0562 88.4108 37.1059 88.2905 37.1307C88.2423 37.1556 88.1701 37.1556 88.122 37.1804C88.0016 37.2053 87.8813 37.255 87.7609 37.2798C87.7128 37.3047 87.6406 37.3047 87.5924 37.3295C87.4721 37.3544 87.3517 37.4041 87.2554 37.4538C87.2073 37.4787 87.1351 37.5035 87.0869 37.5035C86.9666 37.5532 86.8703 37.5781 86.75 37.6278C86.7018 37.6526 86.6296 37.6775 86.5574 37.7023C86.437 37.752 86.3408 37.7769 86.2204 37.8266C86.1482 37.8515 86.1001 37.8763 86.0278 37.9012C85.9075 37.9509 85.8112 38.0006 85.6909 38.0254C85.6187 38.0503 85.5705 38.0751 85.4983 38.1C85.402 38.1497 85.2817 38.1994 85.1854 38.2491C85.1372 38.274 85.065 38.2988 85.0169 38.3237C84.9206 38.3734 84.8003 38.4231 84.704 38.4728C84.6558 38.4976 84.5836 38.5225 84.5355 38.5474C84.4392 38.5971 84.3188 38.6468 84.2226 38.6965C84.1744 38.7213 84.1022 38.7462 84.0541 38.7959C83.9578 38.8456 83.8374 38.8953 83.7412 38.9699C83.693 38.9947 83.6449 39.0196 83.5727 39.0693C83.4764 39.119 83.356 39.1935 83.2597 39.2432C83.2116 39.2681 83.1635 39.2929 83.1153 39.3427C83.019 39.3924 82.8987 39.4669 82.8024 39.5415C82.7543 39.5663 82.7061 39.5912 82.658 39.616C82.5376 39.6906 82.4414 39.7403 82.321 39.8149C82.2969 39.8397 82.2488 39.8646 82.2247 39.8894C82.1766 39.9143 82.1284 39.964 82.0803 39.9888C82.0081 40.0385 81.9359 40.0882 81.8637 40.1131C81.8637 40.1131 81.8396 40.1131 81.8396 40.138C81.31 40.4859 80.8046 40.8587 80.2991 41.2564C80.2991 41.2564 80.2991 41.2564 80.275 41.2812C80.2509 41.3061 80.2269 41.3061 80.2269 41.3309C80.2028 41.3558 80.1547 41.3806 80.1306 41.4055C80.0343 41.48 79.938 41.5546 79.8417 41.6291C79.7936 41.6789 79.7455 41.7037 79.6973 41.7534C79.601 41.828 79.5288 41.9025 79.4325 41.9771C79.3844 42.0268 79.3363 42.0765 79.2881 42.1014C79.2159 42.1759 79.1196 42.2505 79.0474 42.325C78.9993 42.3747 78.9511 42.4245 78.8789 42.4742C78.8067 42.5487 78.7345 42.6233 78.6623 42.673C78.6623 42.673 78.6623 42.673 78.6382 42.6978C78.5901 42.7475 78.5419 42.7973 78.4697 42.847C78.3975 42.9215 78.3253 42.9961 78.2531 43.0706C78.205 43.1203 78.1327 43.1701 78.0846 43.2446C78.0124 43.3192 77.9402 43.3937 77.868 43.4683C77.8198 43.518 77.7476 43.5926 77.6995 43.6423C77.6273 43.7168 77.555 43.7914 77.4828 43.8659C77.4347 43.9156 77.3625 43.9902 77.3143 44.0399C77.2421 44.1145 77.194 44.189 77.1218 44.2636C77.0736 44.3133 77.0255 44.3879 76.9533 44.4624C76.8811 44.537 76.8329 44.6115 76.7607 44.6861C76.7126 44.7607 76.6644 44.8104 76.5922 44.8849C76.52 44.9595 76.4719 45.034 76.3997 45.1086C76.3515 45.1832 76.3034 45.2329 76.2312 45.3074C76.159 45.382 76.1108 45.4565 76.0386 45.556C75.9905 45.6305 75.9423 45.7051 75.8942 45.7548C75.846 45.8293 75.7738 45.9039 75.7257 46.0033C75.6776 46.0779 75.6294 46.1524 75.5813 46.227C75.5331 46.3016 75.4609 46.3761 75.4128 46.4755C75.3887 46.5252 75.3646 46.5749 75.3165 46.5998L75.2924 46.6247C75.2684 46.6495 75.2684 46.6744 75.2443 46.6744C75.1961 46.7489 75.148 46.8235 75.0758 46.9229C75.0277 46.9974 74.9795 47.072 74.9314 47.1466L74.9073 47.1714C74.8832 47.1963 74.8832 47.2211 74.8592 47.2211C74.8351 47.2708 74.7869 47.3205 74.7629 47.3702C74.7147 47.4448 74.6666 47.5194 74.6185 47.5939C74.5703 47.6685 74.5222 47.743 74.474 47.8425C74.4259 47.917 74.3777 48.0164 74.3296 48.091C74.2815 48.1655 74.2333 48.2401 74.1852 48.3395C74.1611 48.3644 74.137 48.4141 74.113 48.4638C74.0889 48.4886 74.0889 48.5135 74.0648 48.5383C74.0408 48.5632 74.0408 48.5881 74.0167 48.6129C74.0167 48.6378 73.9926 48.6378 73.9926 48.6626C73.9926 48.6626 73.9926 48.6626 73.9926 48.6875C73.9686 48.7372 73.9445 48.7869 73.9204 48.8366C73.8723 48.9111 73.8482 48.9857 73.8001 49.0851C73.776 49.1348 73.7519 49.1597 73.7519 49.1845C73.7278 49.2342 73.7038 49.2839 73.6797 49.3337C73.6556 49.4082 73.6075 49.4828 73.5834 49.5325C73.5834 49.5573 73.5594 49.5822 73.5594 49.607C73.5594 49.6319 73.5353 49.6319 73.5353 49.6567C73.5112 49.7313 73.4631 49.781 73.439 49.8556C73.4149 49.9301 73.3668 50.0047 73.3427 50.0792C73.2946 50.1787 73.2464 50.2781 73.2224 50.3526C73.1983 50.4023 73.1983 50.4272 73.1742 50.4769C73.1502 50.5018 73.1502 50.5515 73.1261 50.5763C73.1261 50.5763 73.1261 50.5763 73.1261 50.6012C73.1261 50.626 73.102 50.626 73.102 50.6509C73.0779 50.7254 73.0298 50.8 73.0057 50.8994C72.9817 50.974 72.9335 51.0485 72.9095 51.1231C72.8854 51.1728 72.8854 51.1976 72.8613 51.2473C72.8372 51.2971 72.8132 51.3468 72.7891 51.4213C72.765 51.471 72.741 51.5456 72.7169 51.5953C72.7169 51.6201 72.6928 51.6201 72.6928 51.645V51.6699C72.6687 51.7444 72.6447 51.819 72.5965 51.9184C72.5965 51.9184 72.5965 51.9184 72.5965 51.9432V51.9681C72.5725 52.0427 72.5484 52.1421 72.5003 52.2166C72.4762 52.316 72.428 52.4155 72.404 52.5149C72.3799 52.5646 72.3799 52.5894 72.3558 52.6391C72.3558 52.664 72.3558 52.664 72.3318 52.6888C72.3318 52.7137 72.3077 52.7385 72.3077 52.7882C72.2836 52.8877 72.2355 52.9871 72.2114 53.0865C72.1873 53.1611 72.1633 53.2356 72.1392 53.335C72.1392 53.3599 72.1151 53.4096 72.1151 53.4593C72.0911 53.5338 72.067 53.5836 72.067 53.6581C72.0429 53.7327 72.0188 53.8072 71.9948 53.8818C71.9948 53.9066 71.9948 53.9066 71.9707 53.9315C71.9466 54.0061 71.9466 54.0558 71.9226 54.1303C71.9226 54.1552 71.8985 54.2049 71.8985 54.2297C71.8744 54.3043 71.8504 54.4037 71.8263 54.4783C71.8263 54.5031 71.8263 54.528 71.8022 54.528C71.7781 54.6025 71.7781 54.6771 71.7541 54.7517C71.7541 54.7765 71.7541 54.8014 71.73 54.8262V54.8511C71.73 54.8759 71.73 54.8759 71.73 54.9008C71.73 54.9505 71.7059 55.0002 71.7059 55.0499C71.7059 55.0499 71.7059 55.0499 71.7059 55.0747V55.0996C71.6819 55.199 71.6578 55.2736 71.6578 55.373C71.6337 55.4475 71.6337 55.547 71.6096 55.6215C71.6096 55.6464 71.5856 55.6712 71.5856 55.6961C71.5856 55.7458 71.5615 55.7706 71.5615 55.8203C71.5615 55.8203 71.5615 55.8203 71.5615 55.8452C71.5615 55.8452 71.5615 55.8452 71.5615 55.8701C71.5615 55.8949 71.5615 55.9198 71.5374 55.9695C71.5134 56.044 71.5134 56.1434 71.4893 56.218C71.4893 56.2677 71.4652 56.3423 71.4652 56.392C71.4652 56.4417 71.4412 56.4665 71.4412 56.5162C71.4412 56.5411 71.4412 56.5659 71.4171 56.5908C71.4171 56.6654 71.393 56.7151 71.393 56.7896C71.393 56.8393 71.3689 56.889 71.3689 56.9636C71.3689 56.9884 71.3689 57.0133 71.3689 57.0382C71.3689 57.0879 71.3689 57.1127 71.3449 57.1624C71.3449 57.1873 71.3449 57.237 71.3208 57.2618C71.3208 57.2867 71.3208 57.3115 71.3208 57.3364L97.2447 83.8548C98.0871 83.7554 98.9296 83.5814 99.748 83.3826H99.7721C99.9646 83.3329 100.157 83.2832 100.35 83.2335C100.374 83.2335 100.398 83.2086 100.446 83.2086C101 83.0595 101.529 82.8855 102.059 82.6867C102.107 82.6618 102.155 82.6618 102.203 82.637C102.348 82.5873 102.492 82.5376 102.612 82.4879C102.709 82.463 102.781 82.4133 102.877 82.3884C102.998 82.3387 103.118 82.289 103.238 82.2393C103.359 82.1896 103.455 82.1399 103.575 82.0902C103.671 82.0405 103.792 81.9908 103.888 81.9411C104.081 81.8417 104.297 81.7423 104.49 81.6428C104.562 81.5931 104.658 81.5683 104.731 81.5186C104.875 81.444 105.019 81.3695 105.14 81.2949C105.212 81.2452 105.308 81.1955 105.38 81.1706C105.525 81.0961 105.669 80.9967 105.814 80.9221C105.886 80.8724 105.958 80.8475 106.006 80.7978C106.223 80.6736 106.416 80.5493 106.608 80.425C107.21 80.0274 107.812 79.6049 108.365 79.1575C108.365 79.1575 108.365 79.1575 108.389 79.1575C108.943 78.7102 109.497 78.238 110.026 77.7409C110.026 77.7409 110.05 77.7409 110.05 77.716C110.219 77.5421 110.387 77.393 110.556 77.219C110.893 76.871 111.23 76.5231 111.543 76.1503C111.567 76.1254 111.591 76.1006 111.615 76.0509C111.735 75.9018 111.855 75.7526 111.976 75.6035C112 75.5787 112 75.5787 112.024 75.5538C112.481 75.007 112.89 74.4354 113.3 73.8389C113.324 73.8141 113.324 73.7892 113.348 73.7644C113.468 73.5904 113.589 73.4164 113.685 73.2425C113.709 73.2176 113.709 73.1928 113.733 73.1928C113.974 72.7951 114.214 72.3974 114.455 71.9749C114.479 71.9501 114.479 71.9004 114.503 71.8755C114.527 71.8258 114.551 71.801 114.575 71.7513C114.575 71.7513 114.575 71.7513 114.575 71.7264C114.648 71.6021 114.72 71.4779 114.768 71.3536C114.792 71.3039 114.816 71.2791 114.84 71.2293C114.912 71.0802 114.985 70.956 115.033 70.8068C115.033 70.782 115.057 70.782 115.057 70.7571C115.081 70.7074 115.105 70.6577 115.129 70.608C115.225 70.3843 115.322 70.1855 115.418 69.9618C115.442 69.937 115.442 69.8873 115.466 69.8624C115.466 69.8624 115.466 69.8624 115.466 69.8376C115.466 69.8127 115.49 69.7879 115.49 69.7879C115.562 69.6387 115.61 69.4648 115.683 69.3156C115.707 69.2659 115.731 69.2162 115.755 69.1665C115.803 69.0671 115.827 68.9677 115.875 68.8434C115.875 68.8186 115.875 68.8186 115.899 68.7937C115.923 68.744 115.947 68.6695 115.971 68.6198C115.996 68.5701 115.996 68.5452 116.02 68.4955C116.092 68.2718 116.188 68.0481 116.26 67.8245C116.26 67.7996 116.26 67.7996 116.284 67.7747C116.357 67.5759 116.405 67.3771 116.477 67.1534C116.501 67.1037 116.501 67.0292 116.525 66.9794C116.549 66.8552 116.597 66.7309 116.621 66.6315C116.621 66.6066 116.645 66.5818 116.645 66.5569C116.645 66.5321 116.67 66.5072 116.67 66.4824C116.694 66.4327 116.694 66.3581 116.718 66.3084C116.742 66.2338 116.766 66.1344 116.79 66.0599C116.79 66.0102 116.814 65.9605 116.814 65.9356C116.814 65.8859 116.838 65.861 116.838 65.8113C116.838 65.7865 116.862 65.7616 116.862 65.7368V65.7119C116.862 65.6871 116.862 65.6871 116.862 65.6622C116.862 65.6125 116.886 65.5628 116.886 65.5131C116.886 65.4883 116.886 65.4882 116.886 65.4634C116.886 65.4137 116.91 65.364 116.91 65.3143C116.934 65.19 116.958 65.0906 116.982 64.9663C116.982 64.9166 117.007 64.8918 117.007 64.8421C117.007 64.8172 117.007 64.7924 117.031 64.7675V64.7427C117.031 64.7178 117.031 64.6681 117.055 64.6432C117.079 64.519 117.103 64.3947 117.127 64.2704C117.127 64.1959 117.151 64.1462 117.151 64.0716C117.151 64.0468 117.151 64.0219 117.175 63.9971C117.199 63.8976 117.199 63.7982 117.223 63.674C117.223 63.6491 117.223 63.5994 117.247 63.5746C117.247 63.5248 117.247 63.5 117.271 63.4503C117.271 63.4254 117.271 63.3757 117.295 63.3509C117.319 63.2515 117.319 63.152 117.319 63.0278C117.319 62.9532 117.344 62.8787 117.344 62.7792C117.344 62.7295 117.344 62.6798 117.368 62.6301C117.368 62.6053 117.368 62.5804 117.368 62.5556C117.368 62.5307 117.368 62.5307 117.368 62.5059C117.368 62.481 117.368 62.4313 117.368 62.4065C117.368 62.4065 117.368 62.4065 117.368 62.3816C117.368 62.307 117.392 62.2325 117.392 62.1331C117.392 62.0585 117.392 61.9839 117.416 61.9094C117.416 61.8597 117.416 61.81 117.416 61.7851C117.416 61.7354 117.416 61.7106 117.416 61.6609C117.416 61.6111 117.416 61.5614 117.416 61.5117C117.416 61.462 117.416 61.4372 117.416 61.3875C117.416 61.3626 117.416 61.3129 117.416 61.2881C117.416 61.2383 117.416 61.2135 117.416 61.1638C117.416 61.1141 117.416 61.0644 117.416 61.0147C117.416 60.9898 117.416 60.965 117.416 60.965C117.416 60.9401 117.416 60.9153 117.416 60.8904C117.416 60.6667 117.416 60.4679 117.416 60.2442C117.416 60.0205 117.464 59.6974 117.464 59.4738Z" fill="url(#paint13_linear_21_310600)"/>
<path id="Vector_15" d="M58.7077 84.8987C60.4408 86.6881 67.1564 89.9936 69.058 90.4906C69.1062 90.4906 69.1543 90.5155 69.2024 90.5155C69.395 90.5652 89.6623 94.666 100.061 84.0785C102.372 81.7174 106.223 81.5932 108.534 83.9791C110.844 86.365 110.844 90.2421 108.534 92.628C93.7543 107.888 68.6729 102.892 66.8195 102.495C66.2418 102.37 65.4715 102.147 64.605 101.824L64.3884 101.774C55.2416 99.5372 45.6134 102.346 38.9459 109.23C38.0312 110.174 36.5629 110.174 35.6723 109.23L22.7224 95.8589C21.3985 94.492 21.3985 92.2801 22.7224 90.938L28.5234 84.9484C36.8277 76.2994 50.3793 76.2994 58.7077 84.8987Z" fill="url(#paint14_linear_21_310600)"/>
<path id="Vector_16" d="M64.5811 101.799C65.4476 102.122 66.2178 102.346 66.7955 102.47C67.7584 102.669 74.8591 104.085 83.5486 103.34V91.0622C75.9423 91.8824 69.2989 90.5403 69.2026 90.5155C69.1544 90.5155 69.1063 90.4906 69.0582 90.4906C67.1566 89.9935 60.4409 86.6881 58.7079 84.8986C50.3795 76.2994 36.8278 76.2994 28.4995 84.8986L22.6985 90.8883C21.3746 92.2552 21.3746 94.4671 22.6985 95.8092L35.6484 109.18C36.5631 110.125 38.0313 110.125 38.922 109.18C45.5654 102.321 55.1936 99.4875 64.3644 101.724L64.5811 101.799Z" fill="url(#paint15_linear_21_310600)"/>
<path id="Vector_17" d="M48.6705 92.0564C48.8631 92.2552 49.1038 92.454 49.3204 92.6528C54.4955 96.6293 60.9223 98.5679 67.3973 98.1205C73.9445 97.6483 80.1065 94.7654 84.728 89.9687C87.0388 87.5828 87.0388 83.7305 84.728 81.3446C82.4173 78.9587 78.6863 78.9587 76.3756 81.3446C71.0319 86.862 62.4388 87.5331 56.373 82.8855C53.7494 80.8724 50.0425 81.444 48.0928 84.153C46.3357 86.5638 46.6245 89.9438 48.6705 92.0564Z" fill="url(#paint16_linear_21_310600)"/>
<path id="Vector_18" d="M24.3834 82.1399L19.8341 86.8372C18.7269 87.9804 18.7269 89.8196 19.8341 90.9379L40.7032 112.486C41.8104 113.629 43.5916 113.629 44.6748 112.486L49.2241 107.788C50.3314 106.645 50.3314 104.806 49.2241 103.688L28.355 82.1399C27.2478 80.9967 25.4666 80.9967 24.3834 82.1399Z" fill="url(#paint17_linear_21_310600)"/>
<path id="Vector_19" d="M16.5365 84.6501L6.61947 94.8896C5.46408 96.0826 5.46408 97.9963 6.61947 99.1644L32.7118 126.105C33.8672 127.298 35.7206 127.298 36.852 126.105L46.769 115.866C47.9244 114.673 47.9244 112.759 46.769 111.591L20.6766 84.6501C19.5453 83.4571 17.6919 83.4571 16.5365 84.6501Z" fill="url(#paint18_linear_21_310600)"/>
<path id="Vector_20" d="M95.1023 23.9088C95.1023 37.1307 84.728 47.8176 71.9465 47.8176C59.1411 47.8176 48.7908 37.1059 48.7908 23.9088C48.7908 10.7117 59.1411 0 71.9465 0C84.752 0 95.1023 10.7117 95.1023 23.9088Z" fill="url(#paint19_radial_21_310600)"/>
<path id="Vector_21" d="M48.7908 23.9088C48.7908 32.4583 53.1235 39.9392 59.6465 44.1642H84.2706C90.7937 39.9392 95.1264 32.4335 95.1264 23.9088C95.1264 15.3842 90.7937 7.87849 84.2706 3.65344H59.6225C53.1235 7.90334 48.7908 15.3842 48.7908 23.9088Z" fill="url(#paint20_linear_21_310600)"/>
<path id="Vector_22" d="M48.7908 23.9088C48.7908 29.9978 51.0053 35.565 54.6158 39.79H89.2773C92.9119 35.565 95.1023 29.9978 95.1023 23.9088C95.1023 17.8198 92.8878 12.2526 89.2773 8.02759H54.6158C50.9812 12.2775 48.7908 17.8198 48.7908 23.9088Z" fill="url(#paint21_linear_21_310600)"/>
<path id="Vector_23" d="M48.7908 23.9088C48.7908 27.4628 49.537 30.8429 50.8849 33.875H93.0082C94.3561 30.8429 95.1023 27.4628 95.1023 23.9088C95.1023 20.3548 94.3561 16.9748 93.0082 13.9427H50.8849C49.537 16.9748 48.7908 20.3548 48.7908 23.9088Z" fill="url(#paint22_linear_21_310600)"/>
<path id="Vector_24" d="M48.7908 23.9088C48.7908 25.9716 49.0315 27.9599 49.5129 29.8736H94.3802C94.8616 27.9599 95.1023 25.9716 95.1023 23.9088C95.1023 21.846 94.8375 19.8577 94.3802 17.944H49.5129C49.0315 19.8577 48.7908 21.8708 48.7908 23.9088Z" fill="url(#paint23_linear_21_310600)"/>
<path id="Vector_25" d="M70.1172 0.074585C58.1782 1.04386 48.7908 11.3579 48.7908 23.9088C48.7908 36.4846 58.1782 46.7738 70.1172 47.7431C82.0561 46.7738 91.4436 36.4597 91.4436 23.9088C91.4436 11.3579 82.0321 1.04386 70.1172 0.074585Z" fill="url(#paint24_radial_21_310600)"/>
</g>
<defs>
<radialGradient id="paint0_radial_21_310600" cx="0" cy="0" r="1" gradientUnits="userSpaceOnUse" gradientTransform="translate(50.0544 60.1236) scale(23.1656 23.9189)">
<stop stop-color="#FF4974"/>
<stop offset="0.4073" stop-color="#FE4772"/>
<stop offset="0.5963" stop-color="#FB3F6D"/>
<stop offset="0.7403" stop-color="#F73363"/>
<stop offset="0.8615" stop-color="#F02055"/>
<stop offset="0.9673" stop-color="#E70944"/>
<stop offset="1" stop-color="#E4003D"/>
</radialGradient>
<linearGradient id="paint1_linear_21_310600" x1="50.0546" y1="56.3444" x2="50.0546" y2="99.0872" gradientUnits="userSpaceOnUse">
<stop stop-color="#E4003D" stop-opacity="0"/>
<stop offset="0.5838" stop-color="#BD294B" stop-opacity="0.5843"/>
<stop offset="1" stop-color="#A64153"/>
</linearGradient>
<linearGradient id="paint2_linear_21_310600" x1="50.0546" y1="65.9117" x2="50.0546" y2="22.7184" gradientUnits="userSpaceOnUse">
<stop stop-color="#A1B5D8" stop-opacity="0"/>
<stop offset="0.2564" stop-color="#98ABCA" stop-opacity="0.2549"/>
<stop offset="0.7358" stop-color="#8292A6" stop-opacity="0.7373"/>
<stop offset="1" stop-color="#748290"/>
</linearGradient>
<linearGradient id="paint3_linear_21_310600" x1="50.0546" y1="60.8467" x2="50.0546" y2="74.6606" gradientUnits="userSpaceOnUse">
<stop stop-color="#E4003D" stop-opacity="0"/>
<stop offset="0.5838" stop-color="#BD294B" stop-opacity="0.5843"/>
<stop offset="1" stop-color="#A64153"/>
</linearGradient>
<linearGradient id="paint4_linear_21_310600" x1="50.055" y1="65.3489" x2="50.055" y2="41.8259" gradientUnits="userSpaceOnUse">
<stop stop-color="#E4003D" stop-opacity="0"/>
<stop offset="0.5838" stop-color="#BD294B" stop-opacity="0.5843"/>
<stop offset="1" stop-color="#A64153"/>
</linearGradient>
<radialGradient id="paint5_radial_21_310600" cx="0" cy="0" r="1" gradientUnits="userSpaceOnUse" gradientTransform="translate(41.4351 53.6712) scale(32.4309 33.4856)">
<stop stop-color="#FF4974"/>
<stop offset="0.4073" stop-color="#FE4772"/>
<stop offset="0.5963" stop-color="#FB3F6D"/>
<stop offset="0.7403" stop-color="#F73363"/>
<stop offset="0.8615" stop-color="#F02055"/>
<stop offset="0.9673" stop-color="#E70944"/>
<stop offset="1" stop-color="#E4003D"/>
</radialGradient>
<linearGradient id="paint6_linear_21_310600" x1="71.694" y1="53.0674" x2="63.1321" y2="44.7752" gradientUnits="userSpaceOnUse">
<stop stop-color="#E4003D" stop-opacity="0"/>
<stop offset="0.5838" stop-color="#BD294B" stop-opacity="0.5843"/>
<stop offset="1" stop-color="#A64153"/>
</linearGradient>
<radialGradient id="paint7_radial_21_310600" cx="0" cy="0" r="1" gradientUnits="userSpaceOnUse" gradientTransform="translate(93.1791 59.2991) scale(24.1282 24.9129)">
<stop stop-color="#FF4974"/>
<stop offset="0.4073" stop-color="#FE4772"/>
<stop offset="0.5963" stop-color="#FB3F6D"/>
<stop offset="0.7403" stop-color="#F73363"/>
<stop offset="0.8615" stop-color="#F02055"/>
<stop offset="0.9673" stop-color="#E70944"/>
<stop offset="1" stop-color="#E4003D"/>
</radialGradient>
<linearGradient id="paint8_linear_21_310600" x1="94.304" y1="56.3444" x2="94.304" y2="99.0872" gradientUnits="userSpaceOnUse">
<stop stop-color="#E4003D" stop-opacity="0"/>
<stop offset="0.5838" stop-color="#BD294B" stop-opacity="0.5843"/>
<stop offset="1" stop-color="#A64153"/>
</linearGradient>
<linearGradient id="paint9_linear_21_310600" x1="94.304" y1="65.9117" x2="94.304" y2="22.7184" gradientUnits="userSpaceOnUse">
<stop stop-color="#E4003D" stop-opacity="0"/>
<stop offset="0.5838" stop-color="#BD294B" stop-opacity="0.5843"/>
<stop offset="1" stop-color="#A64153"/>
</linearGradient>
<linearGradient id="paint10_linear_21_310600" x1="94.304" y1="60.8467" x2="94.304" y2="74.6606" gradientUnits="userSpaceOnUse">
<stop stop-color="#E4003D" stop-opacity="0"/>
<stop offset="0.5838" stop-color="#BD294B" stop-opacity="0.5843"/>
<stop offset="1" stop-color="#A64153"/>
</linearGradient>
<linearGradient id="paint11_linear_21_310600" x1="94.304" y1="65.3489" x2="94.304" y2="41.8259" gradientUnits="userSpaceOnUse">
<stop stop-color="#E4003D" stop-opacity="0"/>
<stop offset="0.5838" stop-color="#BD294B" stop-opacity="0.5843"/>
<stop offset="1" stop-color="#A64153"/>
</linearGradient>
<radialGradient id="paint12_radial_21_310600" cx="0" cy="0" r="1" gradientUnits="userSpaceOnUse" gradientTransform="translate(85.6846 53.6712) scale(32.4309 33.4856)">
<stop stop-color="#FF4974"/>
<stop offset="0.4073" stop-color="#FE4772"/>
<stop offset="0.5963" stop-color="#FB3F6D"/>
<stop offset="0.7403" stop-color="#F73363"/>
<stop offset="0.8615" stop-color="#F02055"/>
<stop offset="0.9673" stop-color="#E70944"/>
<stop offset="1" stop-color="#E4003D"/>
</radialGradient>
<linearGradient id="paint13_linear_21_310600" x1="97.4214" y1="60.3711" x2="80.7458" y2="33.8846" gradientUnits="userSpaceOnUse">
<stop stop-color="#E4003D" stop-opacity="0"/>
<stop offset="0.5838" stop-color="#BD294B" stop-opacity="0.5843"/>
<stop offset="1" stop-color="#A64153"/>
</linearGradient>
<linearGradient id="paint14_linear_21_310600" x1="110.277" y1="94.1706" x2="21.7149" y2="94.1706" gradientUnits="userSpaceOnUse">
<stop stop-color="#FFC738"/>
<stop offset="0.4286" stop-color="#FFBB23"/>
<stop offset="1" stop-color="#FFA700"/>
</linearGradient>
<linearGradient id="paint15_linear_21_310600" x1="61.2396" y1="86.0809" x2="85.4624" y2="55.2125" gradientUnits="userSpaceOnUse">
<stop stop-color="#FF5D00" stop-opacity="0"/>
<stop offset="1" stop-color="#D54003"/>
</linearGradient>
<linearGradient id="paint16_linear_21_310600" x1="77.9666" y1="88.8533" x2="38.4328" y2="88.8533" gradientUnits="userSpaceOnUse">
<stop stop-color="#FFC738"/>
<stop offset="0.4286" stop-color="#FFBB23"/>
<stop offset="1" stop-color="#FFA700"/>
</linearGradient>
<linearGradient id="paint17_linear_21_310600" x1="37.2347" y1="94.5156" x2="32.8567" y2="98.7557" gradientUnits="userSpaceOnUse">
<stop stop-color="#FFFCF8"/>
<stop offset="0.1875" stop-color="#FAF8F6"/>
<stop offset="0.4041" stop-color="#ECEEF2"/>
<stop offset="0.6353" stop-color="#D5DCEA"/>
<stop offset="0.875" stop-color="#B5C4DF"/>
<stop offset="1" stop-color="#A1B5D8"/>
</linearGradient>
<linearGradient id="paint18_linear_21_310600" x1="26.9508" y1="105.634" x2="40.8919" y2="119.136" gradientUnits="userSpaceOnUse">
<stop stop-color="#3B395F"/>
<stop offset="0.0633" stop-color="#37355A"/>
<stop offset="0.4033" stop-color="#232543"/>
<stop offset="0.7232" stop-color="#171B35"/>
<stop offset="1" stop-color="#131830"/>
</linearGradient>
<radialGradient id="paint19_radial_21_310600" cx="0" cy="0" r="1" gradientUnits="userSpaceOnUse" gradientTransform="translate(71.943 23.9255) scale(23.1656 23.9189)">
<stop stop-color="#FF4974"/>
<stop offset="0.4073" stop-color="#FE4772"/>
<stop offset="0.5963" stop-color="#FB3F6D"/>
<stop offset="0.7403" stop-color="#F73363"/>
<stop offset="0.8615" stop-color="#F02055"/>
<stop offset="0.9673" stop-color="#E70944"/>
<stop offset="1" stop-color="#E4003D"/>
</radialGradient>
<linearGradient id="paint20_linear_21_310600" x1="71.943" y1="20.1463" x2="71.943" y2="62.8891" gradientUnits="userSpaceOnUse">
<stop stop-color="#E4003D" stop-opacity="0"/>
<stop offset="0.5838" stop-color="#BD294B" stop-opacity="0.5843"/>
<stop offset="1" stop-color="#A64153"/>
</linearGradient>
<linearGradient id="paint21_linear_21_310600" x1="71.943" y1="29.7136" x2="71.943" y2="-13.4798" gradientUnits="userSpaceOnUse">
<stop stop-color="#E4003D" stop-opacity="0"/>
<stop offset="0.5838" stop-color="#BD294B" stop-opacity="0.5843"/>
<stop offset="1" stop-color="#A64153"/>
</linearGradient>
<linearGradient id="paint22_linear_21_310600" x1="71.943" y1="24.6486" x2="71.943" y2="38.4625" gradientUnits="userSpaceOnUse">
<stop stop-color="#E4003D" stop-opacity="0"/>
<stop offset="0.5838" stop-color="#BD294B" stop-opacity="0.5843"/>
<stop offset="1" stop-color="#A64153"/>
</linearGradient>
<linearGradient id="paint23_linear_21_310600" x1="71.9434" y1="29.1508" x2="71.9434" y2="5.62782" gradientUnits="userSpaceOnUse">
<stop stop-color="#E4003D" stop-opacity="0"/>
<stop offset="0.5838" stop-color="#BD294B" stop-opacity="0.5843"/>
<stop offset="1" stop-color="#A64153"/>
</linearGradient>
<radialGradient id="paint24_radial_21_310600" cx="0" cy="0" r="1" gradientUnits="userSpaceOnUse" gradientTransform="translate(63.3235 17.4731) scale(32.4309 33.4856)">
<stop stop-color="#FF4974"/>
<stop offset="0.4073" stop-color="#FE4772"/>
<stop offset="0.5963" stop-color="#FB3F6D"/>
<stop offset="0.7403" stop-color="#F73363"/>
<stop offset="0.8615" stop-color="#F02055"/>
<stop offset="0.9673" stop-color="#E70944"/>
<stop offset="1" stop-color="#E4003D"/>
</radialGradient>
<clipPath id="clip0_21_310600">
<rect width="123" height="127" fill="white"/>
</clipPath>
</defs>
</svg>
