<?xml version="1.0" encoding="UTF-8"?>
<svg id="Capa_2" data-name="Capa 2" xmlns="http://www.w3.org/2000/svg" viewBox="0 0 258 111.96">
  <defs>
    <style>
      .cls-1 {
        fill: #fff;
      }

      .cls-1, .cls-2, .cls-3, .cls-4 {
        stroke-width: 0px;
      }

      .cls-2 {
        fill: #ab2b22;
      }

      .cls-3 {
        fill: #084f98;
      }

      .cls-4 {
        fill: #e73633;
      }
    </style>
  </defs>
  <g id="Capa_1-2" data-name="Capa 1">
    <path class="cls-3" d="m47.68,98.25c0-.36.3-.67.65-.67h4.29c1.32,0,2.37.38,3.03,1.03.48.5.74,1.12.74,1.86v.03c0,1.51-.93,2.3-1.84,2.69,1.38.42,2.49,1.21,2.49,2.81v.03c0,1.99-1.67,3.17-4.21,3.17h-4.51c-.35,0-.65-.3-.65-.67v-10.31h0Zm4.72,4.52c1.58,0,2.67-.71,2.67-2.08v-.03c0-1.15-.91-1.89-2.57-1.89h-3.53v4.01h3.43Zm.46,5.27c1.76,0,2.85-.78,2.85-2.08v-.03c0-1.26-1.06-2-3.08-2h-3.67v4.11h3.9Z"/>
    <path class="cls-3" d="m58.45,97.93c0-.42.33-.68.75-.68s.76.26.76.68v.22c0,.4-.33.68-.76.68s-.75-.29-.75-.68v-.22Zm.12,3.26c0-.35.28-.65.63-.65s.65.28.65.65v7.46c0,.37-.26.65-.63.65s-.65-.29-.65-.65v-7.46h0Z"/>
    <path class="cls-3" d="m65.55,109.43c-2.35,0-4.28-1.81-4.28-4.48v-.03c0-2.48,1.74-4.48,4.11-4.48,2.54,0,3.98,2.08,3.98,4.35,0,.35-.28.6-.6.6h-6.2c.18,1.86,1.49,2.91,3.02,2.91,1.06,0,1.84-.42,2.47-1,.1-.08.22-.15.36-.15.32,0,.56.25.56.55,0,.15-.06.3-.2.42-.81.78-1.77,1.3-3.23,1.3h0Zm2.54-4.97c-.13-1.56-1.03-2.92-2.74-2.92-1.49,0-2.62,1.25-2.78,2.92h5.52Z"/>
    <path class="cls-3" d="m70.63,101.19c0-.35.28-.65.63-.65s.65.29.65.65v.93c.56-.93,1.46-1.68,2.93-1.68,2.07,0,3.28,1.4,3.28,3.44v4.77c0,.37-.28.65-.63.65s-.65-.29-.65-.65v-4.45c0-1.6-.86-2.59-2.37-2.59s-2.57,1.08-2.57,2.69v4.36c0,.36-.26.65-.63.65s-.65-.29-.65-.65v-7.47h0Z"/>
    <path class="cls-3" d="m83.59,109.43c-2.35,0-4.28-1.81-4.28-4.48v-.03c0-2.48,1.74-4.48,4.11-4.48,2.54,0,3.98,2.08,3.98,4.35,0,.35-.28.6-.6.6h-6.2c.18,1.86,1.49,2.91,3.02,2.91,1.06,0,1.84-.42,2.47-1,.1-.08.22-.15.36-.15.32,0,.56.25.56.55,0,.15-.06.3-.2.42-.81.78-1.77,1.3-3.23,1.3h0Zm2.54-4.97c-.13-1.56-1.03-2.92-2.74-2.92-1.49,0-2.62,1.25-2.78,2.92h5.52Z"/>
    <path class="cls-3" d="m88.2,108.31c-.12-.08-.23-.25-.23-.47,0-.3.25-.55.56-.55.12,0,.23.03.32.1.88.6,1.79.92,2.72.92,1.03,0,1.77-.53,1.77-1.36v-.03c0-.86-1.01-1.2-2.14-1.51-1.34-.38-2.84-.85-2.84-2.43v-.03c0-1.48,1.23-2.46,2.92-2.46.91,0,1.9.29,2.74.73.16.1.32.29.32.53,0,.3-.25.55-.56.55-.12,0-.22-.03-.28-.06-.73-.42-1.51-.67-2.24-.67-1.01,0-1.66.53-1.66,1.25v.03c0,.82,1.06,1.13,2.2,1.48,1.32.4,2.75.92,2.75,2.46v.03c0,1.63-1.34,2.58-3.05,2.58-1.13,0-2.37-.42-3.3-1.08h-.02Z"/>
    <path class="cls-3" d="m96.21,106.95v-5.19h-.7c-.3,0-.56-.26-.56-.57,0-.32.26-.57.56-.57h.7v-2.03c0-.35.26-.65.63-.65s.65.3.65.65v2.03h2.22c.32,0,.58.26.58.57,0,.32-.26.57-.58.57h-2.22v5.02c0,1.05.58,1.43,1.44,1.43.45,0,.68-.12.78-.12.3,0,.55.25.55.55,0,.23-.15.42-.36.5-.36.15-.76.23-1.26.23-1.38,0-2.42-.68-2.42-2.43Z"/>
    <path class="cls-3" d="m100.82,106.73v-.03c0-1.81,1.49-2.78,3.67-2.78,1.1,0,1.87.15,2.64.36v-.3c0-1.54-.94-2.34-2.55-2.34-.86,0-1.59.2-2.22.48-.08.03-.16.05-.23.05-.3,0-.56-.25-.56-.55,0-.26.18-.47.35-.54.84-.36,1.71-.58,2.8-.58,1.21,0,2.14.32,2.77.95.58.58.88,1.41.88,2.51v4.7c0,.36-.26.64-.61.64s-.61-.26-.61-.6v-.78c-.6.78-1.59,1.48-3.1,1.48-1.59,0-3.2-.92-3.2-2.68h0Zm6.32-.67v-.83c-.63-.19-1.48-.37-2.52-.37-1.61,0-2.5.7-2.5,1.78v.03c0,1.08,1,1.71,2.16,1.71,1.58,0,2.87-.96,2.87-2.33Z"/>
    <path class="cls-3" d="m110.07,101.19c0-.35.28-.65.63-.65s.65.29.65.65v1.61c.63-1.43,1.87-2.3,2.95-2.3.38,0,.63.29.63.65s-.23.6-.56.65c-1.66.2-3.02,1.45-3.02,3.92v2.93c0,.35-.26.65-.63.65s-.65-.29-.65-.65v-7.46h.01Z"/>
    <path class="cls-3" d="m119.76,101.19c0-.37.28-.65.63-.65s.65.28.65.65v1.16c.7-1.03,1.71-1.92,3.28-1.92,2.06,0,4.09,1.63,4.09,4.46v.03c0,2.81-2.02,4.48-4.09,4.48-1.59,0-2.62-.86-3.28-1.83v3.74c0,.36-.26.65-.63.65s-.65-.29-.65-.65v-10.13h0Zm7.34,3.76v-.03c0-2.03-1.39-3.33-3.02-3.33s-3.1,1.35-3.1,3.31v.03c0,1.99,1.51,3.33,3.1,3.33s3.02-1.23,3.02-3.31Z"/>
    <path class="cls-3" d="m129.14,106.73v-.03c0-1.81,1.49-2.78,3.67-2.78,1.1,0,1.87.15,2.64.36v-.3c0-1.54-.94-2.34-2.55-2.34-.86,0-1.59.2-2.22.48-.09.03-.16.05-.23.05-.3,0-.56-.25-.56-.55,0-.26.18-.47.35-.54.84-.36,1.71-.58,2.8-.58,1.21,0,2.13.32,2.77.95.58.58.88,1.41.88,2.51v4.7c0,.36-.26.64-.61.64s-.61-.26-.61-.6v-.78c-.6.78-1.59,1.48-3.1,1.48-1.59,0-3.2-.92-3.2-2.68h0Zm6.32-.67v-.83c-.63-.19-1.48-.37-2.52-.37-1.61,0-2.51.7-2.51,1.78v.03c0,1.08,1,1.71,2.16,1.71,1.58,0,2.87-.96,2.87-2.33Z"/>
    <path class="cls-3" d="m138.38,101.19c0-.35.28-.65.63-.65s.65.29.65.65v1.61c.63-1.43,1.87-2.3,2.95-2.3.38,0,.63.29.63.65s-.23.6-.56.65c-1.66.2-3.02,1.45-3.02,3.92v2.93c0,.35-.26.65-.63.65s-.65-.29-.65-.65v-7.46h.01Z"/>
    <path class="cls-3" d="m143.04,106.73v-.03c0-1.81,1.49-2.78,3.67-2.78,1.1,0,1.87.15,2.64.36v-.3c0-1.54-.94-2.34-2.55-2.34-.86,0-1.59.2-2.22.48-.09.03-.16.05-.23.05-.3,0-.57-.25-.57-.55,0-.26.18-.47.35-.54.84-.36,1.71-.58,2.8-.58,1.21,0,2.14.32,2.77.95.58.58.88,1.41.88,2.51v4.7c0,.36-.26.64-.61.64s-.61-.26-.61-.6v-.78c-.6.78-1.59,1.48-3.1,1.48-1.59,0-3.2-.92-3.2-2.68h0Zm6.32-.67v-.83c-.63-.19-1.48-.37-2.52-.37-1.61,0-2.51.7-2.51,1.78v.03c0,1.08,1,1.71,2.16,1.71,1.58,0,2.87-.96,2.87-2.33Z"/>
    <path class="cls-3" d="m158.94,99.94h-2.45c-.65,0-1.18-.53-1.18-1.18s.53-1.18,1.18-1.18h7.46c.65,0,1.18.53,1.18,1.18s-.53,1.18-1.18,1.18h-2.45v8.1c0,.71-.56,1.28-1.28,1.28s-1.28-.57-1.28-1.28v-8.1Z"/>
    <path class="cls-3" d="m164.97,103.44v-.03c0-3.31,2.6-6.02,6.18-6.02s6.15,2.68,6.15,5.99v.03c0,3.31-2.6,6.02-6.18,6.02s-6.15-2.68-6.15-5.98h0Zm9.67,0v-.03c0-1.99-1.46-3.65-3.51-3.65s-3.48,1.63-3.48,3.62v.03c0,2,1.46,3.66,3.51,3.66s3.48-1.63,3.48-3.62h0Z"/>
    <path class="cls-3" d="m178.58,98.87c0-.71.56-1.28,1.28-1.28h3.25c3.65,0,6.16,2.51,6.16,5.79v.03c0,3.28-2.52,5.82-6.16,5.82h-3.25c-.71,0-1.28-.57-1.28-1.28v-9.08Zm4.53,8.05c2.09,0,3.5-1.41,3.5-3.48v-.03c0-2.06-1.41-3.51-3.5-3.51h-1.97v7.01h1.97Z"/>
    <path class="cls-3" d="m190.04,103.44v-.03c0-3.31,2.6-6.02,6.18-6.02s6.15,2.68,6.15,5.99v.03c0,3.31-2.6,6.02-6.18,6.02s-6.15-2.68-6.15-5.98h0Zm9.67,0v-.03c0-1.99-1.46-3.65-3.51-3.65s-3.48,1.63-3.48,3.62v.03c0,2,1.46,3.66,3.51,3.66s3.48-1.63,3.48-3.62h0Z"/>
    <path class="cls-3" d="m203.34,108c-.28-.2-.48-.57-.48-.96,0-.67.53-1.18,1.19-1.18.33,0,.56.12.73.23.88.65,1.84,1.05,2.97,1.05,1.04,0,1.67-.42,1.67-1.1v-.03c0-.65-.4-.98-2.34-1.48-2.34-.6-3.84-1.25-3.84-3.56v-.03c0-2.11,1.69-3.51,4.06-3.51,1.41,0,2.64.37,3.68,1.03.28.16.56.51.56,1.02,0,.67-.53,1.18-1.19,1.18-.25,0-.45-.07-.65-.19-.84-.5-1.64-.78-2.44-.78-.98,0-1.49.45-1.49,1.01v.03c0,.77.5,1.02,2.5,1.53,2.35.61,3.68,1.47,3.68,3.49v.03c0,2.31-1.76,3.61-4.26,3.61-1.52,0-3.06-.47-4.36-1.4Z"/>
    <path class="cls-3" d="m239.39,31.88H94.63l-.55,4.23h145.31c7.94,0,14.4,6.48,14.4,14.45v10.92c0,7.97-6.46,14.45-14.4,14.45H88.8c-.32,1.47-.8,2.89-1.44,4.23h152.02c10.27,0,18.61-8.38,18.61-18.68v-10.92c0-10.3-8.35-18.68-18.61-18.68h0Z"/>
    <path class="cls-4" d="m67.84,1.81c-14.31-1.88-27.55,8.33-29.42,22.68l-.71,5.43-6.48-.85c-14.31-1.88-27.55,8.33-29.42,22.68-1.87,14.35,8.3,27.64,22.61,29.52l31.37,4.12h.02l11.97,1.57c8.33,1.1,16.04-4.85,17.13-13.21l1.42-10.9,1.59-12.15,2.53-19.38c1.87-14.35-8.3-27.64-22.61-29.52h0Z"/>
    <path class="cls-3" d="m103.94,66.07l-7.41-17.8c-.16-.39-.3-.79-.3-1.21,0-1.41,1.11-2.49,2.52-2.49,1.31,0,2.16.75,2.55,1.77l5.72,14.85,5.78-15.01c.33-.82,1.21-1.61,2.42-1.61,1.37,0,2.48,1.05,2.48,2.42,0,.39-.13.82-.26,1.12l-7.48,17.96c-.52,1.24-1.47,2-2.84,2h-.33c-1.37,0-2.32-.76-2.84-2h.01Z"/>
    <path class="cls-3" d="m118.35,45.95c0-1.44,1.21-2.33,2.78-2.33s2.78.88,2.78,2.33v.06c0,1.44-1.21,2.36-2.78,2.36s-2.78-.92-2.78-2.36v-.06Zm.29,6.49c0-1.38,1.11-2.49,2.48-2.49s2.48,1.12,2.48,2.49v12.98c0,1.38-1.11,2.49-2.48,2.49s-2.48-1.12-2.48-2.49v-12.98Z"/>
    <path class="cls-3" d="m143.93,65.42c0,1.38-1.11,2.49-2.48,2.49s-2.48-1.12-2.48-2.49v-.23c-1.21,1.64-2.87,2.85-5.45,2.85-4.08,0-7.97-3.21-7.97-9.08v-.06c0-5.87,3.82-9.08,7.97-9.08,2.65,0,4.28,1.21,5.45,2.62v-6.36c0-1.38,1.11-2.49,2.48-2.49s2.48,1.12,2.48,2.49v19.34h0Zm-13.43-6.52v.06c0,2.92,1.96,4.85,4.28,4.85s4.25-1.94,4.25-4.85v-.06c0-2.92-1.93-4.85-4.25-4.85s-4.28,1.9-4.28,4.85Z"/>
    <path class="cls-3" d="m145.36,62.67v-.06c0-3.84,2.91-5.6,7.06-5.6,1.76,0,3.04.3,4.28.72v-.3c0-2.06-1.28-3.21-3.75-3.21-1.37,0-2.48.2-3.43.49-.3.1-.49.13-.72.13-1.14,0-2.06-.88-2.06-2.03,0-.88.55-1.64,1.34-1.94,1.57-.59,3.26-.92,5.58-.92,2.71,0,4.67.72,5.91,1.97,1.31,1.31,1.89,3.24,1.89,5.6v7.99c0,1.34-1.08,2.39-2.41,2.39-1.44,0-2.38-1.02-2.38-2.06v-.03c-1.21,1.34-2.87,2.23-5.29,2.23-3.3,0-6.01-1.9-6.01-5.38h-.01Zm11.4-1.15v-.88c-.85-.39-1.96-.66-3.17-.66-2.12,0-3.43.85-3.43,2.42v.06c0,1.34,1.11,2.13,2.71,2.13,2.32,0,3.89-1.28,3.89-3.08Z"/>
    <path class="cls-3" d="m171.7,65.29c-.55-.39-.95-1.12-.95-1.9,0-1.31,1.04-2.33,2.35-2.33.65,0,1.11.23,1.44.46,1.73,1.28,3.63,2.06,5.85,2.06,2.06,0,3.3-.82,3.3-2.16v-.06c0-1.28-.79-1.93-4.61-2.92-4.6-1.18-7.58-2.46-7.58-7.02v-.06c0-4.16,3.33-6.91,8-6.91,2.78,0,5.19.72,7.25,2.03.55.33,1.11,1.02,1.11,2,0,1.31-1.04,2.33-2.35,2.33-.49,0-.88-.13-1.28-.36-1.67-.98-3.23-1.54-4.8-1.54-1.93,0-2.94.88-2.94,2v.06c0,1.51.98,2,4.93,3.02,4.64,1.21,7.25,2.88,7.25,6.88v.06c0,4.56-3.46,7.11-8.39,7.11-3.01,0-6.04-.92-8.59-2.75h0Z"/>
    <path class="cls-3" d="m189.53,62.67v-.06c0-3.84,2.91-5.6,7.06-5.6,1.76,0,3.04.3,4.28.72v-.3c0-2.06-1.28-3.21-3.75-3.21-1.37,0-2.48.2-3.43.49-.3.1-.49.13-.72.13-1.14,0-2.06-.88-2.06-2.03,0-.88.55-1.64,1.34-1.94,1.57-.59,3.26-.92,5.58-.92,2.71,0,4.67.72,5.91,1.97,1.31,1.31,1.89,3.24,1.89,5.6v7.99c0,1.34-1.07,2.39-2.41,2.39-1.44,0-2.38-1.02-2.38-2.06v-.03c-1.21,1.34-2.87,2.23-5.29,2.23-3.3,0-6.01-1.9-6.01-5.38h-.01Zm11.4-1.15v-.88c-.85-.39-1.96-.66-3.17-.66-2.12,0-3.43.85-3.43,2.42v.06c0,1.34,1.11,2.13,2.71,2.13,2.32,0,3.89-1.28,3.89-3.08Z"/>
    <path class="cls-3" d="m207.96,52.44c0-1.38,1.11-2.49,2.48-2.49s2.48,1.12,2.48,2.49v.2c1.14-1.48,2.62-2.82,5.13-2.82,3.76,0,5.94,2.49,5.94,6.52v9.08c0,1.38-1.11,2.49-2.48,2.49s-2.48-1.12-2.48-2.49v-7.51c0-2.36-1.11-3.57-3.01-3.57s-3.1,1.21-3.1,3.57v7.51c0,1.38-1.11,2.49-2.48,2.49s-2.48-1.12-2.48-2.49v-12.98Z"/>
    <path class="cls-3" d="m225.3,62.67v-.06c0-3.84,2.9-5.6,7.06-5.6,1.76,0,3.04.3,4.28.72v-.3c0-2.06-1.28-3.21-3.76-3.21-1.37,0-2.48.2-3.43.49-.29.1-.49.13-.72.13-1.14,0-2.06-.88-2.06-2.03,0-.88.55-1.64,1.34-1.94,1.57-.59,3.26-.92,5.58-.92,2.71,0,4.67.72,5.91,1.97,1.31,1.31,1.89,3.24,1.89,5.6v7.99c0,1.34-1.08,2.39-2.42,2.39-1.44,0-2.38-1.02-2.38-2.06v-.03c-1.21,1.34-2.87,2.23-5.29,2.23-3.3,0-6.01-1.9-6.01-5.38h0Zm11.4-1.15v-.88c-.85-.39-1.96-.66-3.17-.66-2.13,0-3.43.85-3.43,2.42v.06c0,1.34,1.11,2.13,2.71,2.13,2.32,0,3.89-1.28,3.89-3.08Z"/>
    <path class="cls-1" d="m13.83,56.28v-.06c0-6.49,4.84-11.87,11.56-11.87,3.69,0,6.04,1.21,8.17,2.98.26.23.52.59.52,1.05,0,.69-.62,1.28-1.31,1.28-.36,0-.65-.16-.85-.3-1.76-1.57-3.75-2.62-6.57-2.62-5.06,0-8.85,4.13-8.85,9.41v.06c0,5.31,3.82,9.47,8.85,9.47,2.84,0,4.84-.98,6.79-2.79.2-.2.49-.36.82-.36.65,0,1.24.59,1.24,1.24,0,.39-.2.72-.43.92-2.25,2.06-4.74,3.38-8.5,3.38-6.6,0-11.46-5.21-11.46-11.8h0Z"/>
    <path class="cls-1" d="m36.8,44.87c0-.69.55-1.28,1.24-1.28s1.28.59,1.28,1.28v21.7c0,.72-.52,1.28-1.24,1.28s-1.28-.56-1.28-1.28v-21.7Z"/>
    <path class="cls-1" d="m57.68,66.57c0,.69-.52,1.28-1.24,1.28s-1.24-.56-1.24-1.28v-1.84c-1.14,1.84-2.87,3.31-5.78,3.31-4.08,0-6.47-2.75-6.47-6.78v-9.41c0-.72.52-1.28,1.24-1.28s1.28.56,1.28,1.28v8.78c0,3.15,1.7,5.11,4.67,5.11s5.06-2.13,5.06-5.31v-8.59c0-.72.52-1.28,1.24-1.28s1.24.56,1.24,1.28v14.71h0Z"/>
    <path class="cls-1" d="m61.37,44.87c0-.72.55-1.28,1.24-1.28s1.28.56,1.28,1.28v9.27c1.37-2.03,3.36-3.77,6.47-3.77,4.05,0,8.07,3.21,8.07,8.78v.06c0,5.54-3.99,8.81-8.07,8.81-3.14,0-5.16-1.7-6.47-3.6v2.13c0,.69-.52,1.28-1.24,1.28s-1.28-.59-1.28-1.28v-21.7Zm14.47,14.39v-.06c0-4-2.74-6.55-5.94-6.55s-6.11,2.66-6.11,6.52v.06c0,3.93,2.97,6.56,6.11,6.56s5.94-2.42,5.94-6.52Z"/>
    <path class="cls-2" d="m68.04.24c-7.34-.96-14.63,1.01-20.55,5.57-5.91,4.56-9.69,11.12-10.65,18.48l-.5,3.86-4.91-.65C16.23,25.5,2.23,36.29.24,51.55c-1.99,15.26,8.76,29.3,23.97,31.3l31.32,4.12s.05,0,.07.01l11.97,1.57c.74.1,1.47.14,2.2.14,3.69,0,7.26-1.22,10.24-3.52,3.58-2.76,5.87-6.73,6.45-11.2l5.54-42.44c1.99-15.26-8.76-29.3-23.97-31.3h0Zm20.84,30.89l-5.54,42.44c-.47,3.62-2.34,6.85-5.25,9.09-2.91,2.24-6.5,3.22-10.11,2.75l-11.93-1.57s-.05,0-.07-.01l-31.37-4.12c-13.48-1.77-23.01-14.22-21.25-27.74.85-6.52,4.2-12.34,9.44-16.38,4.37-3.37,9.6-5.15,14.99-5.15,1.07,0,2.14.07,3.22.21l4.91.65-.88,6.73c-.11.87.5,1.67,1.36,1.78.07.01.14.02.21.02.78,0,1.46-.58,1.57-1.38l1.79-13.73c.85-6.52,4.2-12.34,9.44-16.38,5.24-4.04,11.71-5.79,18.2-4.94,13.48,1.77,23.01,14.22,21.25,27.74h0Z"/>
  </g>
</svg>