<svg width="103" height="104" viewBox="0 0 103 104" fill="none" xmlns="http://www.w3.org/2000/svg">
<g id="QR-APP MOVIL 1" clip-path="url(#clip0_104_322)">
<g id="Group">
<path id="Vector" d="M103 0.8396H0V103.84H103V0.8396Z" fill="white"/>
<path id="Vector_2" d="M7.62951 4.65442H3.8147V8.46923H7.62951V4.65442Z" fill="black"/>
<path id="Vector_3" d="M11.4445 4.65442H7.62964V8.46923H11.4445V4.65442Z" fill="black"/>
<path id="Vector_4" d="M15.2592 4.65442H11.4443V8.46923H15.2592V4.65442Z" fill="black"/>
<path id="Vector_5" d="M19.0741 4.65442H15.2593V8.46923H19.0741V4.65442Z" fill="black"/>
<path id="Vector_6" d="M22.8888 4.65442H19.074V8.46923H22.8888V4.65442Z" fill="black"/>
<path id="Vector_7" d="M26.7037 4.65442H22.8889V8.46923H26.7037V4.65442Z" fill="black"/>
<path id="Vector_8" d="M30.5184 4.65442H26.7036V8.46923H30.5184V4.65442Z" fill="black"/>
<path id="Vector_9" d="M38.1481 4.65442H34.3333V8.46923H38.1481V4.65442Z" fill="black"/>
<path id="Vector_10" d="M41.963 4.65442H38.1482V8.46923H41.963V4.65442Z" fill="black"/>
<path id="Vector_11" d="M45.7777 4.65442H41.9629V8.46923H45.7777V4.65442Z" fill="black"/>
<path id="Vector_12" d="M49.5926 4.65442H45.7778V8.46923H49.5926V4.65442Z" fill="black"/>
<path id="Vector_13" d="M61.037 4.65442H57.2222V8.46923H61.037V4.65442Z" fill="black"/>
<path id="Vector_14" d="M68.6666 4.65442H64.8518V8.46923H68.6666V4.65442Z" fill="black"/>
<path id="Vector_15" d="M76.2963 4.65442H72.4814V8.46923H76.2963V4.65442Z" fill="black"/>
<path id="Vector_16" d="M80.1112 4.65442H76.2964V8.46923H80.1112V4.65442Z" fill="black"/>
<path id="Vector_17" d="M83.9259 4.65442H80.1111V8.46923H83.9259V4.65442Z" fill="black"/>
<path id="Vector_18" d="M87.7408 4.65442H83.926V8.46923H87.7408V4.65442Z" fill="black"/>
<path id="Vector_19" d="M91.5555 4.65442H87.7407V8.46923H91.5555V4.65442Z" fill="black"/>
<path id="Vector_20" d="M95.3705 4.65442H91.5557V8.46923H95.3705V4.65442Z" fill="black"/>
<path id="Vector_21" d="M99.1852 4.65442H95.3704V8.46923H99.1852V4.65442Z" fill="black"/>
<path id="Vector_22" d="M7.62951 8.46924H3.8147V12.2841H7.62951V8.46924Z" fill="black"/>
<path id="Vector_23" d="M30.5184 8.46924H26.7036V12.2841H30.5184V8.46924Z" fill="black"/>
<path id="Vector_24" d="M49.5926 8.46924H45.7778V12.2841H49.5926V8.46924Z" fill="black"/>
<path id="Vector_25" d="M53.4073 8.46924H49.5925V12.2841H53.4073V8.46924Z" fill="black"/>
<path id="Vector_26" d="M68.6666 8.46924H64.8518V12.2841H68.6666V8.46924Z" fill="black"/>
<path id="Vector_27" d="M76.2963 8.46924H72.4814V12.2841H76.2963V8.46924Z" fill="black"/>
<path id="Vector_28" d="M99.1852 8.46924H95.3704V12.2841H99.1852V8.46924Z" fill="black"/>
<path id="Vector_29" d="M7.62951 12.2841H3.8147V16.0989H7.62951V12.2841Z" fill="black"/>
<path id="Vector_30" d="M15.2592 12.2841H11.4443V16.0989H15.2592V12.2841Z" fill="black"/>
<path id="Vector_31" d="M19.0741 12.2841H15.2593V16.0989H19.0741V12.2841Z" fill="black"/>
<path id="Vector_32" d="M22.8888 12.2841H19.074V16.0989H22.8888V12.2841Z" fill="black"/>
<path id="Vector_33" d="M30.5184 12.2841H26.7036V16.0989H30.5184V12.2841Z" fill="black"/>
<path id="Vector_34" d="M41.963 12.2841H38.1482V16.0989H41.963V12.2841Z" fill="black"/>
<path id="Vector_35" d="M49.5926 12.2841H45.7778V16.0989H49.5926V12.2841Z" fill="black"/>
<path id="Vector_36" d="M57.2223 12.2841H53.4075V16.0989H57.2223V12.2841Z" fill="black"/>
<path id="Vector_37" d="M61.037 12.2841H57.2222V16.0989H61.037V12.2841Z" fill="black"/>
<path id="Vector_38" d="M76.2963 12.2841H72.4814V16.0989H76.2963V12.2841Z" fill="black"/>
<path id="Vector_39" d="M83.9259 12.2841H80.1111V16.0989H83.9259V12.2841Z" fill="black"/>
<path id="Vector_40" d="M87.7408 12.2841H83.926V16.0989H87.7408V12.2841Z" fill="black"/>
<path id="Vector_41" d="M91.5555 12.2841H87.7407V16.0989H91.5555V12.2841Z" fill="black"/>
<path id="Vector_42" d="M99.1852 12.2841H95.3704V16.0989H99.1852V12.2841Z" fill="black"/>
<path id="Vector_43" d="M7.62951 16.0989H3.8147V19.9137H7.62951V16.0989Z" fill="black"/>
<path id="Vector_44" d="M15.2592 16.0989H11.4443V19.9137H15.2592V16.0989Z" fill="black"/>
<path id="Vector_45" d="M19.0741 16.0989H15.2593V19.9137H19.0741V16.0989Z" fill="black"/>
<path id="Vector_46" d="M22.8888 16.0989H19.074V19.9137H22.8888V16.0989Z" fill="black"/>
<path id="Vector_47" d="M30.5184 16.0989H26.7036V19.9137H30.5184V16.0989Z" fill="black"/>
<path id="Vector_48" d="M45.7777 16.0989H41.9629V19.9137H45.7777V16.0989Z" fill="black"/>
<path id="Vector_49" d="M49.5926 16.0989H45.7778V19.9137H49.5926V16.0989Z" fill="black"/>
<path id="Vector_50" d="M57.2223 16.0989H53.4075V19.9137H57.2223V16.0989Z" fill="black"/>
<path id="Vector_51" d="M64.8519 16.0989H61.0371V19.9137H64.8519V16.0989Z" fill="black"/>
<path id="Vector_52" d="M68.6666 16.0989H64.8518V19.9137H68.6666V16.0989Z" fill="black"/>
<path id="Vector_53" d="M76.2963 16.0989H72.4814V19.9137H76.2963V16.0989Z" fill="black"/>
<path id="Vector_54" d="M83.9259 16.0989H80.1111V19.9137H83.9259V16.0989Z" fill="black"/>
<path id="Vector_55" d="M87.7408 16.0989H83.926V19.9137H87.7408V16.0989Z" fill="black"/>
<path id="Vector_56" d="M91.5555 16.0989H87.7407V19.9137H91.5555V16.0989Z" fill="black"/>
<path id="Vector_57" d="M99.1852 16.0989H95.3704V19.9137H99.1852V16.0989Z" fill="black"/>
<path id="Vector_58" d="M7.62951 19.9137H3.8147V23.7285H7.62951V19.9137Z" fill="black"/>
<path id="Vector_59" d="M15.2592 19.9137H11.4443V23.7285H15.2592V19.9137Z" fill="black"/>
<path id="Vector_60" d="M19.0741 19.9137H15.2593V23.7285H19.0741V19.9137Z" fill="black"/>
<path id="Vector_61" d="M22.8888 19.9137H19.074V23.7285H22.8888V19.9137Z" fill="black"/>
<path id="Vector_62" d="M30.5184 19.9137H26.7036V23.7285H30.5184V19.9137Z" fill="black"/>
<path id="Vector_63" d="M45.7777 19.9137H41.9629V23.7285H45.7777V19.9137Z" fill="black"/>
<path id="Vector_64" d="M49.5926 19.9137H45.7778V23.7285H49.5926V19.9137Z" fill="black"/>
<path id="Vector_65" d="M53.4073 19.9137H49.5925V23.7285H53.4073V19.9137Z" fill="black"/>
<path id="Vector_66" d="M68.6666 19.9137H64.8518V23.7285H68.6666V19.9137Z" fill="black"/>
<path id="Vector_67" d="M76.2963 19.9137H72.4814V23.7285H76.2963V19.9137Z" fill="black"/>
<path id="Vector_68" d="M83.9259 19.9137H80.1111V23.7285H83.9259V19.9137Z" fill="black"/>
<path id="Vector_69" d="M87.7408 19.9137H83.926V23.7285H87.7408V19.9137Z" fill="black"/>
<path id="Vector_70" d="M91.5555 19.9137H87.7407V23.7285H91.5555V19.9137Z" fill="black"/>
<path id="Vector_71" d="M99.1852 19.9137H95.3704V23.7285H99.1852V19.9137Z" fill="black"/>
<path id="Vector_72" d="M7.62951 23.7285H3.8147V27.5433H7.62951V23.7285Z" fill="black"/>
<path id="Vector_73" d="M30.5184 23.7285H26.7036V27.5433H30.5184V23.7285Z" fill="black"/>
<path id="Vector_74" d="M41.963 23.7285H38.1482V27.5433H41.963V23.7285Z" fill="black"/>
<path id="Vector_75" d="M49.5926 23.7285H45.7778V27.5433H49.5926V23.7285Z" fill="black"/>
<path id="Vector_76" d="M57.2223 23.7285H53.4075V27.5433H57.2223V23.7285Z" fill="black"/>
<path id="Vector_77" d="M61.037 23.7285H57.2222V27.5433H61.037V23.7285Z" fill="black"/>
<path id="Vector_78" d="M68.6666 23.7285H64.8518V27.5433H68.6666V23.7285Z" fill="black"/>
<path id="Vector_79" d="M76.2963 23.7285H72.4814V27.5433H76.2963V23.7285Z" fill="black"/>
<path id="Vector_80" d="M99.1852 23.7285H95.3704V27.5433H99.1852V23.7285Z" fill="black"/>
<path id="Vector_81" d="M7.62951 27.5433H3.8147V31.3581H7.62951V27.5433Z" fill="black"/>
<path id="Vector_82" d="M11.4445 27.5433H7.62964V31.3581H11.4445V27.5433Z" fill="black"/>
<path id="Vector_83" d="M15.2592 27.5433H11.4443V31.3581H15.2592V27.5433Z" fill="black"/>
<path id="Vector_84" d="M19.0741 27.5433H15.2593V31.3581H19.0741V27.5433Z" fill="black"/>
<path id="Vector_85" d="M22.8888 27.5433H19.074V31.3581H22.8888V27.5433Z" fill="black"/>
<path id="Vector_86" d="M26.7037 27.5433H22.8889V31.3581H26.7037V27.5433Z" fill="black"/>
<path id="Vector_87" d="M30.5184 27.5433H26.7036V31.3581H30.5184V27.5433Z" fill="black"/>
<path id="Vector_88" d="M38.1481 27.5433H34.3333V31.3581H38.1481V27.5433Z" fill="black"/>
<path id="Vector_89" d="M45.7777 27.5433H41.9629V31.3581H45.7777V27.5433Z" fill="black"/>
<path id="Vector_90" d="M53.4073 27.5433H49.5925V31.3581H53.4073V27.5433Z" fill="black"/>
<path id="Vector_91" d="M61.037 27.5433H57.2222V31.3581H61.037V27.5433Z" fill="black"/>
<path id="Vector_92" d="M68.6666 27.5433H64.8518V31.3581H68.6666V27.5433Z" fill="black"/>
<path id="Vector_93" d="M76.2963 27.5433H72.4814V31.3581H76.2963V27.5433Z" fill="black"/>
<path id="Vector_94" d="M80.1112 27.5433H76.2964V31.3581H80.1112V27.5433Z" fill="black"/>
<path id="Vector_95" d="M83.9259 27.5433H80.1111V31.3581H83.9259V27.5433Z" fill="black"/>
<path id="Vector_96" d="M87.7408 27.5433H83.926V31.3581H87.7408V27.5433Z" fill="black"/>
<path id="Vector_97" d="M91.5555 27.5433H87.7407V31.3581H91.5555V27.5433Z" fill="black"/>
<path id="Vector_98" d="M95.3705 27.5433H91.5557V31.3581H95.3705V27.5433Z" fill="black"/>
<path id="Vector_99" d="M99.1852 27.5433H95.3704V31.3581H99.1852V27.5433Z" fill="black"/>
<path id="Vector_100" d="M38.1481 31.3581H34.3333V35.1729H38.1481V31.3581Z" fill="black"/>
<path id="Vector_101" d="M41.963 31.3581H38.1482V35.1729H41.963V31.3581Z" fill="black"/>
<path id="Vector_102" d="M53.4073 31.3581H49.5925V35.1729H53.4073V31.3581Z" fill="black"/>
<path id="Vector_103" d="M57.2223 31.3581H53.4075V35.1729H57.2223V31.3581Z" fill="black"/>
<path id="Vector_104" d="M68.6666 31.3581H64.8518V35.1729H68.6666V31.3581Z" fill="black"/>
<path id="Vector_105" d="M7.62951 35.1729H3.8147V38.9877H7.62951V35.1729Z" fill="black"/>
<path id="Vector_106" d="M11.4445 35.1729H7.62964V38.9877H11.4445V35.1729Z" fill="black"/>
<path id="Vector_107" d="M19.0741 35.1729H15.2593V38.9877H19.0741V35.1729Z" fill="black"/>
<path id="Vector_108" d="M22.8888 35.1729H19.074V38.9877H22.8888V35.1729Z" fill="black"/>
<path id="Vector_109" d="M30.5184 35.1729H26.7036V38.9877H30.5184V35.1729Z" fill="black"/>
<path id="Vector_110" d="M41.963 35.1729H38.1482V38.9877H41.963V35.1729Z" fill="black"/>
<path id="Vector_111" d="M53.4073 35.1729H49.5925V38.9877H53.4073V35.1729Z" fill="black"/>
<path id="Vector_112" d="M61.037 35.1729H57.2222V38.9877H61.037V35.1729Z" fill="black"/>
<path id="Vector_113" d="M64.8519 35.1729H61.0371V38.9877H64.8519V35.1729Z" fill="black"/>
<path id="Vector_114" d="M76.2963 35.1729H72.4814V38.9877H76.2963V35.1729Z" fill="black"/>
<path id="Vector_115" d="M99.1852 35.1729H95.3704V38.9877H99.1852V35.1729Z" fill="black"/>
<path id="Vector_116" d="M15.2592 38.9877H11.4443V42.8025H15.2592V38.9877Z" fill="black"/>
<path id="Vector_117" d="M19.0741 38.9877H15.2593V42.8025H19.0741V38.9877Z" fill="black"/>
<path id="Vector_118" d="M22.8888 38.9877H19.074V42.8025H22.8888V38.9877Z" fill="black"/>
<path id="Vector_119" d="M26.7037 38.9877H22.8889V42.8025H26.7037V38.9877Z" fill="black"/>
<path id="Vector_120" d="M34.3334 38.9877H30.5186V42.8025H34.3334V38.9877Z" fill="black"/>
<path id="Vector_121" d="M45.7777 38.9877H41.9629V42.8025H45.7777V38.9877Z" fill="black"/>
<path id="Vector_122" d="M64.8519 38.9877H61.0371V42.8025H64.8519V38.9877Z" fill="black"/>
<path id="Vector_123" d="M80.1112 38.9877H76.2964V42.8025H80.1112V38.9877Z" fill="black"/>
<path id="Vector_124" d="M83.9259 38.9877H80.1111V42.8025H83.9259V38.9877Z" fill="black"/>
<path id="Vector_125" d="M87.7408 38.9877H83.926V42.8025H87.7408V38.9877Z" fill="black"/>
<path id="Vector_126" d="M91.5555 38.9877H87.7407V42.8025H91.5555V38.9877Z" fill="black"/>
<path id="Vector_127" d="M95.3705 38.9877H91.5557V42.8025H95.3705V38.9877Z" fill="black"/>
<path id="Vector_128" d="M11.4445 42.8026H7.62964V46.6174H11.4445V42.8026Z" fill="black"/>
<path id="Vector_129" d="M26.7037 42.8026H22.8889V46.6174H26.7037V42.8026Z" fill="black"/>
<path id="Vector_130" d="M30.5184 42.8026H26.7036V46.6174H30.5184V42.8026Z" fill="black"/>
<path id="Vector_131" d="M38.1481 42.8026H34.3333V46.6174H38.1481V42.8026Z" fill="black"/>
<path id="Vector_132" d="M41.963 42.8026H38.1482V46.6174H41.963V42.8026Z" fill="black"/>
<path id="Vector_133" d="M53.4073 42.8026H49.5925V46.6174H53.4073V42.8026Z" fill="black"/>
<path id="Vector_134" d="M64.8519 42.8026H61.0371V46.6174H64.8519V42.8026Z" fill="black"/>
<path id="Vector_135" d="M76.2963 42.8026H72.4814V46.6174H76.2963V42.8026Z" fill="black"/>
<path id="Vector_136" d="M87.7408 42.8026H83.926V46.6174H87.7408V42.8026Z" fill="black"/>
<path id="Vector_137" d="M99.1852 42.8026H95.3704V46.6174H99.1852V42.8026Z" fill="black"/>
<path id="Vector_138" d="M7.62951 46.6174H3.8147V50.4322H7.62951V46.6174Z" fill="black"/>
<path id="Vector_139" d="M15.2592 46.6174H11.4443V50.4322H15.2592V46.6174Z" fill="black"/>
<path id="Vector_140" d="M19.0741 46.6174H15.2593V50.4322H19.0741V46.6174Z" fill="black"/>
<path id="Vector_141" d="M34.3334 46.6174H30.5186V50.4322H34.3334V46.6174Z" fill="black"/>
<path id="Vector_142" d="M38.1481 46.6174H34.3333V50.4322H38.1481V46.6174Z" fill="black"/>
<path id="Vector_143" d="M61.037 46.6174H57.2222V50.4322H61.037V46.6174Z" fill="black"/>
<path id="Vector_144" d="M64.8519 46.6174H61.0371V50.4322H64.8519V46.6174Z" fill="black"/>
<path id="Vector_145" d="M76.2963 46.6174H72.4814V50.4322H76.2963V46.6174Z" fill="black"/>
<path id="Vector_146" d="M80.1112 46.6174H76.2964V50.4322H80.1112V46.6174Z" fill="black"/>
<path id="Vector_147" d="M83.9259 46.6174H80.1111V50.4322H83.9259V46.6174Z" fill="black"/>
<path id="Vector_148" d="M87.7408 46.6174H83.926V50.4322H87.7408V46.6174Z" fill="black"/>
<path id="Vector_149" d="M91.5555 46.6174H87.7407V50.4322H91.5555V46.6174Z" fill="black"/>
<path id="Vector_150" d="M95.3705 46.6174H91.5557V50.4322H95.3705V46.6174Z" fill="black"/>
<path id="Vector_151" d="M99.1852 46.6174H95.3704V50.4322H99.1852V46.6174Z" fill="black"/>
<path id="Vector_152" d="M7.62951 50.4322H3.8147V54.247H7.62951V50.4322Z" fill="black"/>
<path id="Vector_153" d="M19.0741 50.4322H15.2593V54.247H19.0741V50.4322Z" fill="black"/>
<path id="Vector_154" d="M22.8888 50.4322H19.074V54.247H22.8888V50.4322Z" fill="black"/>
<path id="Vector_155" d="M30.5184 50.4322H26.7036V54.247H30.5184V50.4322Z" fill="black"/>
<path id="Vector_156" d="M41.963 50.4322H38.1482V54.247H41.963V50.4322Z" fill="black"/>
<path id="Vector_157" d="M45.7777 50.4322H41.9629V54.247H45.7777V50.4322Z" fill="black"/>
<path id="Vector_158" d="M61.037 50.4322H57.2222V54.247H61.037V50.4322Z" fill="black"/>
<path id="Vector_159" d="M68.6666 50.4322H64.8518V54.247H68.6666V50.4322Z" fill="black"/>
<path id="Vector_160" d="M76.2963 50.4322H72.4814V54.247H76.2963V50.4322Z" fill="black"/>
<path id="Vector_161" d="M80.1112 50.4322H76.2964V54.247H80.1112V50.4322Z" fill="black"/>
<path id="Vector_162" d="M99.1852 50.4322H95.3704V54.247H99.1852V50.4322Z" fill="black"/>
<path id="Vector_163" d="M7.62951 54.247H3.8147V58.0618H7.62951V54.247Z" fill="black"/>
<path id="Vector_164" d="M11.4445 54.247H7.62964V58.0618H11.4445V54.247Z" fill="black"/>
<path id="Vector_165" d="M19.0741 54.247H15.2593V58.0618H19.0741V54.247Z" fill="black"/>
<path id="Vector_166" d="M26.7037 54.247H22.8889V58.0618H26.7037V54.247Z" fill="black"/>
<path id="Vector_167" d="M38.1481 54.247H34.3333V58.0618H38.1481V54.247Z" fill="black"/>
<path id="Vector_168" d="M45.7777 54.247H41.9629V58.0618H45.7777V54.247Z" fill="black"/>
<path id="Vector_169" d="M53.4073 54.247H49.5925V58.0618H53.4073V54.247Z" fill="black"/>
<path id="Vector_170" d="M57.2223 54.247H53.4075V58.0618H57.2223V54.247Z" fill="black"/>
<path id="Vector_171" d="M64.8519 54.247H61.0371V58.0618H64.8519V54.247Z" fill="black"/>
<path id="Vector_172" d="M83.9259 54.247H80.1111V58.0618H83.9259V54.247Z" fill="black"/>
<path id="Vector_173" d="M95.3705 54.247H91.5557V58.0618H95.3705V54.247Z" fill="black"/>
<path id="Vector_174" d="M7.62951 58.0618H3.8147V61.8766H7.62951V58.0618Z" fill="black"/>
<path id="Vector_175" d="M11.4445 58.0618H7.62964V61.8766H11.4445V58.0618Z" fill="black"/>
<path id="Vector_176" d="M22.8888 58.0618H19.074V61.8766H22.8888V58.0618Z" fill="black"/>
<path id="Vector_177" d="M30.5184 58.0618H26.7036V61.8766H30.5184V58.0618Z" fill="black"/>
<path id="Vector_178" d="M41.963 58.0618H38.1482V61.8766H41.963V58.0618Z" fill="black"/>
<path id="Vector_179" d="M64.8519 58.0618H61.0371V61.8766H64.8519V58.0618Z" fill="black"/>
<path id="Vector_180" d="M72.4816 58.0618H68.6667V61.8766H72.4816V58.0618Z" fill="black"/>
<path id="Vector_181" d="M83.9259 58.0618H80.1111V61.8766H83.9259V58.0618Z" fill="black"/>
<path id="Vector_182" d="M87.7408 58.0618H83.926V61.8766H87.7408V58.0618Z" fill="black"/>
<path id="Vector_183" d="M91.5555 58.0618H87.7407V61.8766H91.5555V58.0618Z" fill="black"/>
<path id="Vector_184" d="M95.3705 58.0618H91.5557V61.8766H95.3705V58.0618Z" fill="black"/>
<path id="Vector_185" d="M99.1852 58.0618H95.3704V61.8766H99.1852V58.0618Z" fill="black"/>
<path id="Vector_186" d="M7.62951 61.8766H3.8147V65.6915H7.62951V61.8766Z" fill="black"/>
<path id="Vector_187" d="M22.8888 61.8766H19.074V65.6915H22.8888V61.8766Z" fill="black"/>
<path id="Vector_188" d="M38.1481 61.8766H34.3333V65.6915H38.1481V61.8766Z" fill="black"/>
<path id="Vector_189" d="M53.4073 61.8766H49.5925V65.6915H53.4073V61.8766Z" fill="black"/>
<path id="Vector_190" d="M64.8519 61.8766H61.0371V65.6915H64.8519V61.8766Z" fill="black"/>
<path id="Vector_191" d="M68.6666 61.8766H64.8518V65.6915H68.6666V61.8766Z" fill="black"/>
<path id="Vector_192" d="M76.2963 61.8766H72.4814V65.6915H76.2963V61.8766Z" fill="black"/>
<path id="Vector_193" d="M80.1112 61.8766H76.2964V65.6915H80.1112V61.8766Z" fill="black"/>
<path id="Vector_194" d="M91.5555 61.8766H87.7407V65.6915H91.5555V61.8766Z" fill="black"/>
<path id="Vector_195" d="M99.1852 61.8766H95.3704V65.6915H99.1852V61.8766Z" fill="black"/>
<path id="Vector_196" d="M7.62951 65.6915H3.8147V69.5063H7.62951V65.6915Z" fill="black"/>
<path id="Vector_197" d="M15.2592 65.6915H11.4443V69.5063H15.2592V65.6915Z" fill="black"/>
<path id="Vector_198" d="M19.0741 65.6915H15.2593V69.5063H19.0741V65.6915Z" fill="black"/>
<path id="Vector_199" d="M30.5184 65.6915H26.7036V69.5063H30.5184V65.6915Z" fill="black"/>
<path id="Vector_200" d="M34.3334 65.6915H30.5186V69.5063H34.3334V65.6915Z" fill="black"/>
<path id="Vector_201" d="M38.1481 65.6915H34.3333V69.5063H38.1481V65.6915Z" fill="black"/>
<path id="Vector_202" d="M41.963 65.6915H38.1482V69.5063H41.963V65.6915Z" fill="black"/>
<path id="Vector_203" d="M49.5926 65.6915H45.7778V69.5063H49.5926V65.6915Z" fill="black"/>
<path id="Vector_204" d="M53.4073 65.6915H49.5925V69.5063H53.4073V65.6915Z" fill="black"/>
<path id="Vector_205" d="M57.2223 65.6915H53.4075V69.5063H57.2223V65.6915Z" fill="black"/>
<path id="Vector_206" d="M68.6666 65.6915H64.8518V69.5063H68.6666V65.6915Z" fill="black"/>
<path id="Vector_207" d="M72.4816 65.6915H68.6667V69.5063H72.4816V65.6915Z" fill="black"/>
<path id="Vector_208" d="M76.2963 65.6915H72.4814V69.5063H76.2963V65.6915Z" fill="black"/>
<path id="Vector_209" d="M80.1112 65.6915H76.2964V69.5063H80.1112V65.6915Z" fill="black"/>
<path id="Vector_210" d="M83.9259 65.6915H80.1111V69.5063H83.9259V65.6915Z" fill="black"/>
<path id="Vector_211" d="M91.5555 65.6915H87.7407V69.5063H91.5555V65.6915Z" fill="black"/>
<path id="Vector_212" d="M95.3705 65.6915H91.5557V69.5063H95.3705V65.6915Z" fill="black"/>
<path id="Vector_213" d="M38.1481 69.5063H34.3333V73.3211H38.1481V69.5063Z" fill="black"/>
<path id="Vector_214" d="M49.5926 69.5063H45.7778V73.3211H49.5926V69.5063Z" fill="black"/>
<path id="Vector_215" d="M61.037 69.5063H57.2222V73.3211H61.037V69.5063Z" fill="black"/>
<path id="Vector_216" d="M68.6666 69.5063H64.8518V73.3211H68.6666V69.5063Z" fill="black"/>
<path id="Vector_217" d="M83.9259 69.5063H80.1111V73.3211H83.9259V69.5063Z" fill="black"/>
<path id="Vector_218" d="M95.3705 69.5063H91.5557V73.3211H95.3705V69.5063Z" fill="black"/>
<path id="Vector_219" d="M7.62951 73.3211H3.8147V77.1359H7.62951V73.3211Z" fill="black"/>
<path id="Vector_220" d="M11.4445 73.3211H7.62964V77.1359H11.4445V73.3211Z" fill="black"/>
<path id="Vector_221" d="M15.2592 73.3211H11.4443V77.1359H15.2592V73.3211Z" fill="black"/>
<path id="Vector_222" d="M19.0741 73.3211H15.2593V77.1359H19.0741V73.3211Z" fill="black"/>
<path id="Vector_223" d="M22.8888 73.3211H19.074V77.1359H22.8888V73.3211Z" fill="black"/>
<path id="Vector_224" d="M26.7037 73.3211H22.8889V77.1359H26.7037V73.3211Z" fill="black"/>
<path id="Vector_225" d="M30.5184 73.3211H26.7036V77.1359H30.5184V73.3211Z" fill="black"/>
<path id="Vector_226" d="M41.963 73.3211H38.1482V77.1359H41.963V73.3211Z" fill="black"/>
<path id="Vector_227" d="M45.7777 73.3211H41.9629V77.1359H45.7777V73.3211Z" fill="black"/>
<path id="Vector_228" d="M53.4073 73.3211H49.5925V77.1359H53.4073V73.3211Z" fill="black"/>
<path id="Vector_229" d="M68.6666 73.3211H64.8518V77.1359H68.6666V73.3211Z" fill="black"/>
<path id="Vector_230" d="M76.2963 73.3211H72.4814V77.1359H76.2963V73.3211Z" fill="black"/>
<path id="Vector_231" d="M83.9259 73.3211H80.1111V77.1359H83.9259V73.3211Z" fill="black"/>
<path id="Vector_232" d="M87.7408 73.3211H83.926V77.1359H87.7408V73.3211Z" fill="black"/>
<path id="Vector_233" d="M99.1852 73.3211H95.3704V77.1359H99.1852V73.3211Z" fill="black"/>
<path id="Vector_234" d="M7.62951 77.1359H3.8147V80.9507H7.62951V77.1359Z" fill="black"/>
<path id="Vector_235" d="M30.5184 77.1359H26.7036V80.9507H30.5184V77.1359Z" fill="black"/>
<path id="Vector_236" d="M45.7777 77.1359H41.9629V80.9507H45.7777V77.1359Z" fill="black"/>
<path id="Vector_237" d="M49.5926 77.1359H45.7778V80.9507H49.5926V77.1359Z" fill="black"/>
<path id="Vector_238" d="M57.2223 77.1359H53.4075V80.9507H57.2223V77.1359Z" fill="black"/>
<path id="Vector_239" d="M61.037 77.1359H57.2222V80.9507H61.037V77.1359Z" fill="black"/>
<path id="Vector_240" d="M64.8519 77.1359H61.0371V80.9507H64.8519V77.1359Z" fill="black"/>
<path id="Vector_241" d="M68.6666 77.1359H64.8518V80.9507H68.6666V77.1359Z" fill="black"/>
<path id="Vector_242" d="M83.9259 77.1359H80.1111V80.9507H83.9259V77.1359Z" fill="black"/>
<path id="Vector_243" d="M99.1852 77.1359H95.3704V80.9507H99.1852V77.1359Z" fill="black"/>
<path id="Vector_244" d="M7.62951 80.9507H3.8147V84.7655H7.62951V80.9507Z" fill="black"/>
<path id="Vector_245" d="M15.2592 80.9507H11.4443V84.7655H15.2592V80.9507Z" fill="black"/>
<path id="Vector_246" d="M19.0741 80.9507H15.2593V84.7655H19.0741V80.9507Z" fill="black"/>
<path id="Vector_247" d="M22.8888 80.9507H19.074V84.7655H22.8888V80.9507Z" fill="black"/>
<path id="Vector_248" d="M30.5184 80.9507H26.7036V84.7655H30.5184V80.9507Z" fill="black"/>
<path id="Vector_249" d="M38.1481 80.9507H34.3333V84.7655H38.1481V80.9507Z" fill="black"/>
<path id="Vector_250" d="M45.7777 80.9507H41.9629V84.7655H45.7777V80.9507Z" fill="black"/>
<path id="Vector_251" d="M49.5926 80.9507H45.7778V84.7655H49.5926V80.9507Z" fill="black"/>
<path id="Vector_252" d="M53.4073 80.9507H49.5925V84.7655H53.4073V80.9507Z" fill="black"/>
<path id="Vector_253" d="M61.037 80.9507H57.2222V84.7655H61.037V80.9507Z" fill="black"/>
<path id="Vector_254" d="M64.8519 80.9507H61.0371V84.7655H64.8519V80.9507Z" fill="black"/>
<path id="Vector_255" d="M68.6666 80.9507H64.8518V84.7655H68.6666V80.9507Z" fill="black"/>
<path id="Vector_256" d="M72.4816 80.9507H68.6667V84.7655H72.4816V80.9507Z" fill="black"/>
<path id="Vector_257" d="M76.2963 80.9507H72.4814V84.7655H76.2963V80.9507Z" fill="black"/>
<path id="Vector_258" d="M80.1112 80.9507H76.2964V84.7655H80.1112V80.9507Z" fill="black"/>
<path id="Vector_259" d="M83.9259 80.9507H80.1111V84.7655H83.9259V80.9507Z" fill="black"/>
<path id="Vector_260" d="M87.7408 80.9507H83.926V84.7655H87.7408V80.9507Z" fill="black"/>
<path id="Vector_261" d="M7.62951 84.7655H3.8147V88.5803H7.62951V84.7655Z" fill="black"/>
<path id="Vector_262" d="M15.2592 84.7655H11.4443V88.5803H15.2592V84.7655Z" fill="black"/>
<path id="Vector_263" d="M19.0741 84.7655H15.2593V88.5803H19.0741V84.7655Z" fill="black"/>
<path id="Vector_264" d="M22.8888 84.7655H19.074V88.5803H22.8888V84.7655Z" fill="black"/>
<path id="Vector_265" d="M30.5184 84.7655H26.7036V88.5803H30.5184V84.7655Z" fill="black"/>
<path id="Vector_266" d="M38.1481 84.7655H34.3333V88.5803H38.1481V84.7655Z" fill="black"/>
<path id="Vector_267" d="M45.7777 84.7655H41.9629V88.5803H45.7777V84.7655Z" fill="black"/>
<path id="Vector_268" d="M53.4073 84.7655H49.5925V88.5803H53.4073V84.7655Z" fill="black"/>
<path id="Vector_269" d="M72.4816 84.7655H68.6667V88.5803H72.4816V84.7655Z" fill="black"/>
<path id="Vector_270" d="M76.2963 84.7655H72.4814V88.5803H76.2963V84.7655Z" fill="black"/>
<path id="Vector_271" d="M87.7408 84.7655H83.926V88.5803H87.7408V84.7655Z" fill="black"/>
<path id="Vector_272" d="M95.3705 84.7655H91.5557V88.5803H95.3705V84.7655Z" fill="black"/>
<path id="Vector_273" d="M99.1852 84.7655H95.3704V88.5803H99.1852V84.7655Z" fill="black"/>
<path id="Vector_274" d="M7.62951 88.5803H3.8147V92.3951H7.62951V88.5803Z" fill="black"/>
<path id="Vector_275" d="M15.2592 88.5803H11.4443V92.3951H15.2592V88.5803Z" fill="black"/>
<path id="Vector_276" d="M19.0741 88.5803H15.2593V92.3951H19.0741V88.5803Z" fill="black"/>
<path id="Vector_277" d="M22.8888 88.5803H19.074V92.3951H22.8888V88.5803Z" fill="black"/>
<path id="Vector_278" d="M30.5184 88.5803H26.7036V92.3951H30.5184V88.5803Z" fill="black"/>
<path id="Vector_279" d="M49.5926 88.5803H45.7778V92.3951H49.5926V88.5803Z" fill="black"/>
<path id="Vector_280" d="M61.037 88.5803H57.2222V92.3951H61.037V88.5803Z" fill="black"/>
<path id="Vector_281" d="M68.6666 88.5803H64.8518V92.3951H68.6666V88.5803Z" fill="black"/>
<path id="Vector_282" d="M72.4816 88.5803H68.6667V92.3951H72.4816V88.5803Z" fill="black"/>
<path id="Vector_283" d="M80.1112 88.5803H76.2964V92.3951H80.1112V88.5803Z" fill="black"/>
<path id="Vector_284" d="M83.9259 88.5803H80.1111V92.3951H83.9259V88.5803Z" fill="black"/>
<path id="Vector_285" d="M91.5555 88.5803H87.7407V92.3951H91.5555V88.5803Z" fill="black"/>
<path id="Vector_286" d="M95.3705 88.5803H91.5557V92.3951H95.3705V88.5803Z" fill="black"/>
<path id="Vector_287" d="M99.1852 88.5803H95.3704V92.3951H99.1852V88.5803Z" fill="black"/>
<path id="Vector_288" d="M7.62951 92.3951H3.8147V96.21H7.62951V92.3951Z" fill="black"/>
<path id="Vector_289" d="M30.5184 92.3951H26.7036V96.21H30.5184V92.3951Z" fill="black"/>
<path id="Vector_290" d="M38.1481 92.3951H34.3333V96.21H38.1481V92.3951Z" fill="black"/>
<path id="Vector_291" d="M41.963 92.3951H38.1482V96.21H41.963V92.3951Z" fill="black"/>
<path id="Vector_292" d="M49.5926 92.3951H45.7778V96.21H49.5926V92.3951Z" fill="black"/>
<path id="Vector_293" d="M72.4816 92.3951H68.6667V96.21H72.4816V92.3951Z" fill="black"/>
<path id="Vector_294" d="M80.1112 92.3951H76.2964V96.21H80.1112V92.3951Z" fill="black"/>
<path id="Vector_295" d="M83.9259 92.3951H80.1111V96.21H83.9259V92.3951Z" fill="black"/>
<path id="Vector_296" d="M91.5555 92.3951H87.7407V96.21H91.5555V92.3951Z" fill="black"/>
<path id="Vector_297" d="M95.3705 92.3951H91.5557V96.21H95.3705V92.3951Z" fill="black"/>
<path id="Vector_298" d="M99.1852 92.3951H95.3704V96.21H99.1852V92.3951Z" fill="black"/>
<path id="Vector_299" d="M7.62951 96.21H3.8147V100.025H7.62951V96.21Z" fill="black"/>
<path id="Vector_300" d="M11.4445 96.21H7.62964V100.025H11.4445V96.21Z" fill="black"/>
<path id="Vector_301" d="M15.2592 96.21H11.4443V100.025H15.2592V96.21Z" fill="black"/>
<path id="Vector_302" d="M19.0741 96.21H15.2593V100.025H19.0741V96.21Z" fill="black"/>
<path id="Vector_303" d="M22.8888 96.21H19.074V100.025H22.8888V96.21Z" fill="black"/>
<path id="Vector_304" d="M26.7037 96.21H22.8889V100.025H26.7037V96.21Z" fill="black"/>
<path id="Vector_305" d="M30.5184 96.21H26.7036V100.025H30.5184V96.21Z" fill="black"/>
<path id="Vector_306" d="M38.1481 96.21H34.3333V100.025H38.1481V96.21Z" fill="black"/>
<path id="Vector_307" d="M41.963 96.21H38.1482V100.025H41.963V96.21Z" fill="black"/>
<path id="Vector_308" d="M45.7777 96.21H41.9629V100.025H45.7777V96.21Z" fill="black"/>
<path id="Vector_309" d="M49.5926 96.21H45.7778V100.025H49.5926V96.21Z" fill="black"/>
<path id="Vector_310" d="M68.6666 96.21H64.8518V100.025H68.6666V96.21Z" fill="black"/>
<path id="Vector_311" d="M76.2963 96.21H72.4814V100.025H76.2963V96.21Z" fill="black"/>
<path id="Vector_312" d="M87.7408 96.21H83.926V100.025H87.7408V96.21Z" fill="black"/>
<path id="Vector_313" d="M99.1852 96.21H95.3704V100.025H99.1852V96.21Z" fill="black"/>
</g>
</g>
<defs>
<clipPath id="clip0_104_322">
<rect width="103" height="103" fill="white" transform="translate(0 0.8396)"/>
</clipPath>
</defs>
</svg>
